<?xml version="1.0" encoding="UTF-8" standalone="no"?>
<!-- Created with Inkscape (http://www.inkscape.org/) -->
<svg
   xmlns:dc="http://purl.org/dc/elements/1.1/"
   xmlns:cc="http://creativecommons.org/ns#"
   xmlns:rdf="http://www.w3.org/1999/02/22-rdf-syntax-ns#"
   xmlns:svg="http://www.w3.org/2000/svg"
   xmlns="http://www.w3.org/2000/svg"
   xmlns:xlink="http://www.w3.org/1999/xlink"
   xmlns:sodipodi="http://sodipodi.sourceforge.net/DTD/sodipodi-0.dtd"
   xmlns:inkscape="http://www.inkscape.org/namespaces/inkscape"
   width="210mm"
   height="297mm"
   id="svg2"
   sodipodi:version="0.32"
   inkscape:version="0.46"
   sodipodi:docname="bu_child.svg"
   inkscape:output_extension="org.inkscape.output.svg.inkscape"
   inkscape:export-filename="/home/lfcia/tothemario/Desktop/thearsmonsters images/monsters/Bu/Child.png"
   inkscape:export-xdpi="90"
   inkscape:export-ydpi="90">
  <defs
     id="defs4">
    <linearGradient
       id="linearGradient3368">
      <stop
         style="stop-color:#649764;stop-opacity:1;"
         offset="0"
         id="stop3370" />
      <stop
         style="stop-color:#649764;stop-opacity:0;"
         offset="1"
         id="stop3372" />
    </linearGradient>
    <linearGradient
       id="linearGradient3350">
      <stop
         style="stop-color:#649764;stop-opacity:1;"
         offset="0"
         id="stop3352" />
      <stop
         style="stop-color:#315b2d;stop-opacity:1;"
         offset="1"
         id="stop3354" />
    </linearGradient>
    <linearGradient
       id="linearGradient3342">
      <stop
         style="stop-color:#ffffff;stop-opacity:1;"
         offset="0"
         id="stop3344" />
      <stop
         style="stop-color:#bebebe;stop-opacity:1;"
         offset="1"
         id="stop3346" />
    </linearGradient>
    <inkscape:perspective
       sodipodi:type="inkscape:persp3d"
       inkscape:vp_x="0 : 526.18109 : 1"
       inkscape:vp_y="0 : 1000 : 0"
       inkscape:vp_z="744.09448 : 526.18109 : 1"
       inkscape:persp3d-origin="372.04724 : 350.78739 : 1"
       id="perspective10" />
    <inkscape:perspective
       id="perspective2464"
       inkscape:persp3d-origin="372.04724 : 350.78739 : 1"
       inkscape:vp_z="744.09448 : 526.18109 : 1"
       inkscape:vp_y="0 : 1000 : 0"
       inkscape:vp_x="0 : 526.18109 : 1"
       sodipodi:type="inkscape:persp3d" />
    <inkscape:perspective
       id="perspective2559"
       inkscape:persp3d-origin="372.04724 : 350.78739 : 1"
       inkscape:vp_z="744.09448 : 526.18109 : 1"
       inkscape:vp_y="0 : 1000 : 0"
       inkscape:vp_x="0 : 526.18109 : 1"
       sodipodi:type="inkscape:persp3d" />
    <radialGradient
       inkscape:collect="always"
       xlink:href="#linearGradient3350"
       id="radialGradient3374"
       cx="305.08334"
       cy="230.10773"
       fx="305.08334"
       fy="230.10773"
       r="16.309517"
       gradientTransform="matrix(-0.1015209,1.6611387,-1.0410993,-6.3627062e-2,575.26355,-263.3115)"
       gradientUnits="userSpaceOnUse" />
    <radialGradient
       inkscape:collect="always"
       xlink:href="#linearGradient3342"
       id="radialGradient3803"
       cx="289.39212"
       cy="221.03595"
       fx="289.39212"
       fy="221.03595"
       r="14.25"
       gradientTransform="matrix(1.7008169,-5.6505225e-2,3.759378e-2,1.1315792,-210.15546,-14.708864)"
       gradientUnits="userSpaceOnUse" />
    <filter
       inkscape:collect="always"
       id="filter5962"
       x="-0.22979376"
       width="1.4595875"
       y="-0.25463706"
       height="1.5092741">
      <feGaussianBlur
         inkscape:collect="always"
         stdDeviation="0.41652133"
         id="feGaussianBlur5964" />
    </filter>
    <filter
       inkscape:collect="always"
       id="filter6035">
      <feGaussianBlur
         inkscape:collect="always"
         stdDeviation="0.62935813"
         id="feGaussianBlur6037" />
    </filter>
    <filter
       inkscape:collect="always"
       id="filter6088">
      <feGaussianBlur
         inkscape:collect="always"
         stdDeviation="1.1620931"
         id="feGaussianBlur6090" />
    </filter>
  </defs>
  <sodipodi:namedview
     id="base"
     pagecolor="#ffffff"
     bordercolor="#666666"
     borderopacity="1.0"
     inkscape:pageopacity="0.0"
     inkscape:pageshadow="2"
     inkscape:zoom="1.979899"
     inkscape:cx="264.76071"
     inkscape:cy="829.47413"
     inkscape:document-units="px"
     inkscape:current-layer="layer2"
     showgrid="false"
     inkscape:window-width="1065"
     inkscape:window-height="757"
     inkscape:window-x="79"
     inkscape:window-y="13" />
  <metadata
     id="metadata7">
    <rdf:RDF>
      <cc:Work
         rdf:about="">
        <dc:format>image/svg+xml</dc:format>
        <dc:type
           rdf:resource="http://purl.org/dc/dcmitype/StillImage" />
      </cc:Work>
    </rdf:RDF>
  </metadata>
  <g
     inkscape:label="fondo"
     inkscape:groupmode="layer"
     id="layer1"
     style="display:none">
    <image
       y="201.2522"
       x="-327.29956"
       id="image2466"
       height="63.824265"
       width="60.013859"
       sodipodi:absref="/home/lfcia/tothemario/Desktop/thearsmonsters_templates/bu_child.jpg"
       xlink:href="bu_child.jpg"
       transform="scale(-1,1)" />
  </g>
  <g
     inkscape:groupmode="layer"
     id="layer2"
     inkscape:label="monstruo"
     style="display:inline">
    <g
       id="g6048"
       transform="translate(2.1428569,-1.0000508e-7)"
       style="fill:#000000;fill-opacity:1;filter:url(#filter6088);opacity:0.21702128"
       inkscape:export-filename="/home/mads/tothemario/Desktop/thearsmonsters images/monsters/Bu/Child.png"
       inkscape:export-xdpi="90"
       inkscape:export-ydpi="90">
      <path
         style="fill:#000000;fill-opacity:1;fill-rule:evenodd;stroke:#000000;stroke-width:1px;stroke-linecap:butt;stroke-linejoin:miter;stroke-opacity:1"
         d="M 307.76786,236.64789 C 303.87546,237.81996 302.29239,241.77782 303.57143,245.30861 C 304.03098,246.22771 305.22876,246.11218 306.25,246.11218 C 310.84118,246.61557 311.32599,241.98381 310.89286,238.07647 C 309.96564,235.88604 309.77493,236.62024 307.76786,236.64789 z"
         id="path6050"
         sodipodi:nodetypes="ccccc" />
      <path
         style="fill:#000000;fill-opacity:1;fill-rule:evenodd;stroke:#000000;stroke-width:1px;stroke-linecap:butt;stroke-linejoin:miter;stroke-opacity:1"
         d="M 316.78572,250.75505 C 306.16961,244.05794 327.33304,228.60431 303.21429,219.32648 C 293.80049,216.77703 283.13031,219.57985 285.10461,236.58291 C 288.15003,243.59149 296.53184,240.00965 303.92857,237.8979 C 309.15958,236.9997 308.10503,239.48604 307.32143,241.82648 C 304.94854,246.10103 301.70082,245.1266 298.39286,243.79076 C 293.54921,241.70385 289.94809,242.60984 289.10715,245.3979 C 283.85031,262.82655 310.26776,256.34509 316.78572,250.75505 z"
         id="path6052"
         sodipodi:nodetypes="ccccccsc"
         inkscape:export-filename="/home/lfcia/tothemario/tothemario/j2ee-thearsmonsters/thearsmonsters/src/main/webapp/images/monsters/Bu/Child.png"
         inkscape:export-xdpi="90"
         inkscape:export-ydpi="90" />
      <path
         sodipodi:nodetypes="csssssc"
         id="path6054"
         d="M 306.11957,225.60516 C 306.11957,229.03956 305.4254,232.31634 302.96292,234.5686 C 300.50043,236.82087 297.09922,237.21906 293.34428,237.21906 C 285.8344,237.21906 280.56899,234.13309 280.56899,227.2643 C 280.56899,223.8299 282.09273,219.68207 284.55521,217.55424 C 287.01769,215.42641 289.75525,214.489 293.51019,214.489 C 301.02008,214.489 306.11957,218.73637 306.11957,225.60516 z"
         style="opacity:0.21276597999999999;fill:#000000;fill-opacity:1;fill-rule:evenodd;stroke:#000000;stroke-width:0.92911208000000001;stroke-linecap:round;stroke-linejoin:round;stroke-miterlimit:4;stroke-dashoffset:0;stroke-opacity:1;filter:url(#filter6035)" />
      <g
         id="g6056"
         style="opacity:1;fill:#000000;fill-opacity:1"
         transform="translate(-0.1785714,0.3571429)"
         inkscape:export-filename="/home/lfcia/tothemario/tothemario/j2ee-thearsmonsters/thearsmonsters/src/main/webapp/images/monsters/Bu/Child.png"
         inkscape:export-xdpi="90"
         inkscape:export-ydpi="90">
        <path
           sodipodi:nodetypes="csssssc"
           id="path6058"
           d="M 305.00001,224.32648 C 305.00001,228.02291 304.25287,231.5497 301.60251,233.9738 C 298.95215,236.39791 295.29144,236.82648 291.25001,236.82648 C 283.16715,236.82648 277.50001,233.50506 277.50001,226.1122 C 277.50001,222.41577 279.14001,217.95148 281.79036,215.6613 C 284.44072,213.37112 287.38715,212.36219 291.42858,212.36219 C 299.51144,212.36219 305.00001,216.93362 305.00001,224.32648 z"
           style="opacity:1;fill:#000000;fill-opacity:1;fill-rule:evenodd;stroke:#000000;stroke-width:1;stroke-linecap:round;stroke-linejoin:round;stroke-miterlimit:4;stroke-dashoffset:0;stroke-opacity:1" />
      </g>
    </g>
    <g
       id="g6039"
       inkscape:export-filename="/home/mads/tothemario/Desktop/thearsmonsters images/monsters/Bu/Child.png"
       inkscape:export-xdpi="90"
       inkscape:export-ydpi="90">
      <path
         sodipodi:nodetypes="ccccc"
         id="path2412"
         d="M 307.76786,236.64789 C 303.87546,237.81996 302.29239,241.77782 303.57143,245.30861 C 304.03098,246.22771 305.22876,246.11218 306.25,246.11218 C 310.84118,246.61557 311.32599,241.98381 310.89286,238.07647 C 309.96564,235.88604 309.77493,236.62024 307.76786,236.64789 z"
         style="fill:#a24963;fill-opacity:1;fill-rule:evenodd;stroke:#000000;stroke-width:1px;stroke-linecap:butt;stroke-linejoin:miter;stroke-opacity:1" />
      <path
         inkscape:export-ydpi="90"
         inkscape:export-xdpi="90"
         inkscape:export-filename="/home/lfcia/tothemario/tothemario/j2ee-thearsmonsters/thearsmonsters/src/main/webapp/images/monsters/Bu/Child.png"
         sodipodi:nodetypes="ccccccsc"
         id="path3340"
         d="M 316.78572,250.75505 C 306.16961,244.05794 327.33304,228.60431 303.21429,219.32648 C 293.80049,216.77703 283.13031,219.57985 285.10461,236.58291 C 288.15003,243.59149 296.53184,240.00965 303.92857,237.8979 C 309.15958,236.9997 308.10503,239.48604 307.32143,241.82648 C 304.94854,246.10103 301.70082,245.1266 298.39286,243.79076 C 293.54921,241.70385 289.94809,242.60984 289.10715,245.3979 C 283.85031,262.82655 310.26776,256.34509 316.78572,250.75505 z"
         style="fill:url(#radialGradient3374);fill-opacity:1;fill-rule:evenodd;stroke:#000000;stroke-width:1px;stroke-linecap:butt;stroke-linejoin:miter;stroke-opacity:1" />
      <path
         style="opacity:0.21276598;fill:#000000;fill-opacity:1;fill-rule:evenodd;stroke:#000000;stroke-width:0.92911208;stroke-linecap:round;stroke-linejoin:round;stroke-miterlimit:4;stroke-dashoffset:0;stroke-opacity:1;filter:url(#filter6035)"
         d="M 306.11957,225.60516 C 306.11957,229.03956 305.4254,232.31634 302.96292,234.5686 C 300.50043,236.82087 297.09922,237.21906 293.34428,237.21906 C 285.8344,237.21906 280.56899,234.13309 280.56899,227.2643 C 280.56899,223.8299 282.09273,219.68207 284.55521,217.55424 C 287.01769,215.42641 289.75525,214.489 293.51019,214.489 C 301.02008,214.489 306.11957,218.73637 306.11957,225.60516 z"
         id="path5968"
         sodipodi:nodetypes="csssssc" />
      <g
         inkscape:export-ydpi="90"
         inkscape:export-xdpi="90"
         inkscape:export-filename="/home/lfcia/tothemario/tothemario/j2ee-thearsmonsters/thearsmonsters/src/main/webapp/images/monsters/Bu/Child.png"
         transform="translate(-0.1785714,0.3571429)"
         style="opacity:1"
         id="g3784">
        <path
           style="opacity:1;fill:url(#radialGradient3803);fill-opacity:1;fill-rule:evenodd;stroke:#000000;stroke-width:1;stroke-linecap:round;stroke-linejoin:round;stroke-miterlimit:4;stroke-dashoffset:0;stroke-opacity:1"
           d="M 305.00001,224.32648 C 305.00001,228.02291 304.25287,231.5497 301.60251,233.9738 C 298.95215,236.39791 295.29144,236.82648 291.25001,236.82648 C 283.16715,236.82648 277.50001,233.50506 277.50001,226.1122 C 277.50001,222.41577 279.14001,217.95148 281.79036,215.6613 C 284.44072,213.37112 287.38715,212.36219 291.42858,212.36219 C 299.51144,212.36219 305.00001,216.93362 305.00001,224.32648 z"
           id="path2565"
           sodipodi:nodetypes="csssssc" />
        <path
           sodipodi:nodetypes="csssssc"
           id="path3376"
           d="M 283.84326,223.79123 C 283.77984,222.29948 284.02086,220.8634 285.04886,219.83965 C 286.07686,218.8159 287.54683,218.58015 289.17782,218.51082 C 292.43975,218.37216 294.78378,219.61536 294.9106,222.59884 C 294.97401,224.09058 294.38875,225.92034 293.35845,226.89003 C 292.32815,227.85973 291.15638,228.31743 289.52542,228.38676 C 286.26348,228.52541 283.97007,226.77471 283.84326,223.79123 z"
           style="opacity:1;fill:#2a2a2a;fill-opacity:1;fill-rule:evenodd;stroke:#000000;stroke-width:0.40392718;stroke-linecap:round;stroke-linejoin:round;stroke-miterlimit:4;stroke-dashoffset:0;stroke-opacity:1" />
        <path
           transform="matrix(0.8768532,0,0,0.8180529,34.91429,39.973696)"
           style="opacity:1;fill:#ffffff;fill-opacity:1;fill-rule:evenodd;stroke:none;stroke-width:0.40392718;stroke-linecap:round;stroke-linejoin:round;stroke-miterlimit:4;stroke-dashoffset:0;stroke-opacity:1;filter:url(#filter5962)"
           d="M 285.63796,221.1888 C 285.78391,220.63156 286.03578,220.1294 286.53103,219.86861 C 287.02628,219.60782 287.59505,219.68775 288.2043,219.84731 C 289.42278,220.16644 290.14596,220.8909 289.85407,222.00537 C 289.70813,222.5626 289.28464,223.17084 288.79468,223.41144 C 288.30472,223.65204 287.82071,223.6878 287.21147,223.52824 C 285.99298,223.20911 285.34607,222.30327 285.63796,221.1888 z"
           id="path3378"
           sodipodi:nodetypes="csssssc" />
      </g>
    </g>
  </g>
</svg>
