<?xml version="1.0" encoding="UTF-8" standalone="no"?>
<!-- Created with Inkscape (http://www.inkscape.org/) -->
<svg
   xmlns:dc="http://purl.org/dc/elements/1.1/"
   xmlns:cc="http://creativecommons.org/ns#"
   xmlns:rdf="http://www.w3.org/1999/02/22-rdf-syntax-ns#"
   xmlns:svg="http://www.w3.org/2000/svg"
   xmlns="http://www.w3.org/2000/svg"
   xmlns:xlink="http://www.w3.org/1999/xlink"
   xmlns:sodipodi="http://sodipodi.sourceforge.net/DTD/sodipodi-0.dtd"
   xmlns:inkscape="http://www.inkscape.org/namespaces/inkscape"
   width="210mm"
   height="297mm"
   id="svg2"
   sodipodi:version="0.32"
   inkscape:version="0.46"
   sodipodi:docname="bu_old.svg"
   inkscape:output_extension="org.inkscape.output.svg.inkscape"
   inkscape:export-filename="/home/lfcia/tothemario/tothemario/j2ee-thearsmonsters/thearsmonsters/src/main/webapp/images/bu_old.png"
   inkscape:export-xdpi="90"
   inkscape:export-ydpi="90">
  <defs
     id="defs4">
    <linearGradient
       id="linearGradient3644">
      <stop
         style="stop-color:#3a7833;stop-opacity:1;"
         offset="0"
         id="stop3646" />
      <stop
         style="stop-color:#a17a7a;stop-opacity:1;"
         offset="1"
         id="stop3648" />
    </linearGradient>
    <linearGradient
       id="linearGradient3345">
      <stop
         style="stop-color:#ffffff;stop-opacity:1;"
         offset="0"
         id="stop3347" />
      <stop
         style="stop-color:#979797;stop-opacity:0;"
         offset="1"
         id="stop3349" />
    </linearGradient>
    <linearGradient
       id="linearGradient3327">
      <stop
         style="stop-color:#ffffff;stop-opacity:1;"
         offset="0"
         id="stop3329" />
      <stop
         style="stop-color:#e5d2cd;stop-opacity:1;"
         offset="1"
         id="stop3331" />
    </linearGradient>
    <inkscape:perspective
       sodipodi:type="inkscape:persp3d"
       inkscape:vp_x="0 : 526.18109 : 1"
       inkscape:vp_y="0 : 1000 : 0"
       inkscape:vp_z="744.09448 : 526.18109 : 1"
       inkscape:persp3d-origin="372.04724 : 350.78739 : 1"
       id="perspective10" />
    <inkscape:perspective
       id="perspective2464"
       inkscape:persp3d-origin="372.04724 : 350.78739 : 1"
       inkscape:vp_z="744.09448 : 526.18109 : 1"
       inkscape:vp_y="0 : 1000 : 0"
       inkscape:vp_x="0 : 526.18109 : 1"
       sodipodi:type="inkscape:persp3d" />
    <inkscape:perspective
       id="perspective2548"
       inkscape:persp3d-origin="372.04724 : 350.78739 : 1"
       inkscape:vp_z="744.09448 : 526.18109 : 1"
       inkscape:vp_y="0 : 1000 : 0"
       inkscape:vp_x="0 : 526.18109 : 1"
       sodipodi:type="inkscape:persp3d" />
    <filter
       inkscape:collect="always"
       id="filter3487"
       x="-0.13335854"
       width="1.2667171"
       y="-0.26671707"
       height="1.5334341">
      <feGaussianBlur
         inkscape:collect="always"
         stdDeviation="0.089302588"
         id="feGaussianBlur3489" />
    </filter>
    <filter
       inkscape:collect="always"
       id="filter4260"
       x="-0.1735318"
       width="1.3470636"
       y="-0.16577592"
       height="1.3315518">
      <feGaussianBlur
         inkscape:collect="always"
         stdDeviation="0.37109551"
         id="feGaussianBlur4262" />
    </filter>
    <filter
       inkscape:collect="always"
       id="filter4419"
       x="-0.11409981"
       width="1.2281996"
       y="-0.12654367"
       height="1.2530873">
      <feGaussianBlur
         inkscape:collect="always"
         stdDeviation="1.2213841"
         id="feGaussianBlur4421" />
    </filter>
    <filter
       inkscape:collect="always"
       id="filter4475"
       x="-0.094913825"
       width="1.1898277"
       y="-0.10566215"
       height="1.2113243">
      <feGaussianBlur
         inkscape:collect="always"
         stdDeviation="3.0278575"
         id="feGaussianBlur4477" />
    </filter>
    <filter
       inkscape:collect="always"
       id="filter3312">
      <feGaussianBlur
         inkscape:collect="always"
         stdDeviation="0.45645708"
         id="feGaussianBlur3314" />
    </filter>
    <filter
       inkscape:collect="always"
       id="filter3380">
      <feGaussianBlur
         inkscape:collect="always"
         stdDeviation="0.43549813"
         id="feGaussianBlur3382" />
    </filter>
    <linearGradient
       inkscape:collect="always"
       xlink:href="#linearGradient3644"
       id="linearGradient3428"
       gradientUnits="userSpaceOnUse"
       x1="198.73387"
       y1="255.80653"
       x2="229.50262"
       y2="209.84457" />
    <linearGradient
       inkscape:collect="always"
       xlink:href="#linearGradient3644"
       id="linearGradient3430"
       gradientUnits="userSpaceOnUse"
       gradientTransform="translate(-0.6313453,2.7779195)"
       x1="220.08501"
       y1="249.56279"
       x2="225.87219"
       y2="223.80388" />
    <radialGradient
       inkscape:collect="always"
       xlink:href="#linearGradient3327"
       id="radialGradient3432"
       gradientUnits="userSpaceOnUse"
       gradientTransform="matrix(0.8820414,-9.3750747e-8,1.2091161e-7,1.1375808,30.59842,-38.530955)"
       cx="259.82297"
       cy="285.95581"
       fx="259.82297"
       fy="285.95581"
       r="12.845428" />
    <linearGradient
       inkscape:collect="always"
       xlink:href="#linearGradient3345"
       id="linearGradient3434"
       gradientUnits="userSpaceOnUse"
       gradientTransform="matrix(0.818476,-0.2534809,0.2452226,0.7918103,-33.385943,129.53502)"
       x1="267.87286"
       y1="286.88898"
       x2="269.81067"
       y2="288.64978" />
    <filter
       inkscape:collect="always"
       id="filter3452">
      <feGaussianBlur
         inkscape:collect="always"
         stdDeviation="2.1063356"
         id="feGaussianBlur3454" />
    </filter>
    <filter
       inkscape:collect="always"
       id="filter3492">
      <feGaussianBlur
         inkscape:collect="always"
         stdDeviation="0.11317398"
         id="feGaussianBlur3494" />
    </filter>
    <filter
       inkscape:collect="always"
       id="filter3548"
       x="-0.18733699"
       width="1.374674"
       y="-0.37467398"
       height="1.749348">
      <feGaussianBlur
         inkscape:collect="always"
         stdDeviation="0.12544887"
         id="feGaussianBlur3550" />
    </filter>
    <filter
       inkscape:collect="always"
       id="filter3708">
      <feGaussianBlur
         inkscape:collect="always"
         stdDeviation="2.7556901"
         id="feGaussianBlur3710" />
    </filter>
    <inkscape:perspective
       id="perspective3793"
       inkscape:persp3d-origin="372.04724 : 350.78739 : 1"
       inkscape:vp_z="744.09448 : 526.18109 : 1"
       inkscape:vp_y="0 : 1000 : 0"
       inkscape:vp_x="0 : 526.18109 : 1"
       sodipodi:type="inkscape:persp3d" />
  </defs>
  <sodipodi:namedview
     id="base"
     pagecolor="#ffffff"
     bordercolor="#666666"
     borderopacity="1.0"
     inkscape:pageopacity="0.0"
     inkscape:pageshadow="2"
     inkscape:zoom="2.8"
     inkscape:cx="227.44133"
     inkscape:cy="790.06293"
     inkscape:document-units="px"
     inkscape:current-layer="g3605"
     showgrid="false"
     inkscape:window-width="1340"
     inkscape:window-height="830"
     inkscape:window-x="186"
     inkscape:window-y="106" />
  <metadata
     id="metadata7">
    <rdf:RDF>
      <cc:Work
         rdf:about="">
        <dc:format>image/svg+xml</dc:format>
        <dc:type
           rdf:resource="http://purl.org/dc/dcmitype/StillImage" />
      </cc:Work>
    </rdf:RDF>
  </metadata>
  <g
     inkscape:label="plantilla"
     inkscape:groupmode="layer"
     id="layer1"
     style="display:inline">
    <image
       y="267.9635"
       x="-379.04407"
       id="image3795"
       height="89.983994"
       width="92.738602"
       sodipodi:absref="/home/mads/tothemario/Desktop/thearsmonsters images/xcf_files/monsters/templates/bu_old.jpg"
       xlink:href="/home/mads/tothemario/Desktop/thearsmonsters images/xcf_files/monsters/templates/bu_old.jpg"
       transform="scale(-1,1)" />
    <rect
       style="opacity:0;fill:#eeeeee;fill-opacity:1;stroke:none;stroke-width:0.35499999;stroke-linecap:round;stroke-linejoin:round;stroke-miterlimit:4;stroke-dasharray:none;stroke-opacity:1"
       id="rect3799"
       width="87.125656"
       height="78.513969"
       x="190.91884"
       y="276.05997"
       ry="0"
       inkscape:export-filename="/home/lfcia/tothemario/tothemario/j2ee-thearsmonsters/thearsmonsters/src/main/webapp/images/monsters/Bu/Old.png"
       inkscape:export-xdpi="90"
       inkscape:export-ydpi="90" />
  </g>
  <g
     inkscape:groupmode="layer"
     id="layer2"
     inkscape:label="monstruo"
     style="display:inline">
    <g
       id="g3389"
       transform="translate(17.172593,-368.70568)"
       inkscape:export-filename="/home/lfcia/tothemario/tothemario/j2ee-thearsmonsters/thearsmonsters/src/main/webapp/images/monsters/Bu/Old.png"
       inkscape:export-xdpi="90"
       inkscape:export-ydpi="90">
      <g
         inkscape:export-ydpi="90"
         inkscape:export-xdpi="90"
         inkscape:export-filename="/home/mads/tothemario/Desktop/thearsmonsters images/monsters/Bu/Old.png"
         style="opacity:1;fill:#000000;fill-opacity:1;stroke:none;filter:url(#filter3708)"
         transform="translate(-68.120304,33.75717)"
         id="g4313">
        <path
           id="path4273"
           d="M 284.29856,194.0002 C 279.33636,195.98861 282.30102,203.06617 280.86106,207.2502 C 279.801,213.6717 271.4551,211.04985 266.92356,211.5627 C 263.60471,210.28369 259.31539,212.1378 260.32981,216.1877 C 259.41368,219.63447 262.80671,222.27517 264.51731,223.65645 C 263.48775,227.13245 266.37747,233.81238 260.70481,233.21895 C 257.29436,232.90615 250.79193,230.89112 250.64231,236.28145 C 249.30115,239.38027 251.5731,243.52674 255.01731,241.28145 C 258.78378,239.71387 264.10725,241.86928 263.86106,246.4377 C 267.61206,249.34109 266.9572,256.12878 272.76731,256.65645 C 285.47782,259.3427 298.90787,259.12239 311.57981,256.0002 C 316.12896,253.66649 321.01159,251.06723 324.45481,247.3127 C 324.61867,240.34806 315.40399,241.78869 311.95481,237.40645 C 309.29457,234.80764 305.72202,233.32465 306.61106,229.21895 C 304.22259,219.52969 308.43295,206.73995 299.54856,199.6252 C 295.19881,196.11891 289.56459,194.92425 284.29856,194.0002 z M 289.51731,203.0002 C 293.57491,203.33217 290.07628,206.92037 288.79856,204.40645 C 288.7121,203.99183 288.80612,202.93992 289.51731,203.0002 z"
           style="opacity:1;fill:#000000;fill-opacity:1;fill-rule:nonzero;stroke:none;stroke-width:0.82599998;stroke-linecap:round;stroke-linejoin:round;stroke-miterlimit:4;stroke-dasharray:none;stroke-dashoffset:0;stroke-opacity:1"
           transform="translate(-0.2525394,425.7793)" />
        <path
           transform="translate(-0.2525394,425.7793)"
           id="path4277"
           d="M 256.17356,239.0002 C 248.76272,239.93364 248.76438,248.84516 248.61106,254.59395 C 248.9161,259.02053 255.65908,258.67204 255.42356,254.15645 C 256.28858,252.17355 255.32517,247.01105 257.01731,246.65645 C 257.83087,249.9874 262.94497,252.70268 264.73606,248.59395 C 266.76664,243.10994 261.15234,238.83851 256.17356,239.0002 z"
           style="opacity:1;fill:#000000;fill-opacity:1;fill-rule:nonzero;stroke:none;stroke-width:0.82599998;stroke-linecap:round;stroke-linejoin:round;stroke-miterlimit:4;stroke-dasharray:none;stroke-dashoffset:0;stroke-opacity:1" />
        <path
           transform="translate(-0.2525394,425.7793)"
           id="path4279"
           d="M 256.66913,239.66152 C 255.49684,239.61267 254.35682,239.83458 253.20038,240.31777 C 252.69337,240.52961 252.24892,240.72039 251.88788,240.84902 C 251.46171,241.46061 251.0305,242.04607 250.38788,242.69277 C 250.38206,242.69863 250.39375,242.71816 250.38788,242.72402 C 250.5311,243.90632 250.29132,245.4896 249.45038,249.66152 C 248.00141,256.84982 247.97325,256.21128 249.51288,256.84902 C 250.27414,257.16434 251.82432,257.33591 252.95038,257.25527 L 255.01288,257.13027 L 255.32538,254.78652 C 255.51115,253.50333 255.84494,251.20131 256.04413,249.66152 C 256.30499,247.64496 256.6025,246.84902 257.10663,246.84902 C 257.49158,246.84899 257.87082,247.32149 257.95038,247.88027 C 258.17366,249.4484 259.07626,249.87283 262.23163,250.00527 L 263.95038,250.06777 C 263.95038,249.5902 263.95038,249.10785 263.95038,248.63027 C 263.95038,247.98234 264.31545,247.42487 264.57538,246.94277 C 264.24481,246.52599 264.11144,246.03953 264.10663,245.31777 C 264.09301,243.27238 262.82648,241.66588 260.41913,240.63027 C 259.05143,240.04188 257.84143,239.71037 256.66913,239.66152 z M 256.57538,240.84902 C 257.06455,240.82622 257.60939,240.94445 258.45038,241.19277 C 259.53703,241.51359 261.05598,242.37283 261.82538,243.09902 C 263.04659,244.25162 263.19735,244.68648 263.07538,246.56777 C 262.94334,248.60455 262.85901,248.72402 261.57538,248.72402 C 260.4385,248.72401 260.12728,248.46604 259.66913,247.09902 C 258.83427,244.60798 255.7484,243.37846 254.79413,245.16152 C 254.53725,245.64153 254.18684,247.79228 254.01288,249.94277 C 253.55221,255.63761 252.97074,256.72378 251.04413,255.50527 C 250.55545,255.19619 250.39807,254.36664 250.48163,252.59902 C 250.65369,248.95963 252.13004,242.78477 252.91913,242.41152 C 253.29206,242.23511 254.25702,241.75721 255.04413,241.34902 C 255.65332,241.03312 256.08622,240.87182 256.57538,240.84902 z"
           style="fill:#000000;fill-opacity:1;stroke:none" />
        <path
           transform="translate(-0.2525394,425.7793)"
           id="path4281"
           d="M 288.52482,201.30866 C 288.86213,201.1633 290.04958,201.43731 290.54513,201.5612 C 291.52918,201.80721 291.88158,201.83499 292.31289,202.69762 C 292.60429,203.28041 292.81797,203.2667 292.81797,204.21285 C 292.81797,205.19026 292.75125,205.28971 292.18662,205.85434 C 291.66966,206.37131 291.221,206.74713 290.54513,206.61196 C 290.07868,206.51867 289.26854,206.00176 288.90363,205.72808 C 288.29795,205.27382 288.07506,205.3613 287.76721,204.59165 C 287.58359,204.13261 287.76721,203.2 287.76721,202.69762 C 287.76721,202.04108 288.34434,200.40623 288.65109,201.94"
           style="fill:#000000;fill-opacity:1;fill-rule:evenodd;stroke:none;stroke-width:1px;stroke-linecap:butt;stroke-linejoin:miter;stroke-opacity:1;filter:url(#filter4260)" />
        <path
           transform="translate(-0.2525394,425.7793)"
           id="path4283"
           d="M 288.28713,201.63281 C 288.12063,201.62562 287.96521,201.65898 287.88088,201.69531 L 288.00588,202.32031 C 287.69913,200.78654 287.13089,202.41378 287.13088,203.07031 C 287.13088,203.57269 286.94727,204.51751 287.13088,204.97656 C 287.43873,205.74621 287.68145,205.64731 288.28713,206.10156 C 288.65204,206.37524 289.44568,206.88325 289.91213,206.97656 C 290.5745,207.10903 291.03305,206.75878 291.53713,206.25781 C 291.41765,206.26875 291.29745,206.25362 291.16213,206.22656 C 290.69568,206.13327 289.90204,205.62524 289.53713,205.35156 C 288.93146,204.89733 288.71998,204.99621 288.41213,204.22656 C 288.22851,203.76753 288.41213,202.82269 288.41213,202.32031 C 288.41213,202.14826 288.44186,201.89585 288.50588,201.66406 C 288.43406,201.6566 288.35163,201.63559 288.28713,201.63281 z"
           style="opacity:0.80147059;fill:#000000;fill-opacity:1;fill-rule:evenodd;stroke:none;stroke-width:1px;stroke-linecap:butt;stroke-linejoin:miter;stroke-opacity:1;filter:url(#filter4260)" />
        <path
           transform="matrix(0.7749141,0,0,0.506479,122.87523,525.63655)"
           style="opacity:0.80147059;fill:#000000;fill-opacity:1;fill-rule:evenodd;stroke:none;stroke-width:1px;stroke-linecap:butt;stroke-linejoin:miter;stroke-opacity:1;filter:url(#filter4260)"
           d="M 224.01618,206.43104 C 223.84968,206.42385 223.69426,206.45721 223.60993,206.49354 L 223.73493,207.11854 C 223.42818,205.58477 222.85994,207.21201 222.85993,207.86854 C 222.85993,208.37092 222.67632,209.31574 222.85993,209.77479 C 223.16778,210.54444 223.4105,210.44554 224.01618,210.89979 C 224.38109,211.17347 225.17473,211.68148 225.64118,211.77479 C 226.30355,211.90726 226.7621,211.55701 227.26618,211.05604 C 227.1467,211.06698 227.0265,211.05185 226.89118,211.02479 C 226.42473,210.9315 225.63109,210.42347 225.26618,210.14979 C 224.66051,209.69556 224.44903,209.79444 224.14118,209.02479 C 223.95756,208.56576 224.14118,207.62092 224.14118,207.11854 C 224.14118,206.94649 224.17091,206.69408 224.23493,206.46229 C 224.16311,206.45483 224.08068,206.43382 224.01618,206.43104 z"
           id="path4285" />
        <path
           transform="matrix(0.3889246,0,0,0.3889246,206.60269,552.12858)"
           style="fill:#000000;fill-opacity:1;fill-rule:evenodd;stroke:none;stroke-width:1px;stroke-linecap:butt;stroke-linejoin:miter;stroke-opacity:1;filter:url(#filter4260)"
           d="M 219.70818,210.52631 C 220.04549,210.38095 221.23294,210.65496 221.72849,210.77885 C 222.71254,211.02486 223.06494,211.05264 223.49625,211.91527 C 223.78765,212.49806 224.00133,212.48435 224.00133,213.4305 C 224.00133,214.40791 223.93461,214.50736 223.36998,215.07199 C 222.85302,215.58896 222.40436,215.96478 221.72849,215.82961 C 221.26204,215.73632 220.4519,215.21941 220.08699,214.94573 C 219.48131,214.49147 219.25842,214.57895 218.95057,213.8093 C 218.76695,213.35026 218.95057,212.41765 218.95057,211.91527 C 218.95057,211.25873 219.5277,209.62388 219.83445,211.15765"
           id="path4287" />
        <g
           style="fill:#000000;fill-opacity:1;stroke:none"
           transform="matrix(1.0981175,0,0,1.0981175,-16.166727,310.29378)"
           id="g4289">
          <path
             style="fill:#000000;fill-opacity:1;fill-rule:evenodd;stroke:none;stroke-width:1px;stroke-linecap:butt;stroke-linejoin:miter;stroke-opacity:1"
             d="M 274.8954,289.40043 C 274.92303,282.49937 274.47692,278.72647 262.75254,277.97185 C 258.31375,277.68616 250.64308,281.67445 250.25254,287.97185 C 249.70456,296.80799 254.07946,299.03987 256.68111,299.40043 C 259.8232,299.83589 261.31547,300.77935 265.96683,299.40043 C 269.80615,298.26225 274.85003,300.73132 274.8954,289.40043 z"
             id="path4291"
             sodipodi:nodetypes="csssss" />
          <path
             sodipodi:type="arc"
             style="opacity:1;fill:#000000;fill-opacity:1;fill-rule:evenodd;stroke:none;stroke-width:0.82599998;stroke-linecap:round;stroke-linejoin:round;stroke-miterlimit:4;stroke-dasharray:none;stroke-dashoffset:0;stroke-opacity:1"
             id="path4293"
             sodipodi:cx="256.07367"
             sodipodi:cy="285.78265"
             sodipodi:rx="2.5253813"
             sodipodi:ry="2.9041886"
             d="M 258.59905,285.78265 A 2.5253813,2.9041886 0 1 1 253.54829,285.78265 A 2.5253813,2.9041886 0 1 1 258.59905,285.78265 z"
             transform="matrix(1.4935312,0,0,1.2117662,-122.97105,-57.488634)" />
          <path
             style="opacity:1;fill:#000000;fill-opacity:1;fill-rule:evenodd;stroke:none;stroke-width:0.82599998;stroke-linecap:round;stroke-linejoin:round;stroke-miterlimit:4;stroke-dasharray:none;stroke-dashoffset:0;stroke-opacity:1"
             d="M 256.95338,287.69738 C 256.4972,288.3064 256.31312,289.06934 256.54085,289.80471 C 256.93748,291.0854 258.4001,291.77792 259.81893,291.33852 C 260.06198,291.26324 260.27359,291.1517 260.47887,291.02567 C 259.68039,290.75188 258.99199,290.11651 258.72001,289.23829 C 258.56421,288.73522 258.55685,288.23077 258.68219,287.75855 C 258.03017,287.89922 257.4196,287.88965 256.95338,287.69738 z"
             id="path4295" />
          <path
             sodipodi:type="arc"
             style="opacity:1;fill:#000000;fill-opacity:1;fill-rule:evenodd;stroke:none;stroke-width:0.82599998;stroke-linecap:round;stroke-linejoin:round;stroke-miterlimit:4;stroke-dasharray:none;stroke-dashoffset:0;stroke-opacity:1;filter:url(#filter3487)"
             id="path4297"
             sodipodi:cx="258.57144"
             sodipodi:cy="287.04968"
             sodipodi:rx="0.8035714"
             sodipodi:ry="0.4017857"
             d="M 259.37501,287.04968 A 0.8035714,0.4017857 0 1 1 257.76787,287.04968 A 0.8035714,0.4017857 0 1 1 259.37501,287.04968 z"
             transform="matrix(1.3888889,0,0,1.6666667,-100.51093,-191.72361)" />
        </g>
      </g>
      <g
         inkscape:export-ydpi="90"
         inkscape:export-xdpi="90"
         inkscape:export-filename="/home/lfcia/tothemario/Desktop/thearsmonsters images/monsters/Bu/Old.png"
         transform="translate(2.7664897,455.88172)"
         id="g3605">
        <path
           id="path3625"
           d="M 211.18877,198.16708 C 206.22657,200.15549 209.3175,206.34917 207.87754,210.5332 C 206.81748,216.9547 198.47158,214.33285 193.94004,214.8457 C 190.62119,213.56669 186.33187,215.4208 187.34629,219.4707 C 186.43016,222.91747 189.82319,225.55817 191.53379,226.93945 C 192.89481,230.65451 194.44811,237.93316 187.97383,237.25956 C 184.92238,238.74178 177.80841,234.17413 177.65879,239.56445 C 177.32778,242.66327 178.58958,246.80974 182.03379,244.56445 C 185.80026,242.99687 192.21683,246.31803 191.97064,250.88645 C 195.34283,251.64327 193.97368,258.65417 199.78379,259.18184 C 212.4943,261.86809 224.9142,261.1427 237.58614,258.90439 C 241.35524,255.98565 245.44924,252.60551 250.71368,250.21689 C 249.56879,244.82275 241.32317,245.7066 238.08741,241.06826 C 235.42717,238.46945 232.86477,236.22884 232.61739,232.50195 C 230.22892,222.81269 235.44943,210.02295 226.56504,202.9082 C 222.21529,199.40191 216.4548,199.09113 211.18877,198.16708 z M 216.53379,206.2832 C 220.59139,206.61517 217.09276,210.20337 215.81504,207.68945 C 215.72858,207.27483 215.8226,206.22292 216.53379,206.2832 z"
           style="opacity:1;fill:url(#linearGradient3428);fill-opacity:1;fill-rule:nonzero;stroke:none;stroke-width:0.82599998;stroke-linecap:round;stroke-linejoin:round;stroke-miterlimit:4;stroke-dasharray:none;stroke-dashoffset:0;stroke-opacity:1"
           sodipodi:nodetypes="ccccccccccccccccccc"
           inkscape:export-filename="/home/mads/tothemario/Desktop/thearsmonsters images/monsters/Bu/Old.png"
           inkscape:export-xdpi="90"
           inkscape:export-ydpi="90" />
        <path
           id="path3609"
           transform="translate(-2.7664897,-455.88172)"
           d="M 213.75,653.625 C 200.15939,660.2759 205.30968,663.79194 192.875,668.5625 C 193.68912,670.12439 190.00979,670.96143 189.78125,673.6875 C 189.43106,677.86463 189.73853,678.99185 191.90625,681.375 C 194.90297,684.66954 195.59263,688.27309 193.71875,691.0625 C 192.83772,692.37397 192.30877,692.69565 190.71875,692.8125 C 189.66155,692.8902 187.54396,692.61883 186,692.21875 C 182.73622,691.373 180.9364,691.79283 180.59375,693.46875 C 179.99019,696.4208 180.00811,697.44265 180.65625,699.0625 C 180.67867,699.11854 180.69777,699.16483 180.71875,699.21875 C 181.00741,698.87795 181.15992,698.47015 181.3125,697.90625 C 181.42756,697.48102 181.57354,697.30103 181.78125,697.1875 C 181.78167,697.17548 181.7808,697.16832 181.78125,697.15625 C 181.81829,696.16614 181.92552,694.98683 182.125,694.28125 C 182.49508,692.97223 183.26987,692.91627 187.78125,693.78125 C 190.56263,694.31454 192.84663,693.94071 194.71875,692.625 C 195.76307,691.89106 195.77796,691.62807 195.625,687.125 C 195.44041,681.69064 194.97467,682.17172 201.1875,681.25 C 205.50454,680.60952 209.47895,680.6088 212.46875,681.25 C 215.27615,681.8521 217.42342,681.30722 219.0625,679.5625 C 219.89582,678.67547 220.01276,678.29401 219.59375,677.875 C 219.17474,677.45599 218.80896,677.55442 217.96875,678.34375 C 216.42352,679.7954 214.28751,680.28439 211.5,679.84375 C 210.00013,679.60666 207.09409,679.72594 203.6875,680.125 C 194.1889,681.23772 191.51276,680.10808 191.53125,675.03125 C 191.54199,672.0835 191.95029,671.67807 194.625,672.125 C 198.48839,672.77052 206.92673,672.42823 208.78125,671.53125 C 211.58296,670.17613 212.58394,667.37595 212.75,660.5625 C 212.88356,655.08263 212.91872,654.86859 213.90625,654.71875 C 214.47227,654.63285 215.19039,654.78414 215.46875,655.0625 C 215.7471,655.34088 216.65898,655.5625 217.5,655.5625 C 219.54454,655.56247 225.04237,657.68954 226.5,659.03125 C 227.14296,659.62309 228.04507,660.21488 228.5,660.375 C 228.95492,660.53512 229.46075,661.04508 229.625,661.5 C 229.78925,661.9549 230.27761,662.85842 230.71875,663.5 C 232.6042,666.24216 233.0862,668.98563 233.21875,677.9375 C 233.29987,683.4158 233.56071,686.98003 233.90625,687.625 C 234.39207,688.5318 234.47743,689.89529 234.25,691.84375 L 235.25,693.5 C 235.29102,693.41735 235.33951,693.34375 235.375,693.34375 C 235.55401,693.34377 237.25394,694.88942 239.15625,696.75 C 242.0261,699.55693 243.0833,700.28446 245.40625,701 C 249.90027,702.38432 251.21086,703.05453 251.8125,704.375 C 252.30151,705.44826 252.27609,705.71396 251.53125,706.15625 C 251.05732,706.4377 249.05279,707.75761 247.09375,709.09375 C 241.15706,713.14284 240.3356,713.45548 234.46875,714.1875 C 222.1859,715.72004 216.14778,715.92097 211.5625,714.90625 C 210.40766,714.65065 207.89348,714.30252 205.96875,714.125 C 200.26136,713.59863 198.91146,712.65165 197.8125,708.34375 C 197.51607,707.18172 196.88846,706.03381 196.375,705.75 C 196.08917,705.59201 195.0825,705.12368 194.88393,704.96875 C 194.88422,705.58593 194.73657,706.92778 194.58933,707.47195 C 195.18009,707.74474 195.81549,708.17893 196.40625,709.875 C 197.34743,712.61277 199.2469,714.26911 202.625,715.3125 C 204.26597,715.81936 206.37716,716.21248 207.3125,716.21875 C 208.24783,716.22501 209.87093,716.44127 210.9375,716.6875 C 212.78113,717.1131 218.89127,717.62808 219.15625,717.375 C 219.44619,717.09806 225.73915,716.66378 230.71875,716.59375 C 237.39313,716.49987 241.35433,715.32395 244.5625,712.5 C 246.43685,710.85011 249.82924,708.91776 252.25,708.125 C 252.68414,707.98282 253.41965,707.28869 253.875,706.59375 L 254.71875,705.34375 L 252.46875,703.375 C 251.23213,702.28681 249.3752,701.03705 248.375,700.625 C 247.37481,700.21292 245.74196,699.54743 244.71875,699.125 C 243.69552,698.70258 241.71485,697.18815 240.34375,695.75 C 237.74886,693.02824 236.88507,691.00619 235.875,685.4375 C 235.22435,681.85038 235.26702,672.33912 235.9375,671.53125 C 236.33605,671.05101 236.32507,670.51139 235.9375,669.40625 C 235.65093,668.58907 235.29792,667.15271 235.125,666.1875 C 234.95208,665.22228 234.60643,664.29928 234.375,664.15625 C 234.14357,664.01325 233.67106,663.20192 233.3125,662.34375 C 232.21732,659.72261 229.32124,657.32928 224.875,655.40625 C 221.36499,653.88812 217.54297,653.84835 213.75,653.625 z M 218.90625,659.8125 C 217.40256,659.84943 216.25,660.96206 216.25,662.875 C 216.24999,664.66182 217.70844,666.01008 219.65625,666.03125 C 221.07535,666.04665 221.125,666.15428 221.125,667.9375 C 221.125,669.48518 221.30267,669.82019 222.125,669.9375 C 222.67045,670.0153 223.4765,669.711 223.90625,669.28125 C 224.96847,668.21903 224.66268,667.12697 223.09375,666.375 C 221.84606,665.77697 221.80424,665.68687 222.5,664.625 C 223.54781,663.02588 223.43143,662.33099 221.8125,660.96875 C 220.84314,660.15308 219.80847,659.79034 218.90625,659.8125 z M 219,661.15625 C 220.24562,661.15627 221.84375,662.17662 221.84375,662.96875 C 221.84375,663.14993 221.5245,663.74214 221.125,664.3125 C 220.22794,665.59323 218.9656,665.6426 217.875,664.4375 C 216.60361,663.03263 217.24747,661.15625 219,661.15625 z M 226.875,663.5 C 226.16667,663.50003 225.91206,664.88533 226.5,665.59375 C 227.26148,666.51124 228.32087,666.48667 228.6875,665.53125 C 228.96612,664.80515 227.80652,663.5 226.875,663.5 z M 203.03125,663.59375 C 204.54722,663.50707 206.76667,664.02613 211.4375,664.8125 C 210.75062,668.70347 209.91303,670.21472 208.0625,671.03125 C 207.54925,671.25771 204.28261,671.36227 200.78125,671.28125 C 195.73988,671.16457 194.15188,670.97564 193.1875,670.34375 C 199.912,665.53339 200.50463,663.73821 203.03125,663.59375 z M 222.5,668.125 C 222.54191,668.11316 222.60818,668.11689 222.65625,668.125 C 222.84852,668.15746 223.056,668.35549 223.15625,668.65625 C 223.2589,668.96419 223.08921,669.1339 222.78125,669.03125 C 222.47328,668.92857 222.262,668.68606 222.28125,668.5 C 222.3029,668.29079 222.37426,668.16053 222.5,668.125 z"
           style="fill:#191919;fill-opacity:1"
           sodipodi:nodetypes="ccssssssscsssssssssssssssssssssssssssccssssssssssscccssssssscccssssssssssccssssssssccsssccsscccsscccssssc"
           inkscape:export-filename="/home/mads/tothemario/Desktop/thearsmonsters images/monsters/Bu/Old.png"
           inkscape:export-xdpi="90"
           inkscape:export-ydpi="90" />
        <path
           id="path3640"
           d="M 183.19004,242.2832 C 175.7792,243.21664 175.78086,252.12816 175.62754,257.87695 C 175.93258,262.30353 182.67556,261.95504 182.44004,257.43945 C 183.30506,255.45655 182.34165,250.29405 184.03379,249.93945 C 184.84735,253.2704 189.96145,255.98568 191.75254,251.87695 C 193.78312,246.39294 188.16882,242.12151 183.19004,242.2832 z"
           style="opacity:1;fill:#75674d;fill-opacity:1;fill-rule:nonzero;stroke:none;stroke-width:0.82599998;stroke-linecap:round;stroke-linejoin:round;stroke-miterlimit:4;stroke-dasharray:none;stroke-dashoffset:0;stroke-opacity:1"
           inkscape:export-filename="/home/mads/tothemario/Desktop/thearsmonsters images/monsters/Bu/Old.png"
           inkscape:export-xdpi="90"
           inkscape:export-ydpi="90" />
        <path
           id="path3629"
           d="M 183.68561,242.94452 C 182.51332,242.89567 181.3733,243.11758 180.21686,243.60077 C 179.70985,243.81261 179.2654,244.00339 178.90436,244.13202 C 178.47819,244.74361 178.04698,245.32907 177.40436,245.97577 C 177.39854,245.98163 177.41023,246.00116 177.40436,246.00702 C 177.54758,247.18932 177.3078,248.7726 176.46686,252.94452 C 175.01789,260.13282 174.98973,259.49428 176.52936,260.13202 C 177.29062,260.44734 178.8408,260.61891 179.96686,260.53827 L 182.02936,260.41327 L 182.34186,258.06952 C 182.52763,256.78633 182.86142,254.48431 183.06061,252.94452 C 183.32147,250.92796 183.61898,250.13202 184.12311,250.13202 C 184.50806,250.13199 184.8873,250.60449 184.96686,251.16327 C 185.19014,252.7314 186.09274,253.15583 189.24811,253.28827 L 190.96686,253.35077 C 190.96686,252.8732 190.96686,252.39085 190.96686,251.91327 C 190.96686,251.26534 191.33193,250.70787 191.59186,250.22577 C 191.26129,249.80899 191.12792,249.32253 191.12311,248.60077 C 191.10949,246.55538 189.84296,244.94888 187.43561,243.91327 C 186.06791,243.32488 184.85791,242.99337 183.68561,242.94452 z M 183.59186,244.13202 C 184.08103,244.10922 184.62587,244.22745 185.46686,244.47577 C 186.55351,244.79659 188.07246,245.65583 188.84186,246.38202 C 190.06307,247.53462 190.21383,247.96948 190.09186,249.85077 C 189.95982,251.88755 189.87549,252.00702 188.59186,252.00702 C 187.45498,252.00701 187.14376,251.74904 186.68561,250.38202 C 185.85075,247.89098 182.76488,246.66146 181.81061,248.44452 C 181.55373,248.92453 181.20332,251.07528 181.02936,253.22577 C 180.56869,258.92061 179.98722,260.00678 178.06061,258.78827 C 177.57193,258.47919 177.41455,257.64964 177.49811,255.88202 C 177.67017,252.24263 179.14652,246.06777 179.93561,245.69452 C 180.30854,245.51811 181.2735,245.04021 182.06061,244.63202 C 182.6698,244.31612 183.1027,244.15482 183.59186,244.13202 z"
           style="fill:#181818;fill-opacity:1"
           inkscape:export-filename="/home/mads/tothemario/Desktop/thearsmonsters images/monsters/Bu/Old.png"
           inkscape:export-xdpi="90"
           inkscape:export-ydpi="90" />
        <path
           id="path3654"
           d="M 215.5413,204.59166 C 215.87861,204.4463 217.06606,204.72031 217.56161,204.8442 C 218.54566,205.09021 218.89806,205.11799 219.32937,205.98062 C 219.62077,206.56341 219.83445,206.5497 219.83445,207.49585 C 219.83445,208.47326 219.76773,208.57271 219.2031,209.13734 C 218.68614,209.65431 218.23748,210.03013 217.56161,209.89496 C 217.09516,209.80167 216.28502,209.28476 215.92011,209.01108 C 215.31443,208.55682 215.09154,208.6443 214.78369,207.87465 C 214.60007,207.41561 214.78369,206.483 214.78369,205.98062 C 214.78369,205.32408 215.36082,203.68923 215.66757,205.223"
           style="fill:#29241b;fill-opacity:1;fill-rule:evenodd;stroke:none;stroke-width:1px;stroke-linecap:butt;stroke-linejoin:miter;stroke-opacity:1;filter:url(#filter4260)"
           inkscape:export-filename="/home/mads/tothemario/Desktop/thearsmonsters images/monsters/Bu/Old.png"
           inkscape:export-xdpi="90"
           inkscape:export-ydpi="90" />
        <path
           id="path4264"
           d="M 215.30361,204.91581 C 215.13711,204.90862 214.98169,204.94198 214.89736,204.97831 L 215.02236,205.60331 C 214.71561,204.06954 214.14737,205.69678 214.14736,206.35331 C 214.14736,206.85569 213.96375,207.80051 214.14736,208.25956 C 214.45521,209.02921 214.69793,208.93031 215.30361,209.38456 C 215.66852,209.65824 216.46216,210.16625 216.92861,210.25956 C 217.59098,210.39203 218.04953,210.04178 218.55361,209.54081 C 218.43413,209.55175 218.31393,209.53662 218.17861,209.50956 C 217.71216,209.41627 216.91852,208.90824 216.55361,208.63456 C 215.94794,208.18033 215.73646,208.27921 215.42861,207.50956 C 215.24499,207.05053 215.42861,206.10569 215.42861,205.60331 C 215.42861,205.43126 215.45834,205.17885 215.52236,204.94706 C 215.45054,204.9396 215.36811,204.91859 215.30361,204.91581 z"
           style="opacity:0.80147059;fill:#463515;fill-opacity:1;fill-rule:evenodd;stroke:none;stroke-width:1px;stroke-linecap:butt;stroke-linejoin:miter;stroke-opacity:1;filter:url(#filter4260)"
           inkscape:export-filename="/home/mads/tothemario/Desktop/thearsmonsters images/monsters/Bu/Old.png"
           inkscape:export-xdpi="90"
           inkscape:export-ydpi="90" />
        <path
           transform="matrix(0.7749141,0,0,0.506479,50.144249,103.14025)"
           style="opacity:0.80147059;fill:#463515;fill-opacity:1;fill-rule:evenodd;stroke:none;stroke-width:1px;stroke-linecap:butt;stroke-linejoin:miter;stroke-opacity:1;filter:url(#filter4260)"
           d="M 224.01618,206.43104 C 223.84968,206.42385 223.69426,206.45721 223.60993,206.49354 L 223.73493,207.11854 C 223.42818,205.58477 222.85994,207.21201 222.85993,207.86854 C 222.85993,208.37092 222.67632,209.31574 222.85993,209.77479 C 223.16778,210.54444 223.4105,210.44554 224.01618,210.89979 C 224.38109,211.17347 225.17473,211.68148 225.64118,211.77479 C 226.30355,211.90726 226.7621,211.55701 227.26618,211.05604 C 227.1467,211.06698 227.0265,211.05185 226.89118,211.02479 C 226.42473,210.9315 225.63109,210.42347 225.26618,210.14979 C 224.66051,209.69556 224.44903,209.79444 224.14118,209.02479 C 223.95756,208.56576 224.14118,207.62092 224.14118,207.11854 C 224.14118,206.94649 224.17091,206.69408 224.23493,206.46229 C 224.16311,206.45483 224.08068,206.43382 224.01618,206.43104 z"
           id="path4269"
           inkscape:export-filename="/home/mads/tothemario/Desktop/thearsmonsters images/monsters/Bu/Old.png"
           inkscape:export-xdpi="90"
           inkscape:export-ydpi="90" />
        <path
           transform="matrix(0.3889246,0,0,0.3889246,133.87171,129.63228)"
           style="fill:#3f321b;fill-opacity:1;fill-rule:evenodd;stroke:none;stroke-width:1px;stroke-linecap:butt;stroke-linejoin:miter;stroke-opacity:1;filter:url(#filter4260)"
           d="M 219.70818,210.52631 C 220.04549,210.38095 221.23294,210.65496 221.72849,210.77885 C 222.71254,211.02486 223.06494,211.05264 223.49625,211.91527 C 223.78765,212.49806 224.00133,212.48435 224.00133,213.4305 C 224.00133,214.40791 223.93461,214.50736 223.36998,215.07199 C 222.85302,215.58896 222.40436,215.96478 221.72849,215.82961 C 221.26204,215.73632 220.4519,215.21941 220.08699,214.94573 C 219.48131,214.49147 219.25842,214.57895 218.95057,213.8093 C 218.76695,213.35026 218.95057,212.41765 218.95057,211.91527 C 218.95057,211.25873 219.5277,209.62388 219.83445,211.15765"
           id="path4271"
           inkscape:export-filename="/home/mads/tothemario/Desktop/thearsmonsters images/monsters/Bu/Old.png"
           inkscape:export-xdpi="90"
           inkscape:export-ydpi="90" />
        <g
           id="g3384"
           inkscape:export-filename="/home/mads/tothemario/Desktop/thearsmonsters images/monsters/Bu/Old.png"
           inkscape:export-xdpi="90"
           inkscape:export-ydpi="90">
          <path
             style="opacity:0.37867647;fill:#191919;fill-opacity:1;filter:url(#filter3380)"
             d="M 231.91459,236.82529 C 231.77463,237.74488 231.59667,238.75602 231.32084,239.91904 C 229.92565,245.80167 227.94949,248.21792 226.60209,245.70029 C 225.74478,244.09841 224.94322,244.215 223.07084,246.20029 C 221.22417,248.15832 220.48765,248.08934 219.75834,245.88779 C 219.27112,244.41706 219.09746,244.29404 217.35209,244.29404 C 214.6447,244.29406 214.23738,243.71427 215.13334,241.07529 C 216.03767,238.41166 216.05552,237.51279 215.22709,237.51279 C 214.44504,237.51281 213.07084,241.01441 213.07084,242.98154 C 213.07083,244.764 213.89411,245.47275 216.28959,245.79404 C 217.7799,245.99394 218.24621,246.3023 218.69584,247.38779 C 219.49173,249.30927 221.05824,249.56271 223.00834,248.07529 C 224.9166,246.61977 225.25194,246.58286 226.00834,247.79404 C 226.73156,248.95207 228.53581,248.99695 229.53959,247.88779 C 230.82037,246.47257 232.26557,242.69904 232.53959,240.04404 C 232.63259,239.14287 232.77436,238.39905 232.91459,237.95029 L 232.57084,236.88779 L 231.91459,236.82529 z"
             id="path2437" />
          <path
             style="fill:url(#linearGradient3430);fill-opacity:1;fill-rule:evenodd;stroke:none;stroke-width:1px;stroke-linecap:butt;stroke-linejoin:miter;stroke-opacity:1;filter:url(#filter3312)"
             d="M 215.00579,236.60782 C 214.49473,238.4675 213.74538,239.61232 213.6665,242.76853 C 215.26754,243.66674 216.85285,244.50204 218.22007,244.46496 C 219.08982,245.94325 219.61908,246.40008 220.27364,247.23282 C 221.97623,246.56061 223.54116,245.61309 225.00579,244.46496 C 226.20088,245.90969 227.14399,246.47249 227.86293,246.25068 C 230.67525,244.77164 231.01388,239.89126 232.05936,235.98282 L 215.00579,236.60782 z"
             id="path3241"
             sodipodi:nodetypes="cccccccc" />
          <path
             id="path3243"
             d="M 231.72518,234.23679 C 231.39582,235.47205 231.21786,237.74588 230.94203,238.9089 C 229.54684,244.79153 227.57068,247.20778 226.22328,244.69015 C 225.36597,243.08827 224.56441,243.20486 222.69203,245.19015 C 220.84536,247.14818 220.10884,247.0792 219.37953,244.87765 C 218.89231,243.40692 218.71865,243.2839 216.97328,243.2839 C 214.26589,243.28392 213.85857,242.70413 214.75453,240.06515 C 215.65886,237.40152 215.67671,236.50265 214.84828,236.50265 C 214.06623,236.50267 212.69203,240.00427 212.69203,241.9714 C 212.69202,243.75386 213.5153,244.46261 215.91078,244.7839 C 217.40109,244.9838 217.8674,245.29216 218.31703,246.37765 C 219.11292,248.29913 220.67943,248.55257 222.62953,247.06515 C 224.53779,245.60963 224.87313,245.57272 225.62953,246.7839 C 226.35275,247.94193 228.157,247.98681 229.16078,246.87765 C 230.44156,245.46243 231.88676,241.6889 232.16078,239.0339 C 232.25378,238.13273 232.64809,237.57831 233.60907,237.69776 L 233.32845,234.93063 L 231.72518,234.23679 z"
             style="opacity:1;fill:#191919;fill-opacity:1"
             sodipodi:nodetypes="cssssssssssssssccc" />
        </g>
      </g>
      <g
         inkscape:export-ydpi="90"
         inkscape:export-xdpi="90"
         inkscape:export-filename="/home/mads/tothemario/Desktop/thearsmonsters images/monsters/Bu/Old.png"
         style="opacity:0.44485294;fill:#000000;fill-opacity:1;filter:url(#filter4419)"
         id="g4405"
         transform="translate(-58.846049,374.13524)">
        <path
           sodipodi:nodetypes="csssss"
           id="path4407"
           d="M 274.8954,289.40043 C 274.92303,282.49937 274.47692,278.72647 262.75254,277.97185 C 258.31375,277.68616 250.64308,281.67445 250.25254,287.97185 C 249.70456,296.80799 254.07946,299.03987 256.68111,299.40043 C 259.8232,299.83589 261.31547,300.77935 265.96683,299.40043 C 269.80615,298.26225 274.85003,300.73132 274.8954,289.40043 z"
           style="fill:#000000;fill-opacity:1;fill-rule:evenodd;stroke:#000000;stroke-width:1px;stroke-linecap:butt;stroke-linejoin:miter;stroke-opacity:1" />
        <path
           transform="matrix(1.4935312,0,0,1.2117662,-122.97105,-57.488634)"
           d="M 258.59905,285.78265 A 2.5253813,2.9041886 0 1 1 253.54829,285.78265 A 2.5253813,2.9041886 0 1 1 258.59905,285.78265 z"
           sodipodi:ry="2.9041886"
           sodipodi:rx="2.5253813"
           sodipodi:cy="285.78265"
           sodipodi:cx="256.07367"
           id="path4409"
           style="opacity:1;fill:#000000;fill-opacity:1;fill-rule:evenodd;stroke:#000000;stroke-width:0.82599998;stroke-linecap:round;stroke-linejoin:round;stroke-miterlimit:4;stroke-dasharray:none;stroke-dashoffset:0;stroke-opacity:1"
           sodipodi:type="arc" />
        <path
           id="path4411"
           d="M 256.95338,287.69738 C 256.4972,288.3064 256.31312,289.06934 256.54085,289.80471 C 256.93748,291.0854 258.4001,291.77792 259.81893,291.33852 C 260.06198,291.26324 260.27359,291.1517 260.47887,291.02567 C 259.68039,290.75188 258.99199,290.11651 258.72001,289.23829 C 258.56421,288.73522 258.55685,288.23077 258.68219,287.75855 C 258.03017,287.89922 257.4196,287.88965 256.95338,287.69738 z"
           style="opacity:1;fill:#000000;fill-opacity:1;fill-rule:evenodd;stroke:none;stroke-width:0.82599998;stroke-linecap:round;stroke-linejoin:round;stroke-miterlimit:4;stroke-dasharray:none;stroke-dashoffset:0;stroke-opacity:1" />
        <path
           transform="matrix(1.3888889,0,0,1.6666667,-100.51093,-191.72361)"
           d="M 259.37501,287.04968 A 0.8035714,0.4017857 0 1 1 257.76787,287.04968 A 0.8035714,0.4017857 0 1 1 259.37501,287.04968 z"
           sodipodi:ry="0.4017857"
           sodipodi:rx="0.8035714"
           sodipodi:cy="287.04968"
           sodipodi:cx="258.57144"
           id="path4413"
           style="opacity:1;fill:#000000;fill-opacity:1;fill-rule:evenodd;stroke:none;stroke-width:0.82599998;stroke-linecap:round;stroke-linejoin:round;stroke-miterlimit:4;stroke-dasharray:none;stroke-dashoffset:0;stroke-opacity:1;filter:url(#filter3487)"
           sodipodi:type="arc" />
      </g>
      <g
         inkscape:export-ydpi="90"
         inkscape:export-xdpi="90"
         inkscape:export-filename="/home/mads/tothemario/Desktop/thearsmonsters images/monsters/Bu/Old.png"
         transform="matrix(1.0981175,0,0,1.0981175,-86.877404,343.62882)"
         id="g3491">
        <path
           style="fill:url(#radialGradient3432);fill-opacity:1;fill-rule:evenodd;stroke:#000000;stroke-width:1px;stroke-linecap:butt;stroke-linejoin:miter;stroke-opacity:1"
           d="M 274.8954,289.40043 C 274.92303,282.49937 274.47692,278.72647 262.75254,277.97185 C 258.31375,277.68616 250.64308,281.67445 250.25254,287.97185 C 249.70456,296.80799 254.07946,299.03987 256.68111,299.40043 C 259.8232,299.83589 261.31547,300.77935 265.96683,299.40043 C 269.80615,298.26225 274.85003,300.73132 274.8954,289.40043 z"
           id="path2555"
           sodipodi:nodetypes="csssss" />
        <path
           sodipodi:type="arc"
           style="opacity:1;fill:#1c1c1c;fill-opacity:1;fill-rule:evenodd;stroke:none;stroke-width:0.82599998;stroke-linecap:round;stroke-linejoin:round;stroke-miterlimit:4;stroke-dasharray:none;stroke-dashoffset:0;stroke-opacity:1"
           id="path3335"
           sodipodi:cx="256.07367"
           sodipodi:cy="285.78265"
           sodipodi:rx="2.5253813"
           sodipodi:ry="2.9041886"
           d="M 258.59905,285.78265 A 2.5253813,2.9041886 0 1 1 253.54829,285.78265 A 2.5253813,2.9041886 0 1 1 258.59905,285.78265 z"
           transform="matrix(1.6301286,0,0,1.3008515,-157.66259,-82.688936)" />
        <path
           style="opacity:1;fill:url(#linearGradient3434);fill-opacity:1;fill-rule:evenodd;stroke:none;stroke-width:0.82599998;stroke-linecap:round;stroke-linejoin:round;stroke-miterlimit:4;stroke-dasharray:none;stroke-dashoffset:0;stroke-opacity:1;filter:url(#filter3492)"
           d="M 256.72341,287.81237 C 256.26723,288.42139 256.08315,289.18433 256.31088,289.9197 C 256.70751,291.20039 258.17013,291.89291 259.58896,291.45351 C 259.83201,291.37823 260.04362,291.26669 260.2489,291.14066 C 259.45042,290.86687 258.76202,290.2315 258.49004,289.35328 C 258.33424,288.85021 258.1544,288.57573 258.27974,288.10351 C 257.62772,288.24418 257.18963,288.00464 256.72341,287.81237 z"
           id="path3337"
           sodipodi:nodetypes="csscscc" />
        <path
           sodipodi:type="arc"
           style="opacity:0.81617647;fill:#ffffff;fill-opacity:1;fill-rule:evenodd;stroke:none;stroke-width:0.82599998;stroke-linecap:round;stroke-linejoin:round;stroke-miterlimit:4;stroke-dasharray:none;stroke-dashoffset:0;stroke-opacity:1;filter:url(#filter3548)"
           id="path3353"
           sodipodi:cx="258.57144"
           sodipodi:cy="287.04968"
           sodipodi:rx="0.8035714"
           sodipodi:ry="0.4017857"
           d="M 259.37501,287.04968 A 0.8035714,0.4017857 0 1 1 257.76787,287.04968 A 0.8035714,0.4017857 0 1 1 259.37501,287.04968 z"
           transform="matrix(1.3888889,0,0,1.6666667,-100.91339,-191.32116)" />
      </g>
    </g>
  </g>
</svg>
