<?xml version="1.0" encoding="UTF-8" standalone="no"?>
<!-- Created with Inkscape (http://www.inkscape.org/) -->
<svg
   xmlns:dc="http://purl.org/dc/elements/1.1/"
   xmlns:cc="http://creativecommons.org/ns#"
   xmlns:rdf="http://www.w3.org/1999/02/22-rdf-syntax-ns#"
   xmlns:svg="http://www.w3.org/2000/svg"
   xmlns="http://www.w3.org/2000/svg"
   xmlns:xlink="http://www.w3.org/1999/xlink"
   xmlns:sodipodi="http://sodipodi.sourceforge.net/DTD/sodipodi-0.dtd"
   xmlns:inkscape="http://www.inkscape.org/namespaces/inkscape"
   width="210mm"
   height="297mm"
   id="svg2"
   sodipodi:version="0.32"
   inkscape:version="0.46"
   sodipodi:docname="cocoon.svg"
   inkscape:output_extension="org.inkscape.output.svg.inkscape">
  <defs
     id="defs4">
    <linearGradient
       id="linearGradient4027">
      <stop
         style="stop-color:#a40d0d;stop-opacity:0;"
         offset="0"
         id="stop4029" />
      <stop
         style="stop-color:#000000;stop-opacity:1;"
         offset="1"
         id="stop4031" />
    </linearGradient>
    <linearGradient
       inkscape:collect="always"
       id="linearGradient3417">
      <stop
         style="stop-color:#ffffff;stop-opacity:0.72864324"
         offset="0"
         id="stop3419" />
      <stop
         style="stop-color:#ffffff;stop-opacity:0"
         offset="1"
         id="stop3421" />
    </linearGradient>
    <linearGradient
       inkscape:collect="always"
       id="linearGradient3399">
      <stop
         style="stop-color:#ffffff;stop-opacity:1"
         offset="0"
         id="stop3401" />
      <stop
         style="stop-color:#727272;stop-opacity:0;"
         offset="1"
         id="stop3403" />
    </linearGradient>
    <linearGradient
       id="linearGradient3389">
      <stop
         style="stop-color:#669966;stop-opacity:1;"
         offset="0"
         id="stop3391" />
      <stop
         style="stop-color:#003300;stop-opacity:1;"
         offset="1"
         id="stop3393" />
    </linearGradient>
    <inkscape:perspective
       sodipodi:type="inkscape:persp3d"
       inkscape:vp_x="0 : 526.18109 : 1"
       inkscape:vp_y="0 : 1000 : 0"
       inkscape:vp_z="744.09448 : 526.18109 : 1"
       inkscape:persp3d-origin="372.04724 : 350.78739 : 1"
       id="perspective10" />
    <inkscape:perspective
       id="perspective2589"
       inkscape:persp3d-origin="372.04724 : 350.78739 : 1"
       inkscape:vp_z="744.09448 : 526.18109 : 1"
       inkscape:vp_y="0 : 1000 : 0"
       inkscape:vp_x="0 : 526.18109 : 1"
       sodipodi:type="inkscape:persp3d" />
    <linearGradient
       inkscape:collect="always"
       xlink:href="#linearGradient3389"
       id="linearGradient3395"
       x1="496.10257"
       y1="284.40939"
       x2="496.10257"
       y2="346.45654"
       gradientUnits="userSpaceOnUse" />
    <linearGradient
       inkscape:collect="always"
       xlink:href="#linearGradient3399"
       id="linearGradient3405"
       x1="367.31671"
       y1="295.36804"
       x2="367.31671"
       y2="378.71671"
       gradientUnits="userSpaceOnUse" />
    <linearGradient
       inkscape:collect="always"
       xlink:href="#linearGradient3417"
       id="linearGradient3423"
       x1="385.8157"
       y1="669.84631"
       x2="375.2886"
       y2="364.86667"
       gradientUnits="userSpaceOnUse" />
    <linearGradient
       inkscape:collect="always"
       xlink:href="#linearGradient3399"
       id="linearGradient3487"
       gradientUnits="userSpaceOnUse"
       x1="367.31671"
       y1="295.36804"
       x2="367.31671"
       y2="378.71671" />
    <linearGradient
       inkscape:collect="always"
       xlink:href="#linearGradient3399"
       id="linearGradient3491"
       gradientUnits="userSpaceOnUse"
       x1="367.31671"
       y1="295.36804"
       x2="367.31671"
       y2="378.71671" />
    <filter
       inkscape:collect="always"
       id="filter3710"
       x="-0.088176145"
       width="1.1763523"
       y="-0.11660814"
       height="1.2332163">
      <feGaussianBlur
         inkscape:collect="always"
         stdDeviation="1.5929588"
         id="feGaussianBlur3712" />
    </filter>
    <linearGradient
       inkscape:collect="always"
       xlink:href="#linearGradient3389"
       id="linearGradient3821"
       gradientUnits="userSpaceOnUse"
       gradientTransform="translate(0.4611865,1.7677669)"
       x1="496.10257"
       y1="284.40939"
       x2="496.10257"
       y2="346.45654" />
    <linearGradient
       inkscape:collect="always"
       xlink:href="#linearGradient3389"
       id="linearGradient3879"
       gradientUnits="userSpaceOnUse"
       gradientTransform="translate(0.4611865,1.7677669)"
       x1="496.10257"
       y1="284.40939"
       x2="496.10257"
       y2="346.45654" />
    <filter
       inkscape:collect="always"
       id="filter3886">
      <feGaussianBlur
         inkscape:collect="always"
         stdDeviation="0.91613236"
         id="feGaussianBlur3888" />
    </filter>
    <filter
       inkscape:collect="always"
       id="filter3962"
       x="-0.43724275"
       width="1.8744855"
       y="-0.4575796"
       height="1.9151592">
      <feGaussianBlur
         inkscape:collect="always"
         stdDeviation="10.351919"
         id="feGaussianBlur3964" />
    </filter>
    <radialGradient
       inkscape:collect="always"
       xlink:href="#linearGradient4027"
       id="radialGradient4033"
       cx="365.89606"
       cy="371.21637"
       fx="365.89606"
       fy="371.21637"
       r="30.403191"
       gradientTransform="matrix(2.7558557,7.6109679e-3,-3.6620179e-3,1.3259816,-641.10128,-118.9926)"
       gradientUnits="userSpaceOnUse" />
    <filter
       inkscape:collect="always"
       id="filter4047">
      <feGaussianBlur
         inkscape:collect="always"
         stdDeviation="0.62716952"
         id="feGaussianBlur4049" />
    </filter>
    <filter
       inkscape:collect="always"
       id="filter4077">
      <feGaussianBlur
         inkscape:collect="always"
         stdDeviation="1.9940625"
         id="feGaussianBlur4079" />
    </filter>
  </defs>
  <sodipodi:namedview
     id="base"
     pagecolor="#ffffff"
     bordercolor="#666666"
     borderopacity="1.0"
     inkscape:pageopacity="0.0"
     inkscape:pageshadow="2"
     inkscape:zoom="0.98994949"
     inkscape:cx="298.51164"
     inkscape:cy="699.49741"
     inkscape:document-units="px"
     inkscape:current-layer="layer2"
     showgrid="false"
     inkscape:window-width="1280"
     inkscape:window-height="744"
     inkscape:window-x="-4"
     inkscape:window-y="-4" />
  <metadata
     id="metadata7">
    <rdf:RDF>
      <cc:Work
         rdf:about="">
        <dc:format>image/svg+xml</dc:format>
        <dc:type
           rdf:resource="http://purl.org/dc/dcmitype/StillImage" />
      </cc:Work>
    </rdf:RDF>
  </metadata>
  <g
     inkscape:label="plantilla"
     inkscape:groupmode="layer"
     id="layer1"
     style="display:none"
     sodipodi:insensitive="true">
    <image
       y="162.36218"
       x="186.85715"
       id="image2591"
       height="380"
       width="392"
       sodipodi:absref="E:\IMAGENES\Dibujos\thearsmonsters artwork\xcf_files\monsters\templates\monster_place.png"
       xlink:href="templates/monster_place.png" />
  </g>
  <g
     inkscape:groupmode="layer"
     id="layer2"
     inkscape:label="capuyo"
     style="display:inline">
    <g
       id="g2440"
       inkscape:export-filename="/home/lfcia/tothemario/tothemario/j2ee-thearsmonsters/thearsmonsters/src/main/webapp/images/Cocoon.png"
       inkscape:export-xdpi="90"
       inkscape:export-ydpi="90">
      <path
         id="path4051"
         d="M 227.45248,312.4375 C 227.62947,314.07401 228.34106,316.12758 230.32748,318.09375 C 232.2113,319.95836 237.63439,323.3892 239.88998,324.78125 C 243.30948,326.89158 243.43932,329.76078 247.35873,328.875 C 249.57275,328.37463 253.40427,325.49106 254.13998,323.34375 C 255.04289,320.70843 261.53904,324.08913 264.04623,322.875 C 278.21805,316.01215 307.57848,340.78253 309.67123,341.59375 C 319.34456,345.34348 323.18981,357.57483 322.63998,360.90625 C 322.09015,364.23766 322.17517,370.1898 323.45248,375.21875 C 323.33788,377.98255 322.09369,379.67116 318.73373,385.03125 C 305.77072,400.66958 291.71681,414.86758 276.73373,427.8125 L 268.10873,432.625 L 288.13998,432.625 C 294.48775,419.74457 313.91708,405.7388 326.23373,392.3125 C 332.66006,385.30722 335.37854,407.80144 339.54623,413.1875 C 344.41425,419.47859 349.86017,417.10295 357.57748,419.03125 C 366.53725,421.27 373.91989,420.30908 384.20248,415.78125 C 391.80016,412.4357 404.3123,391.743 404.48373,387.46875 C 408.0595,385.8487 418.42142,383.59734 431.23373,389.28125 C 432.90032,390.23359 442.717,420.73757 441.38998,432.03125 C 441.36697,432.22706 441.34029,432.42329 441.29623,432.625 L 454.26498,432.625 L 454.07748,432.3125 C 449.23202,424.11473 444.24638,408.88568 439.79623,388.75 C 456.57921,382.86703 472.28815,386.30513 484.35873,412.0625 C 484.35873,412.0625 486.72361,426.74041 485.07748,431.0625 C 484.88615,431.56485 484.58108,432.08704 484.20248,432.625 L 505.88998,432.625 C 505.89148,432.09773 505.93518,431.57571 506.07748,431.09375 C 498.51223,430.09702 490.01296,400.11133 473.88998,380.3125 C 479.21059,379.19343 503.58288,350.44932 505.70248,352.53125 L 505.35873,344.90625 C 503.33308,347.78926 478.34964,375.30114 468.07748,377.46875 C 450.67194,379.39446 410.93094,379.11114 404.79623,375.625 C 403.70312,370.32669 399.69341,361.78015 397.82748,357.125 C 397.82748,357.125 442.0101,343.22622 459.20248,336.21875 C 467.91113,332.66918 481.15757,324.34759 490.42123,319 C 493.45835,317.24677 497.76202,314.55127 501.10873,312.4375 L 457.63998,312.4375 C 458.32954,315.09195 458.98178,319.43048 456.73373,321.84375 C 443.65659,335.882 392.51498,349.56251 392.51498,349.5625 C 391.32381,347.06826 385.81014,344.45532 381.98373,343.9375 C 380.19176,336.50805 378.35446,323.86286 378.07748,312.4375 L 365.20248,312.4375 C 368.44087,323.53036 369.36228,335.94797 370.42123,342.8125 C 362.61664,342.23018 350.18061,343.17569 345.98373,344.53125 C 321.61067,338.7859 318.76986,332.24728 313.42123,327.34375 C 309.82347,322.81534 310.20612,317.20665 307.38998,312.4375 L 227.45248,312.4375 z"
         style="opacity:0.35744683;fill:#000000;fill-opacity:1;fill-rule:evenodd;stroke:none;stroke-width:1px;stroke-linecap:butt;stroke-linejoin:miter;stroke-opacity:1;filter:url(#filter4077)" />
      <path
         sodipodi:nodetypes="ccccccccsccsscccccccccsccsccsccsssscccccczsssssscc"
         id="path2596"
         d="M 306.21819,307.8202 C 308.23389,313.02587 310.15577,319.4055 312.90456,324.51997 C 318.25319,329.42349 321.09715,335.98062 345.47021,341.72597 C 349.66708,340.37042 362.12362,339.42036 369.92821,340.00268 C 367.95964,327.24174 366.74607,317.50679 364.81309,309.04701 C 370.13408,306.63086 372.57074,306.32877 377.21837,309.29955 C 377.61707,316.50546 378.99034,328.2418 381.46446,341.13538 C 385.29087,341.6532 390.82193,344.23865 392.0131,346.73289 C 392.0131,346.73289 443.14965,333.07411 456.22679,319.03586 C 459.59886,315.41596 457.69126,308.87741 457.69126,308.87741 C 457.09342,305.29625 502.81754,303.74721 501.16861,309.29955 C 501.16861,309.29955 494.71348,313.41205 489.92078,316.17871 C 480.65711,321.5263 467.41006,329.85122 458.70141,333.40079 C 441.50903,340.40826 397.32977,354.29583 397.32977,354.29583 C 399.1957,358.95099 403.19293,367.51044 404.28604,372.80875 C 410.42075,376.29489 450.16189,376.57432 467.56743,374.64861 C 477.83959,372.48101 502.81612,344.96033 504.84177,342.07732 L 505.20022,349.72284 C 503.08062,347.64091 478.69642,376.37926 473.37581,377.49833 C 489.49879,397.29715 498.02277,427.28894 505.58802,428.28567 C 504.72271,431.21648 507.30204,435.20542 502.8101,437.53178 L 474.87373,437.65805 C 474.87373,437.65805 483.07604,432.1758 484.57414,428.24235 C 486.22027,423.92025 483.86729,409.24506 483.86729,409.24506 C 471.79671,383.48769 456.06869,380.05064 439.28571,385.93361 C 443.73585,406.0693 448.72597,421.30727 453.57143,429.50504 L 458.48849,437.82394 L 436.17603,437.69766 C 436.17603,437.69766 440.45955,432.85953 440.8876,429.21661 C 442.21462,417.92293 432.39575,387.43435 430.72916,386.48201 C 417.91684,380.79811 407.56562,383.04343 403.98985,384.66348 C 403.81842,388.93773 391.28423,409.63682 383.68655,412.98237 C 373.40396,417.51019 366.0234,418.45336 357.06363,416.21461 C 349.34631,414.2863 343.91607,416.6763 339.04805,410.38521 C 334.88036,404.99916 332.14062,382.49976 325.71429,389.50504 C 313.0416,403.31944 292.83441,417.74992 287.09953,430.93361 L 292.85714,437.32257 L 253.78063,437.53178 L 276.22679,425.01012 C 291.20987,412.06521 305.25563,397.87053 318.21864,382.2322 C 321.57859,376.87212 322.8292,375.16931 322.9438,372.40551 C 321.66648,367.37657 321.59303,361.40788 322.14286,358.07647 C 322.69269,354.74506 318.8365,342.53305 309.16317,338.78332 C 307.07042,337.9721 277.70119,313.18316 263.52937,320.04601 C 261.02217,321.26015 254.54741,317.9009 253.6445,320.53622 C 252.90879,322.68353 249.07587,325.56939 246.86185,326.06976 C 242.94244,326.95554 242.81417,324.08255 239.39467,321.97222 C 237.13907,320.58018 231.69691,317.14829 229.81309,315.28368 C 225.5904,311.10405 227.71728,306.22204 227.71728,306.22204 C 223.64462,296.61242 303.42817,297.11739 306.21819,307.8202 z"
         style="fill:url(#linearGradient3395);fill-opacity:1;fill-rule:evenodd;stroke:none;stroke-width:1px;stroke-linecap:butt;stroke-linejoin:miter;stroke-opacity:1" />
      <path
         sodipodi:type="arc"
         style="opacity:0.20425529;fill:#ffffff;fill-opacity:1;fill-rule:nonzero;stroke:none;stroke-width:1.29999995;stroke-linecap:round;stroke-linejoin:round;stroke-miterlimit:4;stroke-dasharray:none;stroke-dashoffset:0;stroke-opacity:0.60804019;filter:url(#filter3962)"
         id="path3493"
         sodipodi:cx="367.31671"
         sodipodi:cy="378.71671"
         sodipodi:rx="28.41054"
         sodipodi:ry="27.14785"
         d="M 395.72725,378.71671 A 28.41054,27.14785 0 1 1 338.90617,378.71671 A 28.41054,27.14785 0 1 1 395.72725,378.71671 z"
         transform="matrix(0.5226213,0,0,0.5008027,172.91431,189.12173)" />
      <path
         transform="matrix(1.1066667,0,0,1.0604651,-41.95837,-23.025418)"
         d="M 395.72725,378.71671 A 28.41054,27.14785 0 1 1 338.90617,378.71671 A 28.41054,27.14785 0 1 1 395.72725,378.71671 z"
         sodipodi:ry="27.14785"
         sodipodi:rx="28.41054"
         sodipodi:cy="378.71671"
         sodipodi:cx="367.31671"
         id="path3397"
         style="opacity:0.8;fill:url(#linearGradient3405);fill-opacity:1;fill-rule:nonzero;stroke:none;stroke-width:1.29999995;stroke-linecap:round;stroke-linejoin:round;stroke-miterlimit:4;stroke-dasharray:none;stroke-dashoffset:0;stroke-opacity:0.60804019"
         sodipodi:type="arc" />
      <path
         transform="matrix(1.1066667,0,0,1.0604651,-41.95837,-23.025418)"
         d="M 395.72725,378.71671 A 28.41054,27.14785 0 1 1 338.90617,378.71671 A 28.41054,27.14785 0 1 1 395.72725,378.71671 z"
         sodipodi:ry="27.14785"
         sodipodi:rx="28.41054"
         sodipodi:cy="378.71671"
         sodipodi:cx="367.31671"
         id="path3425"
         style="opacity:0.8;fill:#ffffff;fill-opacity:0;fill-rule:nonzero;stroke:url(#linearGradient3423);stroke-width:1.29999995;stroke-linecap:round;stroke-linejoin:round;stroke-miterlimit:4;stroke-dasharray:none;stroke-dashoffset:0;stroke-opacity:1"
         sodipodi:type="arc" />
      <path
         sodipodi:type="arc"
         style="opacity:0.8;fill:url(#linearGradient3487);fill-opacity:1;fill-rule:nonzero;stroke:none;stroke-width:1.29999995;stroke-linecap:round;stroke-linejoin:round;stroke-miterlimit:4;stroke-dasharray:none;stroke-dashoffset:0;stroke-opacity:0.60804019"
         id="path3485"
         sodipodi:cx="367.31671"
         sodipodi:cy="378.71671"
         sodipodi:rx="28.41054"
         sodipodi:ry="27.14785"
         d="M 395.72725,378.71671 A 28.41054,27.14785 0 1 1 338.90617,378.71671 A 28.41054,27.14785 0 1 1 395.72725,378.71671 z"
         transform="matrix(0.8380341,0,0,0.6217234,57.136532,134.07965)" />
      <path
         transform="matrix(0.7447008,0,0,-0.4108348,91.040618,548.61271)"
         d="M 395.72725,378.71671 A 28.41054,27.14785 0 1 1 338.90617,378.71671 A 28.41054,27.14785 0 1 1 395.72725,378.71671 z"
         sodipodi:ry="27.14785"
         sodipodi:rx="28.41054"
         sodipodi:cy="378.71671"
         sodipodi:cx="367.31671"
         id="path3489"
         style="opacity:0.38297873;fill:url(#linearGradient3491);fill-opacity:1;fill-rule:nonzero;stroke:none;stroke-width:1.29999995;stroke-linecap:round;stroke-linejoin:round;stroke-miterlimit:4;stroke-dasharray:none;stroke-dashoffset:0;stroke-opacity:0.60804019"
         sodipodi:type="arc" />
      <path
         transform="matrix(0.9066454,0,0,0.9224284,35.061095,30.278162)"
         sodipodi:nodetypes="cccccccscccccccccc"
         id="path3557"
         d="M 344.47451,381.03574 C 345.31469,379.77615 345.39043,376.90498 347.81996,377.36478 C 356.18108,381.11025 354.33463,383.66232 356.91269,386.77644 C 357.12066,384.7687 357.66068,382.84396 361.21819,381.6736 C 363.27028,381.57697 365.77451,380.12391 366.63997,383.58716 C 369.50293,381.62044 367.71906,380.29158 366.79943,378.32487 C 362.03342,376.78047 362.60478,370.87988 364.56693,369.3949 C 368.04365,365.02228 371.85297,364.43982 375.09153,364.45153 C 381.75036,364.4756 381.73428,368.35865 383.86204,370.51115 C 387.2453,375.40136 385.43132,380.29157 385.93506,385.18179 C 382.98612,391.6777 383.29119,391.33599 380.70259,392.19824 C 376.61264,395.80714 372.14054,396.46664 367.59675,396.18479 C 365.94896,395.54694 364.30117,394.90909 362.65337,394.27124 C 361.64344,394.96224 360.6335,395.65324 359.62357,396.34425 C 358.66679,395.49378 357.70999,394.6433 356.75321,393.79283 C 353.92839,396.37477 352.26093,394.32732 350.21522,393.79283 C 347.60891,391.77296 343.90061,389.75309 344.47451,387.73322 C 342.86384,384.96384 343.57845,382.96955 344.47451,381.03574 z"
         style="opacity:0.49787233;fill:#0b0b0b;fill-opacity:1;fill-rule:evenodd;stroke:#000000;stroke-width:0.89299661px;stroke-linecap:butt;stroke-linejoin:miter;stroke-opacity:1;filter:url(#filter3710)" />
      <path
         sodipodi:nodetypes="cccccccccccsscsscccccccccccccscscccccccccccccccccccccccsccsccsccscccccc"
         id="path3805"
         d="M 306.14733,311.11607 C 309.111,315.93356 308.65135,321.6441 312.30358,326.24107 C 317.65222,331.14461 320.76088,338.39751 345.13394,344.14286 C 349.33082,342.78733 361.53024,341.1275 369.33483,341.70982 C 370.07743,341.3201 371.69674,340.78395 369.17858,340.70982 C 361.36551,340.15008 349.03678,341.08146 344.86608,342.42857 C 320.49303,336.68323 317.65221,330.1446 312.30358,325.24107 C 308.90178,320.95931 309.06596,315.70949 306.70983,311.11607 L 306.14733,311.11607 z M 376.95983,311.11607 C 377.21631,322.60257 378.79354,335.12949 380.59822,342.61161 C 383.74126,343.69893 390.20365,345.93642 391.39733,348.42857 C 391.39734,348.42859 442.53894,334.77932 455.61608,320.74107 C 456.95552,319.3032 457.26368,317.17047 457.14733,315.11607 C 457.11598,316.84179 456.73776,318.53695 455.61608,319.74107 C 442.53895,333.77933 391.39733,347.42858 391.39733,347.42857 C 390.20617,344.93434 384.78179,342.35264 380.95537,341.83482 C 379.20405,334.57387 377.30015,322.33307 376.95983,311.11607 z M 502.33483,344.70982 C 495.22006,351.42198 475.89953,373.47963 466.95983,375.36607 C 449.5543,377.29179 409.81328,377.00846 403.67858,373.52232 C 402.64369,368.50618 399.05279,360.64777 397.08483,355.86607 C 397.06979,355.87081 396.70983,355.99107 396.70983,355.99107 C 398.57578,360.64623 402.58547,369.22401 403.67858,374.52232 C 409.81329,378.00847 449.55429,378.29178 466.95983,376.36607 C 475.89954,374.47964 495.22006,352.42198 502.33483,345.70982 C 502.33483,345.38263 504.42992,343.79839 502.33483,344.72825 L 502.33483,344.70982 z M 321.55358,358.49107 C 321.54543,358.58314 321.53581,358.69068 321.52233,358.77232 C 321.29753,360.13451 321.18655,361.96033 321.20983,363.95982 C 321.23021,362.36199 321.33578,360.90266 321.52233,359.77232 C 321.57802,359.435 321.58973,358.9925 321.55358,358.49107 z M 322.27233,373.83482 C 321.97521,376.21168 320.67435,378.04975 317.61608,382.92857 C 304.65308,398.56691 290.59916,412.7649 275.61608,425.70982 L 260.52233,434.14732 L 262.30358,434.14732 L 275.61608,426.70982 C 290.59917,413.76493 304.65307,399.5669 317.61608,383.92857 C 320.97604,378.56849 322.22023,376.87987 322.33483,374.11607 C 322.31169,374.0249 322.29471,373.9266 322.27233,373.83482 z M 473.39733,378.99107 C 473.17246,379.09161 472.95428,379.17155 472.77233,379.20982 C 487.1526,396.86863 495.48912,422.60958 502.49108,428.67857 C 503.45705,428.89722 503.86675,428.798 502.49108,427.67857 C 495.59161,421.68859 487.39084,396.61463 473.39733,378.99107 z M 438.89733,387.58482 C 438.82517,387.6098 438.75079,387.62201 438.67858,387.64732 C 443.12873,407.78303 448.11437,423.01205 452.95983,431.20982 L 454.67858,434.14732 L 455.27233,434.14732 L 452.95983,430.20982 C 448.19208,422.14351 443.29298,407.24254 438.89733,387.58482 z M 484.55358,424.74107 C 484.51497,426.46882 484.32889,427.99082 483.95983,428.95982 C 483.33506,430.60026 481.55159,433.04825 479.67858,434.71553 L 481.088,434.21045 C 482.5228,432.81429 483.68774,431.13285 484.46491,429.95982 C 486.60808,426.72499 484.56258,426.88878 484.55358,424.74107 z M 440.39733,428.05357 C 440.38468,428.71537 440.33933,429.35837 440.27233,429.92857 C 440.1141,431.27523 439.41812,432.7809 438.61608,434.14732 L 439.17858,434.14732 C 439.72602,433.06969 440.15146,431.95721 440.27233,430.92857 C 440.37205,430.07995 440.41529,429.09828 440.39733,428.05357 z M 286.80358,431.99107 C 286.70176,432.20814 286.58522,432.43093 286.49108,432.64732 L 287.83483,434.14732 L 288.74108,434.14732 L 286.80358,431.99107 z"
         style="opacity:0.39148937;fill:#ffffff;fill-opacity:1;fill-rule:evenodd;stroke:none;stroke-width:1px;stroke-linecap:butt;stroke-linejoin:miter;stroke-opacity:1;filter:url(#filter3886)" />
      <path
         sodipodi:nodetypes="ccssccccccssccsssccssscssccssccccscccscccscccsccscscscsccccssscscsccscccscccsssccccssssssssssssssssssssscsscscccccccccscccssssssssssssssssssssscccsssscccssccsscssssccccccsssssssssssssccccccssssssssssssscsssssssscssssssscccccccccccccsssssssccsssscccssc"
         id="path3846"
         d="M 499.25,310.40625 C 498.96867,310.43635 498.50762,310.61072 497.71875,311.03125 C 494.95493,312.76495 491.90435,314.64941 489.78125,315.875 C 480.50175,321.23172 467.24473,329.54917 458.625,333.0625 C 441.49605,340.04411 397.28125,353.9375 397.28125,353.9375 L 396.78125,354.09375 L 396.46875,354.59375 C 398.34768,359.28132 402.84035,367.86481 403.90625,373.03125 L 403.96875,373.25 L 404.15625,373.375 C 405.88905,374.35968 409.49384,374.98033 414.375,375.46875 C 419.25617,375.95716 425.36447,376.24236 431.8125,376.375 C 444.70857,376.64028 459.00326,376.24897 467.75,375.28125 L 467.78125,375.25 C 470.5298,374.67 473.97919,372.42441 477.75,369.375 C 481.52082,366.32558 485.57712,362.46481 489.4375,358.625 C 493.29789,354.78518 496.95806,350.9798 499.84375,348.03125 C 501.28661,346.55696 501.91438,345.9746 502.90625,345.04464 C 504.70496,343.44288 503.50631,341.48909 502.84375,343.4375 C 501.8307,344.38734 500.5716,345.83439 499.125,347.3125 C 496.23181,350.26872 492.59843,354.10957 488.75,357.9375 C 484.90158,361.76542 480.81748,365.58241 477.09375,368.59375 C 473.37003,371.60508 469.95004,373.77744 467.5625,374.28125 C 458.89883,375.23533 444.64752,375.63903 431.8125,375.375 C 425.38273,375.24272 419.30836,374.95302 414.46875,374.46875 C 409.71204,373.99277 406.17081,373.27541 404.78125,372.53125 C 403.62281,367.24659 400.25793,359.3737 398.375,354.75 C 399.31675,354.45386 441.93187,340.95682 459,334 C 467.79758,330.41418 481.03343,322.08844 490.28125,316.75 C 492.75777,315.32038 496.50602,313.01321 499.65625,311.03125 C 499.6684,310.7114 499.71889,310.35606 499.25,310.40625 z M 307.4375,310.46875 C 307.28277,310.54245 307.21552,310.81305 307.125,311.03125 C 307.88783,312.61483 308.38208,314.29417 308.84375,316 C 309.6645,319.03258 310.4121,322.18343 312.625,324.96875 L 312.65625,325 L 312.6875,325 C 315.31253,327.40656 317.38453,330.33023 321.875,333.34375 C 326.36548,336.35726 333.2451,339.46233 345.46875,342.34375 L 345.59375,342.375 L 345.75,342.3125 C 347.74328,341.66869 351.90539,341.08274 356.5,340.75 C 361.09463,340.41725 366.13751,340.33681 370,340.625 L 370.625,340.6875 L 370.53125,340.0625 C 369.55371,333.72569 368.70082,322.51194 365.96875,312 C 365.88399,311.67382 365.77604,311.35597 365.6875,311.03125 C 365.34376,310.18187 364.5,310.55709 364.15625,311.03125 C 364.26846,311.43773 364.37343,311.84634 364.5,312.25 C 367.64245,322.27133 368.53754,332.38768 369.5,338.875 C 365.63759,338.62564 360.87006,338.67899 356.4375,339 C 351.88275,339.32987 347.82489,340.64918 345.59375,341.34375 C 333.51154,338.48709 326.78665,335.44993 322.4375,332.53125 C 318.11006,329.62712 316.09723,326.82597 313.40625,324.34375 C 311.35514,321.76205 310.63875,318.77168 309.8125,315.71875 C 309.38963,314.1562 309.7264,312.56217 309.03125,311.03125 C 308.61573,310.5182 307.59224,310.39504 307.4375,310.46875 z M 457.53125,310.46875 C 457.35938,310.54003 457.17187,310.80732 457,311.03125 C 457.06882,311.36413 456.54005,311.67436 456.59375,312.03125 C 456.95518,314.43318 457.60046,316.57005 456.09375,318.1875 C 449.7216,325.02795 433.55249,332.6511 419.15625,337.8125 C 404.9777,342.89584 392.62775,346.2113 392.25,346.3125 C 391.45175,345.01121 390.47445,343.20709 388.59375,342.25 C 386.64681,341.2592 383.92024,340.27631 382,339.96875 C 380.41389,333.29265 378.78618,323.42567 378.28125,313.125 C 378.24673,312.42059 378.24192,311.72997 378.21875,311.03125 C 377.79976,310.34592 377.4694,310.36978 377.21875,311.03125 C 377.24267,311.73634 377.24633,312.44386 377.28125,313.15625 C 377.79602,323.65748 379.46701,334.63059 381.09375,341.375 L 381.1875,341.71875 L 381.5,341.75 C 383.33535,341.99836 385.66372,342.75191 387.625,343.75 C 389.58629,344.74808 391.19266,346.02633 391.6875,347.0625 L 391.84375,347.4375 L 392.25,347.34375 C 392.25001,347.34374 405.05868,343.92756 419.5,338.75 C 433.94133,333.57243 450.01375,326.69779 456.71875,319.5 C 458.58412,317.49753 458.56819,314.43618 458.1875,311.90625 C 458.14088,311.59638 458.0884,311.32419 458.03125,311.03125 C 457.85938,310.52216 457.70313,310.39746 457.53125,310.46875 z M 227.3125,310.59375 C 227.09374,310.57999 226.94822,310.86368 226.78125,311.03125 C 227.14438,312.49011 227.94162,314.14565 229.5625,315.75 C 230.56651,316.74375 232.42538,318.07253 234.3125,319.34375 C 236.19963,320.61496 238.11887,321.83317 239.25,322.53125 C 240.87584,323.53462 242.11493,325.32304 243.125,326.25 C 244.13507,327.17695 244.76953,328.03127 246.84375,327.5625 C 248.09185,327.28042 249.84923,325.5237 251.21875,324.4375 C 252.58829,323.35129 253.78686,322.07305 254.21875,320.8125 C 254.29665,320.58515 254.41433,320.4838 254.59375,320.375 C 254.77318,320.26619 255.03706,320.18887 255.375,320.15625 C 256.0509,320.09099 256.98862,320.19763 258,320.375 C 259.01139,320.55236 260.11419,320.76806 261.125,320.875 C 262.13582,320.98193 263.09082,321.00474 263.875,320.625 C 267.25072,318.99027 269.63284,320.28064 275.0625,321.09821 C 279.91354,321.82866 285.72628,325.0999 290.39286,327.80804 C 295.05945,330.51617 299.5273,333.12451 302.79018,335.45089 C 304.42163,336.61407 305.9657,337.25559 307,338 C 307.51716,338.3722 307.93896,338.67591 308.28125,338.90625 C 308.62355,339.13658 308.85479,339.28237 309.09375,339.375 C 313.78075,341.19183 317.09055,345.07194 319.15625,348.9375 C 320.18911,350.87027 320.66892,352.93093 321.09375,354.5625 C 321.51858,356.19408 321.3645,357.05828 321.25,357.75 C 320.49696,362.29958 320.7076,367.46632 322.5625,372.5625 C 322.50126,373.84454 322.18463,374.8688 321.46875,376.25 C 320.74911,377.63847 319.59183,379.39348 317.9375,382.03125 C 317.92051,382.05835 317.92336,382.06645 317.90625,382.09375 C 304.99796,397.65994 291.00868,411.79379 276.09375,424.6875 C 276.06572,424.71173 276.02805,424.72576 276,424.75 L 256.21875,435.78125 C 256.60856,435.95986 255.61653,436.96758 258.28125,435.78125 L 276.59375,425.5625 L 276.625,425.5625 L 276.65625,425.5 C 291.65919,412.53794 305.73736,398.348 318.71875,382.6875 L 318.75,382.65625 L 318.75,382.625 C 320.42781,379.94841 321.57686,378.16712 322.34375,376.6875 C 323.11065,375.20787 323.50226,374.01538 323.5625,372.5625 L 323.5625,372.46875 L 323.53125,372.40625 C 322.27605,367.46435 322.21696,361.51093 322.75,358.28125 C 322.91075,357.30731 322.75836,355.89982 322.3125,354.1875 C 321.86665,352.47517 321.10289,350.47411 320.03125,348.46875 C 317.88799,344.45801 314.45509,340.37039 309.46875,338.4375 C 309.44613,338.42872 309.16851,338.28105 308.84375,338.0625 C 308.519,337.84394 308.10762,337.55735 307.59375,337.1875 C 306.56601,336.44779 305.1689,335.44887 303.53125,334.28125 C 300.25595,331.946 295.9588,328.95139 291.25,326.21875 C 286.54121,323.4861 281.43633,320.98355 276.59375,319.59375 C 271.75118,318.20394 267.1477,317.92205 263.4375,319.71875 C 262.96809,319.94606 262.15533,320.00534 261.21875,319.90625 C 260.28219,319.80715 259.22107,319.58751 258.1875,319.40625 C 257.15394,319.22498 256.15167,319.07223 255.28125,319.15625 C 254.84605,319.19825 254.45104,319.28335 254.09375,319.5 C 253.73648,319.71664 253.42909,320.06851 253.28125,320.5 C 252.97744,321.38674 251.90937,322.63759 250.625,323.65625 C 249.34064,324.6749 247.84092,325.50045 246.875,325.71875 C 245.02982,326.13575 244.29504,325.72192 243.40625,324.90625 C 242.51747,324.09057 241.57492,322.79445 239.78125,321.6875 C 238.6568,320.99352 236.58757,319.04014 234.71875,317.78125 C 232.84994,316.52237 231.56732,315.30835 230.6875,314.4375 C 229.29669,313.06086 228.16686,312.29221 227.8125,311.03125 C 227.59312,310.71455 227.44376,310.602 227.3125,310.59375 z M 502.40625,350.46429 C 501.48522,351.08051 501.21716,351.56403 499.875,352.78125 C 497.19068,355.21569 493.76302,358.6554 490.25,362.1875 C 486.73699,365.71959 483.11634,369.34961 480.0625,372.15625 C 478.53559,373.55956 477.15795,374.75284 476,375.625 C 474.84206,376.49715 473.86681,377.02156 473.375,377.125 L 472.59375,377.3125 L 473.09375,377.9375 C 481.10444,387.7745 487.25036,400.18115 492.34375,410.28125 C 494.89046,415.33129 497.17354,419.82666 499.3125,423.125 C 500.88247,425.54593 502.38724,427.3222 503.9375,428.21875 L 503.9375,427 C 502.77989,426.11172 501.4854,424.61209 500.15625,422.5625 C 498.06541,419.33833 495.79533,414.89109 493.25,409.84375 C 488.23522,399.89951 482.42698,387.66742 475.25,377.78125 C 475.9601,377.50413 475.64064,377.15538 476.59375,376.4375 C 477.796,375.53196 479.20957,374.29074 480.75,372.875 C 483.83087,370.04351 487.45569,366.40713 490.96875,362.875 C 494.48182,359.34286 497.88113,355.93467 500.53125,353.53125 C 501.85632,352.32953 502.82621,351.6863 503.66518,351.125 C 504.23647,349.22811 503.75849,349.43718 502.40625,350.46429 z M 414.03125,382.46875 C 409.33703,382.52138 405.78024,383.49472 403.90625,384.34375 L 403.625,384.46875 L 403.59375,384.78125 C 403.56003,385.62216 402.52514,387.36629 401.21875,389.9375 C 399.91237,392.5087 398.35433,394.98332 396.3125,398.03125 C 394.27068,401.07918 392.0043,404.07898 389.78125,406.53125 C 387.55822,408.98352 385.3603,410.86426 383.59375,411.65625 C 373.82449,416.03608 366.72974,416.84767 357.3125,414.84375 C 353.34783,414.00009 350.05239,413.98277 347.1875,413.5625 C 344.32262,413.14223 341.92269,412.26889 339.5625,409.21875 C 338.60747,407.98452 337.62643,405.58812 336.6875,402.84375 C 335.74858,400.09938 334.82513,396.98292 333.8125,394.25 C 332.79988,391.51708 331.72481,389.51825 330.375,388.1875 C 329.7001,387.52212 328.90346,386.72541 328.03125,386.78125 C 327.15906,386.83709 326.32309,388.34994 325.46875,389.28125 C 319.16328,396.15479 310.92812,403.22414 303.5625,410.21875 C 296.19689,417.21335 289.67651,424.14737 286.75,430.875 L 286.625,431.15625 L 286.84375,431.40625 L 290.8125,435.78125 C 291.60487,436.9641 291.81361,436.2016 292.125,435.78125 L 287.8125,430.96875 C 290.68265,424.59289 297.0151,417.80798 304.25,410.9375 C 311.58988,403.96733 319.82029,396.9096 326.1875,389.96875 C 326.93976,389.14873 327.56981,388.81479 328.09375,388.78125 C 328.6177,388.7477 329.13673,388.98826 329.6875,389.53125 C 330.78904,390.61721 331.87845,392.90423 332.875,395.59375 C 333.87156,398.28326 334.80224,401.38607 335.75,404.15625 C 336.69777,406.92642 337.65244,409.35371 338.78125,410.8125 C 341.28909,414.05344 344.03469,415.12292 347.03125,415.5625 C 350.02782,416.00207 353.27773,415.86681 357.0625,416.8125 C 366.11697,419.0749 373.66009,418.11557 384,413.5625 C 386.02706,412.6699 388.26193,410.72207 390.53125,408.21875 C 392.80058,405.71542 395.09339,402.64182 397.15625,399.5625 C 399.21912,396.48317 401.04558,393.3978 402.375,390.78125 C 403.60354,388.36327 404.34189,386.49023 404.5,385.1875 C 408.02659,383.64992 418.09465,381.49998 430.59375,387.03125 C 430.60666,387.03695 430.61209,387.05677 430.625,387.0625 C 430.58446,387.04739 430.68014,387.14914 430.8125,387.375 C 430.96055,387.6276 431.13555,388.00532 431.34375,388.46875 C 431.76016,389.3956 432.27951,390.70482 432.84375,392.28125 C 433.97225,395.43411 435.31716,399.65419 436.5625,404.21875 C 439.05319,413.34787 441.14074,423.82815 440.5,429.28125 C 440.30555,430.93619 439.16734,433.0203 438.0625,434.65625 C 437.7863,435.06523 437.50394,435.43796 437.25,435.78125 C 437.45494,436.36353 437.63978,437.00101 438.5,435.78125 C 438.639,435.58749 438.73325,435.47491 438.90625,435.21875 C 440.05019,433.5249 441.26641,431.39422 441.5,429.40625 C 442.18628,423.56565 440.0349,413.14542 437.53125,403.96875 C 436.27944,399.38041 434.92106,395.12201 433.78125,391.9375 C 433.21135,390.34523 432.71563,389.02938 432.28125,388.0625 C 432.06407,387.57905 431.86574,387.17914 431.6875,386.875 C 431.50927,386.57085 431.40146,386.36333 431.09375,386.1875 L 431.0625,386.15625 L 431.03125,386.15625 C 424.55716,383.28416 418.72548,382.41611 414.03125,382.46875 z M 451.53125,383.09375 C 447.50338,383.22133 443.3857,384.1331 439.21875,385.59375 L 438.8125,385.71875 L 438.90625,386.15625 C 443.36193,406.31695 448.34295,421.57304 453.25,429.875 L 456.71875,435.78125 C 458.21601,437.29569 457.6041,435.91006 457.90625,435.78125 L 454.125,429.375 C 449.38095,421.34878 445.07298,406.51868 440.65625,386.65625 C 448.81383,383.87401 455.98472,383.0902 463.25,386.3125 C 470.64111,389.59059 477.53074,396.76854 483.53125,409.5625 C 483.53548,409.57149 483.52703,409.58475 483.53125,409.59375 C 483.55403,409.73651 484.09574,413.17635 484.46875,417.28125 C 484.65909,419.3758 484.792,421.60446 484.78125,423.5625 C 484.77051,425.52053 484.58268,427.23195 484.21875,428.1875 C 483.55024,429.94278 481.18387,432.31291 478.96875,434.15625 C 478.2277,434.77292 477.53752,435.30329 476.90625,435.78125 C 477.18277,436.17898 477.28827,436.83322 478.53125,435.78125 C 478.87003,435.51931 479.13853,435.31631 479.59375,434.9375 C 481.85432,433.05634 484.32667,430.70941 485.15625,428.53125 C 485.61539,427.32574 485.77021,425.6029 485.78125,423.59375 C 485.7923,421.58459 485.62965,419.302 485.4375,417.1875 C 485.05322,412.95849 484.46875,409.28125 484.46875,409.28125 L 484.46875,409.21875 L 484.4375,409.15625 C 478.37044,396.20973 471.33736,388.81297 463.65625,385.40625 C 460.29577,383.9158 456.80738,383.1819 453.25,383.09375 C 452.67829,383.07957 452.10666,383.07552 451.53125,383.09375 z"
         style="fill:#000000;fill-opacity:1;fill-rule:evenodd;stroke:none;stroke-width:1px;stroke-linecap:butt;stroke-linejoin:miter;stroke-opacity:1" />
      <g
         style="stroke:url(#radialGradient4033);filter:url(#filter4047)"
         id="g4000">
        <path
           style="fill:none;fill-rule:evenodd;stroke:url(#radialGradient4033);stroke-width:0.79999995;stroke-linecap:round;stroke-linejoin:round;stroke-miterlimit:4;stroke-dasharray:none;stroke-opacity:1"
           d="M 336.42857,390.93361 C 336.822,388.50602 337.91698,388.09143 340.71429,388.79075 C 344.52792,389.74416 343.90106,390.02709 345.71429,387.00504 C 346.0266,386.48452 347.5,387.25492 347.5,386.6479"
           id="path3966" />
        <path
           style="fill:none;fill-rule:evenodd;stroke:url(#radialGradient4033);stroke-width:0.79999995;stroke-linecap:round;stroke-linejoin:round;stroke-miterlimit:4;stroke-dasharray:none;stroke-opacity:1"
           d="M 335,370.93361 C 336.08361,369.12759 337.59958,374.7085 339.64286,375.21932 C 341.58597,375.7051 340.90806,376.68874 343.92857,375.93361"
           id="path3968" />
        <path
           style="fill:none;fill-rule:evenodd;stroke:url(#radialGradient4033);stroke-width:0.79999995;stroke-linecap:round;stroke-linejoin:round;stroke-miterlimit:4;stroke-dasharray:none;stroke-opacity:1"
           d="M 356.42857,390.93361 C 358.03721,390.53145 356.301,395.57647 354.64286,395.57647 C 350.98172,395.57647 354.15598,400.57647 351.07143,400.57647 C 350.1697,400.57647 349.71903,402.41462 349.64286,402.71932"
           id="path3970" />
        <path
           style="fill:none;fill-rule:evenodd;stroke:url(#radialGradient4033);stroke-width:0.79999995;stroke-linecap:round;stroke-linejoin:round;stroke-miterlimit:4;stroke-dasharray:none;stroke-opacity:1"
           d="M 364.64286,392.00504 C 360.37537,392.00504 372.87781,394.63786 376.42857,397.00504 C 376.77086,397.23323 374.64286,401.36301 374.64286,402.36218 C 374.64286,402.92452 377.15981,402.71932 377.5,402.71932"
           id="path3972" />
        <path
           style="fill:none;fill-rule:evenodd;stroke:url(#radialGradient4033);stroke-width:0.79999995;stroke-linecap:round;stroke-linejoin:round;stroke-miterlimit:4;stroke-dasharray:none;stroke-opacity:1"
           d="M 368.57143,394.86218 C 368.57143,396.03945 367.35823,397.92925 366.78571,400.21932 C 366.26118,402.31746 367.48228,401.79058 365.71429,404.1479 C 365.42857,404.52885 364.76191,404.1479 364.28571,404.1479"
           id="path3974" />
        <path
           style="fill:none;fill-rule:evenodd;stroke:url(#radialGradient4033);stroke-width:0.79999995;stroke-linecap:round;stroke-linejoin:round;stroke-miterlimit:4;stroke-dasharray:none;stroke-opacity:1"
           d="M 381.78571,389.50504 C 380.64063,391.03182 385.59152,389.1479 387.5,389.1479 C 389.57447,389.1479 390.08617,388.79075 393.21429,388.79075 C 393.82131,388.79075 392.02381,388.55266 391.42857,388.43361"
           id="path3976" />
        <path
           style="fill:none;fill-rule:evenodd;stroke:url(#radialGradient4033);stroke-width:0.79999995;stroke-linecap:round;stroke-linejoin:round;stroke-miterlimit:4;stroke-dasharray:none;stroke-opacity:1"
           d="M 385.35714,381.29075 C 387.63155,381.29075 385.22674,376.61677 386.07143,374.50504 C 386.24697,374.06619 387.44797,379.71317 388.57143,375.21932 C 388.6342,374.96824 392.396,376.03761 393.21429,375.21932 C 394.74441,373.6892 394.30971,374.60103 393.92857,373.07647"
           id="path3978" />
        <path
           style="fill:none;fill-rule:evenodd;stroke:url(#radialGradient4033);stroke-width:0.79999995;stroke-linecap:round;stroke-linejoin:round;stroke-miterlimit:4;stroke-dasharray:none;stroke-opacity:1"
           d="M 342.85714,370.57647 C 343.00245,370.43116 340,367.97406 340,365.57647"
           id="path3980" />
        <path
           style="fill:none;fill-rule:evenodd;stroke:url(#radialGradient4033);stroke-width:0.79999995;stroke-linecap:round;stroke-linejoin:round;stroke-miterlimit:4;stroke-dasharray:none;stroke-opacity:1"
           d="M 337.5,383.07647 C 337.5,382.60028 336.54762,383.07647 336.07143,383.07647"
           id="path3982" />
        <path
           style="fill:none;fill-rule:evenodd;stroke:url(#radialGradient4033);stroke-width:0.79999995;stroke-linecap:round;stroke-linejoin:round;stroke-miterlimit:4;stroke-dasharray:none;stroke-opacity:1"
           d="M 385.35714,394.1479 C 385.35714,392.12409 383.93105,398.07399 382.5,399.50504 C 381.85966,400.14538 381.68574,400.3336 380.71429,400.57647"
           id="path3984" />
        <path
           style="fill:none;fill-rule:evenodd;stroke:url(#radialGradient4033);stroke-width:0.79999995;stroke-linecap:round;stroke-linejoin:round;stroke-miterlimit:4;stroke-dasharray:none;stroke-opacity:1"
           d="M 360.35714,402.71932 C 359.46678,403.60968 358.16148,404.1479 356.07143,404.1479"
           id="path3986" />
        <path
           style="fill:none;fill-rule:evenodd;stroke:url(#radialGradient4033);stroke-width:0.79999995;stroke-linecap:round;stroke-linejoin:round;stroke-miterlimit:4;stroke-dasharray:none;stroke-opacity:1"
           d="M 343.92857,396.6479 C 343.33179,397.24468 345.94658,391.76404 350,393.79075 C 351.40124,394.49137 352.90542,396.03016 353.92857,398.07647 C 354.62819,399.47571 357.0272,399.02715 358.21429,398.43361 C 360.06355,397.50898 359.64286,395.33011 359.64286,393.43361 C 359.64286,391.04604 359.69927,389.50504 362.5,389.50504 C 364.60862,389.50504 366.20744,389.2839 367.5,390.57647 C 368.94231,392.01877 371.09492,389.77877 372.85714,390.21932 C 377.87068,391.47271 375.46902,393.16683 373.92857,387.00504 C 373.57173,385.57767 372.62228,381.545 372.5,380.93361"
           id="path3988" />
        <path
           style="fill:none;fill-rule:evenodd;stroke:url(#radialGradient4033);stroke-width:0.79999995;stroke-linecap:round;stroke-linejoin:round;stroke-miterlimit:4;stroke-dasharray:none;stroke-opacity:1"
           d="M 374.64286,390.93361 C 374.36309,389.81455 379.24856,393.05789 380.71429,393.79075 C 382.25658,394.5619 382.72949,390.32117 385,394.86218 C 385.87391,396.60999 386.07143,396.29042 386.07143,394.86218"
           id="path3990" />
        <path
           style="fill:none;fill-rule:evenodd;stroke:url(#radialGradient4033);stroke-width:0.79999995;stroke-linecap:round;stroke-linejoin:round;stroke-miterlimit:4;stroke-dasharray:none;stroke-opacity:1"
           d="M 380.35714,382.71932 C 381.34004,384.68511 388.12775,384.25882 390,383.79075 C 392.44512,383.17947 393.45623,382.47738 393.92857,382.00504"
           id="path3992" />
        <path
           style="fill:none;fill-rule:evenodd;stroke:url(#radialGradient4033);stroke-width:0.79999995;stroke-linecap:round;stroke-linejoin:round;stroke-miterlimit:4;stroke-dasharray:none;stroke-opacity:1"
           d="M 383.57143,374.1479 C 385.89533,373.56692 386.73251,370.21932 389.64286,370.21932 C 390.93163,370.21932 390.07332,369.35839 390.35714,368.79075"
           id="path3994" />
        <path
           style="fill:none;fill-rule:evenodd;stroke:url(#radialGradient4033);stroke-width:0.79999995;stroke-linecap:round;stroke-linejoin:round;stroke-miterlimit:4;stroke-dasharray:none;stroke-opacity:1"
           d="M 346.07143,380.57647 C 348.77739,380.57647 341.70126,381.97126 338.21429,380.57647 C 337.1382,380.14603 335.08439,379.86218 334.28571,379.86218"
           id="path3996" />
        <path
           style="fill:none;fill-rule:evenodd;stroke:url(#radialGradient4033);stroke-width:0.79999995;stroke-linecap:round;stroke-linejoin:round;stroke-miterlimit:4;stroke-dasharray:none;stroke-opacity:1"
           d="M 343.92857,385.21932 C 343.13986,385.21932 340.41421,385.91934 338.92857,386.29075 C 338.08051,386.50277 338.05105,386.51013 337.5,386.6479"
           id="path3998" />
      </g>
    </g>
  </g>
</svg>
