<?xml version="1.0" encoding="UTF-8" standalone="no"?>
<!-- Created with Inkscape (http://www.inkscape.org/) -->
<svg
   xmlns:dc="http://purl.org/dc/elements/1.1/"
   xmlns:cc="http://creativecommons.org/ns#"
   xmlns:rdf="http://www.w3.org/1999/02/22-rdf-syntax-ns#"
   xmlns:svg="http://www.w3.org/2000/svg"
   xmlns="http://www.w3.org/2000/svg"
   xmlns:xlink="http://www.w3.org/1999/xlink"
   xmlns:sodipodi="http://sodipodi.sourceforge.net/DTD/sodipodi-0.dtd"
   xmlns:inkscape="http://www.inkscape.org/namespaces/inkscape"
   width="210mm"
   height="297mm"
   id="svg2"
   sodipodi:version="0.32"
   inkscape:version="0.46"
   sodipodi:docname="ubunto_child.svg"
   inkscape:output_extension="org.inkscape.output.svg.inkscape">
  <defs
     id="defs4">
    <linearGradient
       id="linearGradient3262">
      <stop
         id="stop3264"
         offset="0"
         style="stop-color:#d2c679;stop-opacity:1;" />
      <stop
         id="stop3266"
         offset="1"
         style="stop-color:#b1985d;stop-opacity:1;" />
    </linearGradient>
    <linearGradient
       id="linearGradient5204">
      <stop
         style="stop-color:#f7e5a0;stop-opacity:1;"
         offset="0"
         id="stop5206" />
      <stop
         style="stop-color:#826e21;stop-opacity:1;"
         offset="1"
         id="stop5208" />
    </linearGradient>
    <linearGradient
       id="linearGradient4571">
      <stop
         id="stop4573"
         offset="0"
         style="stop-color:#c5bc7c;stop-opacity:1;" />
      <stop
         id="stop4575"
         offset="1"
         style="stop-color:#c3a765;stop-opacity:1;" />
    </linearGradient>
    <linearGradient
       id="linearGradient4513">
      <stop
         style="stop-color:#000000;stop-opacity:1;"
         offset="0"
         id="stop4515" />
      <stop
         style="stop-color:#ffffff;stop-opacity:1;"
         offset="1"
         id="stop4517" />
    </linearGradient>
    <linearGradient
       id="linearGradient3556">
      <stop
         id="stop3558"
         offset="0"
         style="stop-color:#9f886f;stop-opacity:1;" />
      <stop
         id="stop3560"
         offset="1"
         style="stop-color:#8a5f73;stop-opacity:1;" />
    </linearGradient>
    <linearGradient
       id="linearGradient3465">
      <stop
         style="stop-color:#fef951;stop-opacity:1;"
         offset="0"
         id="stop3467" />
      <stop
         style="stop-color:#c4a75b;stop-opacity:1;"
         offset="1"
         id="stop3469" />
    </linearGradient>
    <linearGradient
       id="linearGradient3394">
      <stop
         style="stop-color:#f7f2f2;stop-opacity:1;"
         offset="0"
         id="stop3396" />
      <stop
         style="stop-color:#c1b985;stop-opacity:1;"
         offset="1"
         id="stop3398" />
    </linearGradient>
    <linearGradient
       id="linearGradient3378">
      <stop
         style="stop-color:#8f5c4c;stop-opacity:1;"
         offset="0"
         id="stop3380" />
      <stop
         style="stop-color:#3b2318;stop-opacity:1;"
         offset="1"
         id="stop3382" />
    </linearGradient>
    <linearGradient
       id="linearGradient3326">
      <stop
         style="stop-color:#f0eba4;stop-opacity:1;"
         offset="0"
         id="stop3328" />
      <stop
         style="stop-color:#b1985d;stop-opacity:1;"
         offset="1"
         id="stop3330" />
    </linearGradient>
    <inkscape:perspective
       sodipodi:type="inkscape:persp3d"
       inkscape:vp_x="0 : 526.18109 : 1"
       inkscape:vp_y="0 : 1000 : 0"
       inkscape:vp_z="744.09448 : 526.18109 : 1"
       inkscape:persp3d-origin="372.04724 : 350.78739 : 1"
       id="perspective10" />
    <inkscape:perspective
       id="perspective2464"
       inkscape:persp3d-origin="372.04724 : 350.78739 : 1"
       inkscape:vp_z="744.09448 : 526.18109 : 1"
       inkscape:vp_y="0 : 1000 : 0"
       inkscape:vp_x="0 : 526.18109 : 1"
       sodipodi:type="inkscape:persp3d" />
    <inkscape:perspective
       id="perspective2531"
       inkscape:persp3d-origin="372.04724 : 350.78739 : 1"
       inkscape:vp_z="744.09448 : 526.18109 : 1"
       inkscape:vp_y="0 : 1000 : 0"
       inkscape:vp_x="0 : 526.18109 : 1"
       sodipodi:type="inkscape:persp3d" />
    <filter
       inkscape:collect="always"
       id="filter3750">
      <feGaussianBlur
         inkscape:collect="always"
         stdDeviation="0.29622777"
         id="feGaussianBlur3752" />
    </filter>
    <filter
       inkscape:collect="always"
       id="filter4039"
       x="-0.11772198"
       width="1.235444"
       y="-0.11706248"
       height="1.234125">
      <feGaussianBlur
         inkscape:collect="always"
         stdDeviation="0.54415761"
         id="feGaussianBlur4041" />
    </filter>
    <filter
       inkscape:collect="always"
       id="filter4275"
       x="-0.11874374"
       width="1.2374875"
       y="-0.49187211"
       height="1.9837442">
      <feGaussianBlur
         inkscape:collect="always"
         stdDeviation="0.90586729"
         id="feGaussianBlur4277" />
    </filter>
    <filter
       inkscape:collect="always"
       id="filter4330"
       x="-0.099570742"
       width="1.1991415"
       y="-0.13073268"
       height="1.2614654">
      <feGaussianBlur
         inkscape:collect="always"
         stdDeviation="0.93181001"
         id="feGaussianBlur4332" />
    </filter>
    <filter
       inkscape:collect="always"
       id="filter4399"
       x="-0.072698509"
       width="1.145397"
       y="-0.25400906"
       height="1.5080181">
      <feGaussianBlur
         inkscape:collect="always"
         stdDeviation="0.97660027"
         id="feGaussianBlur4401" />
    </filter>
    <radialGradient
       inkscape:collect="always"
       xlink:href="#linearGradient4571"
       id="radialGradient4465"
       gradientUnits="userSpaceOnUse"
       gradientTransform="matrix(1.4664514,5.3830946e-2,-1.6118746e-2,0.4391035,-196.34667,148.20799)"
       cx="432.46939"
       cy="304.6272"
       fx="432.46939"
       fy="304.6272"
       r="22.157198" />
    <radialGradient
       inkscape:collect="always"
       xlink:href="#linearGradient3394"
       id="radialGradient4467"
       gradientUnits="userSpaceOnUse"
       gradientTransform="matrix(1.0138368,0,0,1.3065351,98.989288,-93.282614)"
       cx="305.34521"
       cy="307.8136"
       fx="305.34521"
       fy="307.8136"
       r="3.1705577" />
    <radialGradient
       inkscape:collect="always"
       xlink:href="#linearGradient3394"
       id="radialGradient4469"
       gradientUnits="userSpaceOnUse"
       gradientTransform="matrix(0.9959403,0,0,1.0011638,104.50813,0.7997073)"
       cx="318.70312"
       cy="307.92352"
       fx="318.70312"
       fy="307.92352"
       r="5.6770301" />
    <radialGradient
       inkscape:collect="always"
       xlink:href="#linearGradient3326"
       id="radialGradient4471"
       gradientUnits="userSpaceOnUse"
       gradientTransform="matrix(1,0,0,1.0841886,74.751288,-19.597434)"
       cx="315.89197"
       cy="269.85556"
       fx="315.89197"
       fy="269.85556"
       r="23.93856" />
    <linearGradient
       inkscape:collect="always"
       xlink:href="#linearGradient3394"
       id="linearGradient4473"
       gradientUnits="userSpaceOnUse"
       gradientTransform="translate(75.530458,2.7472815)"
       x1="296.78427"
       y1="256.99371"
       x2="294.2373"
       y2="261.72849" />
    <radialGradient
       inkscape:collect="always"
       xlink:href="#linearGradient3394"
       id="radialGradient4475"
       gradientUnits="userSpaceOnUse"
       gradientTransform="matrix(1.0564671,0.1283335,-9.1461471e-2,0.7529289,8.9117155,29.491377)"
       cx="301.69189"
       cy="276.10443"
       fx="301.69189"
       fy="276.10443"
       r="12.298915" />
    <linearGradient
       inkscape:collect="always"
       xlink:href="#linearGradient3378"
       id="linearGradient4477"
       gradientUnits="userSpaceOnUse"
       gradientTransform="translate(0.8207489,-6.3134534e-2)"
       x1="311.29416"
       y1="266.13568"
       x2="315.84915"
       y2="275.03888" />
    <linearGradient
       inkscape:collect="always"
       xlink:href="#linearGradient3465"
       id="linearGradient4479"
       gradientUnits="userSpaceOnUse"
       x1="323.96429"
       y1="242.54076"
       x2="330.15002"
       y2="256.29077" />
    <radialGradient
       inkscape:collect="always"
       xlink:href="#linearGradient3262"
       id="radialGradient4481"
       gradientUnits="userSpaceOnUse"
       gradientTransform="matrix(0.9205462,-0.1697755,0.3073691,1.6665981,-11.340003,-115.27867)"
       cx="417.13187"
       cy="273.77982"
       fx="417.13187"
       fy="273.77982"
       r="9.4490147" />
    <linearGradient
       inkscape:collect="always"
       xlink:href="#linearGradient4513"
       id="linearGradient4511"
       x1="437.3157"
       y1="273.31113"
       x2="441.58615"
       y2="274.73969"
       gradientUnits="userSpaceOnUse"
       gradientTransform="translate(15.535714,-1.6071429)" />
    <linearGradient
       inkscape:collect="always"
       xlink:href="#linearGradient4513"
       id="linearGradient4523"
       gradientUnits="userSpaceOnUse"
       gradientTransform="translate(15.535714,-1.6071429)"
       x1="437.3157"
       y1="273.31113"
       x2="441.58615"
       y2="274.73969" />
    <linearGradient
       inkscape:collect="always"
       xlink:href="#linearGradient4513"
       id="linearGradient4526"
       gradientUnits="userSpaceOnUse"
       gradientTransform="translate(10.357143,-0.8928572)"
       x1="437.49429"
       y1="269.91827"
       x2="440.6933"
       y2="271.16824" />
    <linearGradient
       inkscape:collect="always"
       xlink:href="#linearGradient4513"
       id="linearGradient4532"
       gradientUnits="userSpaceOnUse"
       gradientTransform="translate(15.892857,-1.4285715)"
       x1="437.49429"
       y1="269.91827"
       x2="440.6933"
       y2="271.16824" />
    <mask
       maskUnits="userSpaceOnUse"
       id="mask4528">
      <path
         sodipodi:nodetypes="cccccc"
         id="path4530"
         d="M 459.76929,254.07863 C 465.94252,261.3481 464.80049,270.18513 464.56751,278.82737 L 464.82005,272.76645 C 466.88699,274.51015 471.91525,281.52576 466.94496,287.91874 C 461.2428,290.35079 457.95046,289.4544 454.97107,289.68651 C 447.20317,284.95255 451.55722,282.50079 450.17284,281.35275"
         style="opacity:1;fill:url(#linearGradient4532);fill-opacity:1;fill-rule:evenodd;stroke:none;stroke-width:1px;stroke-linecap:round;stroke-linejoin:round;stroke-opacity:1" />
    </mask>
    <filter
       inkscape:collect="always"
       id="filter5123"
       x="-0.381628"
       width="1.763256"
       y="-0.41290898"
       height="1.825818">
      <feGaussianBlur
         inkscape:collect="always"
         stdDeviation="1.3251648"
         id="feGaussianBlur5125" />
    </filter>
    <filter
       inkscape:collect="always"
       id="filter5161"
       x="-0.070980674"
       width="1.1419613"
       y="-0.30954972"
       height="1.6190994">
      <feGaussianBlur
         inkscape:collect="always"
         stdDeviation="1.7250123"
         id="feGaussianBlur5163" />
    </filter>
    <filter
       inkscape:collect="always"
       id="filter5200"
       x="-0.038191945"
       width="1.0763839"
       y="-0.22434129"
       height="1.4486826">
      <feGaussianBlur
         inkscape:collect="always"
         stdDeviation="0.72777435"
         id="feGaussianBlur5202" />
    </filter>
    <linearGradient
       inkscape:collect="always"
       xlink:href="#linearGradient5204"
       id="linearGradient5210"
       x1="316.87305"
       y1="233.21292"
       x2="324.22662"
       y2="236.74846"
       gradientUnits="userSpaceOnUse" />
    <linearGradient
       inkscape:collect="always"
       xlink:href="#linearGradient5204"
       id="linearGradient5220"
       x1="332.76517"
       y1="234.31584"
       x2="331.94308"
       y2="239.49287"
       gradientUnits="userSpaceOnUse" />
    <filter
       inkscape:collect="always"
       id="filter5636"
       x="-0.69884935"
       width="2.3976987"
       y="-0.62119946"
       height="2.2423989">
      <feGaussianBlur
         inkscape:collect="always"
         stdDeviation="0.41598177"
         id="feGaussianBlur5638" />
    </filter>
    <filter
       inkscape:collect="always"
       id="filter3328"
       x="-0.12010156"
       width="1.2402031"
       y="-0.3930594"
       height="1.7861188">
      <feGaussianBlur
         inkscape:collect="always"
         stdDeviation="0.77587938"
         id="feGaussianBlur3330" />
    </filter>
  </defs>
  <sodipodi:namedview
     id="base"
     pagecolor="#ffffff"
     bordercolor="#666666"
     borderopacity="1.0"
     inkscape:pageopacity="0.0"
     inkscape:pageshadow="2"
     inkscape:zoom="1.979899"
     inkscape:cx="385.85976"
     inkscape:cy="805.63836"
     inkscape:document-units="px"
     inkscape:current-layer="g3572"
     showgrid="false"
     inkscape:window-width="1280"
     inkscape:window-height="670"
     inkscape:window-x="-3"
     inkscape:window-y="38" />
  <metadata
     id="metadata7">
    <rdf:RDF>
      <cc:Work
         rdf:about="">
        <dc:format>image/svg+xml</dc:format>
        <dc:type
           rdf:resource="http://purl.org/dc/dcmitype/StillImage" />
      </cc:Work>
    </rdf:RDF>
  </metadata>
  <g
     inkscape:label="plantilla"
     inkscape:groupmode="layer"
     id="layer1"
     style="display:inline">
    <image
       y="178.37265"
       x="408.91864"
       id="image2466"
       height="148"
       width="140"
       sodipodi:absref="/home/lfcia/tothemario/Desktop/thearsmonsters images/xcf_files/monsters/templates/ubunto_child.jpg"
       xlink:href="templates/ubunto_child.jpg"
       style="opacity:0.56985294" />
    <path
       style="fill:#4c4c4c;fill-opacity:1"
       d="M -7.9503942,264.31069 L -7.9503942,190.31069 L 62.049606,190.31069 L 132.04961,190.31069 L 132.04961,264.31069 L 132.04961,338.31068 L 62.049606,338.31068 L -7.9503942,338.31068 L -7.9503942,264.31069 z M 69.392686,333.20022 C 73.981466,331.10944 74.895546,326.84384 72.503716,318.68239 C 71.991526,316.93464 72.653816,316.12723 76.207676,314.1668 C 79.417616,312.3961 80.681306,311.00871 81.100426,308.7951 C 81.779296,305.20957 80.756856,301.00643 78.337736,297.438 C 77.358126,295.99298 76.035676,292.33569 75.398956,289.31069 C 74.762226,286.28569 73.920666,282.79819 73.528806,281.56069 C 72.670886,278.85133 74.030756,278.72511 85.577046,280.44241 C 91.427046,281.31249 93.459366,281.29692 94.367886,280.37509 C 96.217306,278.49856 92.961046,276.70981 84.222206,274.80179 C 74.945026,272.77622 72.508356,271.35443 71.741316,267.51922 C 71.410736,265.86635 69.191446,262.72002 66.642886,260.29109 C 64.160716,257.92542 62.335406,255.65728 62.586636,255.25077 C 62.837876,254.84425 65.296216,253.97122 68.049606,253.31069 C 73.578176,251.98441 74.330696,251.38353 73.052736,249.31575 C 72.322586,248.13435 71.184676,248.11569 65.749736,249.19599 C 59.357286,250.4666 59.272926,250.45382 53.849766,247.39318 C 43.956466,241.80975 38.613656,244.40968 48.049606,250.21567 C 50.799606,251.90776 53.049606,253.50885 53.049606,253.77365 C 53.049606,254.03844 50.789216,255.22749 48.026526,256.41596 C 42.277516,258.88912 38.049606,263.3399 38.049606,266.9188 C 38.049606,268.26886 37.421776,269.61438 36.654416,269.90884 C 34.552686,270.71536 27.664596,268.58228 24.608836,266.17862 C 18.827216,261.63079 18.617846,269.79924 24.322776,277.33953 C 26.097526,279.68527 28.178446,282.45564 28.947016,283.49591 C 30.109626,285.06952 30.129966,286.03716 29.068056,289.25479 C 28.366046,291.3819 28.059666,294.62716 28.387216,296.46647 C 28.777976,298.66072 28.478456,300.47819 27.516186,301.75182 C 25.502806,304.41667 25.557556,315.16316 27.599356,318.07824 C 28.748496,319.71887 28.927826,321.1335 28.293126,323.55075 C 26.455576,330.54898 28.751776,332.23776 40.364706,332.42899 C 44.316396,332.49407 48.899606,332.89083 50.549606,333.31068 C 55.219096,334.49886 66.690066,334.43162 69.392686,333.20022 z M 50.995726,330.26937 C 49.881966,329.57486 49.804486,328.95887 50.658596,327.58915 C 52.063326,325.33639 55.418926,325.27434 55.846236,327.49321 C 56.255376,329.61769 52.967976,331.49921 50.995726,330.26937 z M 58.180326,326.35266 C 57.528116,324.17575 56.529726,322.10741 55.961686,321.75634 C 54.155406,320.64 49.009516,323.48752 47.476766,326.45153 C 45.541946,330.19307 43.512676,330.07779 42.142926,326.14852 C 41.536636,324.40934 41.155116,322.87478 41.295096,322.7384 C 41.435076,322.60202 43.093996,322.09182 44.981586,321.60462 C 46.869176,321.11742 48.589556,320.19083 48.804656,319.54554 C 49.089906,318.6898 47.477466,318.53274 42.846416,318.96519 C 36.997006,319.51142 36.249066,319.3494 33.346866,316.90736 C 29.584196,313.74127 28.390476,309.44037 30.227976,305.67013 C 31.902116,302.23508 34.049606,301.44198 34.049606,304.25873 C 34.049606,307.05716 36.674786,307.95986 38.915596,305.93196 C 39.900916,305.04026 41.796656,304.3008 43.128346,304.28872 C 46.889096,304.25461 53.713196,300.75374 55.583766,297.8989 C 57.972976,294.25251 56.763876,289.10707 52.376736,284.25102 C 48.392716,279.84119 45.082316,279.20817 39.932256,281.87137 C 36.744906,283.51962 32.926986,283.48894 32.380826,281.81069 C 32.201826,281.26069 33.741586,278.89657 35.802496,276.5571 L 39.549606,272.30351 L 47.049606,274.22172 C 51.174606,275.27674 57.024606,276.45516 60.049606,276.84044 C 69.452216,278.03802 70.427046,279.14227 72.059046,290.44425 C 73.637666,301.3765 73.850106,302.02526 76.038666,302.59757 C 78.439076,303.22529 78.639976,306.0228 76.503666,309.0728 C 75.193556,310.94325 74.179096,311.23356 69.853526,310.9759 C 65.617066,310.72354 64.357966,310.18104 62.447296,307.78483 C 60.469166,305.30402 60.053136,305.13791 59.490446,306.60425 C 58.500496,309.18403 59.639886,311.13639 63.445956,313.38203 C 67.106006,315.54151 69.049606,319.48787 69.049606,324.7599 C 69.049606,328.86624 67.477416,330.31068 63.007896,330.31068 C 59.632076,330.31068 59.279596,330.0217 58.180326,326.35266 z M 31.386766,327.74691 C 30.577776,325.63873 32.650536,321.31068 34.469146,321.31068 C 36.579856,321.31068 37.125616,322.68062 36.420146,326.20797 C 35.742736,329.59504 32.478886,330.59295 31.386766,327.74691 z M 36.049606,300.32963 C 34.810016,299.5442 35.157226,298.8595 38.049606,296.38559 C 40.918116,293.93209 42.466766,293.38464 46.632936,293.35133 C 52.502786,293.3044 53.377946,293.82866 51.933926,296.52683 C 49.908586,300.31121 39.828996,302.72432 36.049606,300.32963 z M 34.580616,289.36086 C 33.923556,288.29771 36.814396,286.52533 41.307106,285.23684 C 44.425956,284.34236 51.049606,286.31251 51.049606,288.13466 C 51.049606,290.12309 35.755476,291.26182 34.580616,289.36086 z M 26.704596,275.48195 C 23.977496,272.46854 24.597716,270.97031 28.268356,271.70444 C 32.199056,272.49058 33.506266,273.67828 32.713776,275.74347 C 31.900976,277.86159 28.733376,277.72373 26.704596,275.48195 z M 57.081326,271.84892 C 56.133106,270.70638 55.436886,270.57431 54.492726,271.35789 C 53.124206,272.49367 46.399426,271.68573 45.531406,270.28124 C 43.998296,267.80062 50.775956,259.31069 54.289386,259.31069 C 55.527596,259.31069 56.068406,260.12623 56.112996,262.06069 C 56.173916,264.70407 56.211446,264.72346 57.080766,262.56069 C 57.578186,261.32319 58.379916,260.31069 58.862396,260.31069 C 60.872936,260.31069 62.983446,264.16793 63.256886,268.34223 C 63.528806,272.49311 63.365846,272.83205 60.964006,273.11125 C 59.518106,273.27932 57.806676,272.72291 57.081326,271.84892 z M 66.709126,270.61574 C 65.257626,265.48047 64.966786,262.31069 65.947096,262.31069 C 67.644806,262.31069 70.233036,266.9962 69.876736,269.42455 C 69.464836,272.23175 67.386776,273.01321 66.709126,270.61574 z M 41.049606,265.23377 C 41.049606,262.79721 46.189886,257.31069 48.472686,257.31069 C 50.697996,257.31069 50.479916,258.04339 46.799606,262.93191 C 43.269426,267.621 41.049606,268.50965 41.049606,265.23377 z M 10.726706,329.70976 C 11.064596,328.82925 10.728056,327.72999 9.9788658,327.26696 C 8.3996258,326.29094 6.0496058,327.88553 6.0496058,329.93312 C 6.0496058,331.85258 9.9763958,331.66504 10.726706,329.70976 z M 7.4392458,322.62996 C 9.8238958,323.54503 11.186486,320.78924 10.857566,315.71654 C 10.443276,309.32715 8.6130758,309.09814 6.5920758,315.18281 C 5.6834358,317.91848 4.2896558,320.69649 3.4948058,321.35616 C 2.6999458,322.01584 2.0496058,323.24521 2.0496058,324.08811 C 2.0496058,325.38205 2.3551858,325.34411 4.0123658,323.84439 C 5.0918758,322.86744 6.6339758,322.32095 7.4392458,322.62996 z M 16.999416,264.87116 C 18.973656,262.49235 17.907036,257.86145 15.299606,257.49114 C 13.392946,257.22035 13.036486,256.53367 12.963656,252.99114 C 12.881946,249.01698 12.834806,248.9541 12.008356,251.71692 C 11.354926,253.90133 11.330156,263.96166 11.973036,266.06069 C 12.245076,266.94891 16.015606,266.05659 16.999416,264.87116 z M 12.711886,243.06069 C 12.434476,242.37319 12.207496,242.93569 12.207496,244.31069 C 12.207496,245.68569 12.434476,246.24819 12.711886,245.56069 C 12.989296,244.87319 12.989296,243.74819 12.711886,243.06069 z M 14.049606,239.31069 C 14.049606,238.21069 13.599606,237.31069 13.049606,237.31069 C 12.499606,237.31069 12.049606,238.21069 12.049606,239.31069 C 12.049606,240.41069 12.499606,241.31069 13.049606,241.31069 C 13.599606,241.31069 14.049606,240.41069 14.049606,239.31069 z M 24.001996,233.39965 C 24.749786,232.0024 26.708436,231.26305 31.287176,230.64965 C 37.076716,229.87404 37.549606,229.62191 37.549606,227.31069 C 37.549606,224.99848 37.211576,224.81876 33.049606,224.91807 C 27.329296,225.05458 19.031736,228.66303 18.338006,231.31586 C 18.051086,232.41302 17.392266,233.31069 16.873956,233.31069 C 16.355646,233.31069 16.209686,233.76069 16.549606,234.31069 C 17.650056,236.09126 22.905316,235.44882 24.001996,233.39965 z M 13.257126,230.27124 C 12.743906,226.77446 15.247376,223.31069 18.287926,223.31069 C 20.246776,223.31069 20.304046,221.22884 18.362996,220.58182 C 16.662696,220.01505 11.049606,225.29821 11.049606,227.46532 C 11.049606,229.25026 12.690346,233.31069 13.411596,233.31069 C 13.571986,233.31069 13.502476,231.94294 13.257126,230.27124 z M 44.009776,227.85868 C 45.834776,225.65969 44.328286,222.12962 41.723936,222.50239 C 39.225676,222.85998 38.342616,225.75389 40.089476,227.85873 C 41.607966,229.6884 42.491256,229.68839 44.009776,227.85868 z M 77.732716,225.12319 C 77.413496,224.32546 77.176536,224.56241 77.128556,225.72736 C 77.085136,226.78152 77.321476,227.37215 77.653776,227.03986 C 77.986066,226.70756 78.021596,225.84507 77.732716,225.12319 z M 69.074476,219.80243 C 71.851706,218.87998 74.782246,218.37785 75.586796,218.68659 C 77.701126,219.49793 77.394736,216.933 75.132796,214.88597 C 73.658276,213.55156 72.765626,213.3923 71.264276,214.1958 C 70.190836,214.77029 69.071826,214.99957 68.777566,214.70532 C 68.483326,214.41107 66.286656,214.82838 63.896086,215.63268 C 60.458986,216.78908 59.484406,217.6303 59.237956,219.65341 C 59.066546,221.06051 59.462376,223.21343 60.117566,224.43767 L 61.308826,226.66356 L 62.666906,224.07158 C 63.583486,222.32222 65.666496,220.93438 69.074476,219.80243 z M 53.763826,224.06069 C 53.789986,223.37319 54.115436,222.08233 54.487056,221.19211 C 54.965336,220.04637 54.511236,219.40317 52.932626,218.99035 C 50.179326,218.27034 49.049606,218.9044 49.049606,221.16971 C 49.049606,224.28208 53.648116,227.10211 53.763826,224.06069 z M 88.759726,212.22062 C 92.926086,210.43471 94.231646,208.15927 91.912386,206.72589 C 91.278006,206.33382 89.954776,207.08151 88.919746,208.41687 C 87.518176,210.22515 86.859516,210.49665 86.227016,209.52682 C 84.770016,207.29276 78.049606,211.00603 78.049606,214.04513 C 78.049606,215.755 82.139936,215.0582 88.759726,212.22062 z M 100.88652,208.91903 C 101.25113,207.02574 99.582196,205.35396 97.299606,205.326 C 95.981326,205.30985 95.553646,209.4814 96.750846,210.67859 C 97.991376,211.91912 100.51558,210.84518 100.88652,208.91903 z M 90.831906,203.46519 C 91.118486,202.60456 90.637656,202.24419 89.497636,202.46519 C 88.517376,202.65521 87.513726,203.41617 87.267306,204.15619 C 86.980726,205.01682 87.461556,205.37719 88.601576,205.15619 C 89.581836,204.96617 90.585486,204.20521 90.831906,203.46519 z"
       id="path2539" />
    <rect
       style="opacity:0;fill:#000000;fill-opacity:1;stroke:none;stroke-width:1.10000001999999997;stroke-linecap:round;stroke-linejoin:round;stroke-miterlimit:4;stroke-dasharray:none;stroke-opacity:1"
       id="rect3332"
       width="75.828125"
       height="94.666512"
       x="286.9126"
       y="229.91032"
       inkscape:export-filename="/home/mads/tothemario/Desktop/thearsmonsters images/monsters/Ubunto/Child.png"
       inkscape:export-xdpi="90"
       inkscape:export-ydpi="90" />
  </g>
  <g
     inkscape:groupmode="layer"
     id="layer2"
     inkscape:label="monstruo"
     style="display:inline">
    <g
       id="g3429"
       transform="translate(-3.0304576,-3.2829958)" />
    <g
       id="g3483"
       transform="translate(-103.21429,-0.7142857)"
       inkscape:export-filename="/home/mads/tothemario/Desktop/thearsmonsters images/monsters/Ubunto/Child.png"
       inkscape:export-xdpi="90"
       inkscape:export-ydpi="90">
      <g
         id="g3572">
        <g
           id="g3648"
           transform="translate(1.5152286,-0.2525382)">
          <g
             id="g3524"
             transform="translate(-0.7936189,0.2271568)" />
        </g>
        <g
           id="g4430"
           transform="translate(0.3571424,1.0714285)"
           style="opacity:1">
          <path
             style="opacity:0.29361704;fill:#000000;fill-opacity:1;fill-rule:evenodd;stroke:#000000;stroke-width:1px;stroke-linecap:butt;stroke-linejoin:miter;stroke-opacity:1;display:inline;filter:url(#filter5161)"
             d="M 397.44288,310.17427 C 396.43273,310.17427 391.38197,314.9725 391.38197,314.9725 L 397.69542,316.23519 L 411.58502,317.75042 L 419.4137,319.51818 L 436.33375,320.78087 L 448.70812,318.25549 L 443.9099,312.69965 L 446.94036,309.92173 L 439.11167,308.40651 L 397.44288,310.17427 z"
             id="path5127"
             transform="matrix(0.9606856,0,0,1.0015434,17.650254,-0.4855351)" />
          <path
             style="opacity:0.32340423;fill:#000000;fill-opacity:1;fill-rule:evenodd;stroke:#000000;stroke-width:1px;stroke-linecap:butt;stroke-linejoin:miter;stroke-opacity:1;filter:url(#filter5200)"
             d="M 297.32143,312.00504 C 297.32143,312.00504 295.49266,313.69197 296.07143,314.32647 C 297.29944,315.67275 302.14286,315.57647 302.14286,315.57647 L 313.21429,316.46933 L 320.35714,317.8979 C 320.52987,317.43729 337.14301,318.18596 340.17857,317.36218 C 341.06356,317.12202 340.53571,314.32647 340.53571,314.32647 L 321.42857,314.50504 L 312.32143,311.11218 L 297.32143,312.00504 z"
             id="path5166"
             transform="translate(102.85715,-0.3571428)"
             sodipodi:nodetypes="cscccscccc" />
          <g
             id="g3604"
             transform="translate(0.63134,-0.8838835)"
             style="opacity:1">
            <path
               style="fill:url(#radialGradient4465);fill-opacity:1;fill-rule:evenodd;stroke:none;stroke-width:1px;stroke-linecap:butt;stroke-linejoin:miter;stroke-opacity:1"
               d="M 402.79049,299.23609 L 398.50478,309.41466 C 397.40618,317.25539 407.76468,314.84503 415.11192,315.12895 C 425.37526,319.15819 432.24012,316.4581 438.68335,316.37895 C 445.12657,316.2998 439.57033,302.28969 438.32621,293.16466 L 402.79049,299.23609 z"
               id="path3512"
               sodipodi:nodetypes="ccczcc" />
            <path
               sodipodi:nodetypes="ccccccccsscssssscccsssscccsssccc"
               id="path3594"
               d="M 439.00446,292.48661 L 438.47321,292.58036 L 402.94196,298.64286 L 402.69196,298.70536 L 400.73606,299.64984 L 398.28571,309.14286 L 398.25446,309.20536 L 398.25446,309.26786 C 397.96531,311.33148 398.44929,313.05288 399.50446,314.05101 C 400.55963,315.04914 402.07968,315.305 403.81696,315.51786 C 407.27284,315.94129 411.68642,315.41756 415.28571,315.54911 C 415.30666,315.55724 415.32729,315.54104 415.34821,315.54911 C 425.64493,319.52276 432.67394,316.87611 438.94196,316.79911 C 439.83839,316.7881 440.60181,316.51172 441.16071,316.01786 C 441.71961,315.524 442.05506,314.84899 442.25446,314.04911 C 442.65326,312.44936 442.50333,310.34009 442.12946,307.98661 C 441.38172,303.27964 439.68019,297.51559 439.06696,293.01786 L 439.00446,292.48661 z M 436.58235,294.30546 C 437.26134,298.84557 440.42458,303.70573 441.12946,308.14286 C 441.49477,310.44243 441.6184,312.46455 441.28571,313.79911 C 441.11937,314.46639 440.83887,314.62908 440.47321,314.95219 C 440.10755,315.2753 439.6251,315.47467 438.91071,315.48344 C 432.33219,315.56425 425.46834,318.42786 416.73527,313.57021 L 415.85202,312.65507 L 414.49558,313.85463 C 410.75835,313.71021 407.20881,314.91812 403.94196,314.51786 C 402.30854,314.31773 401.89248,313.69704 401.08482,312.93304 C 400.28821,312.1795 399.01562,311.26652 399.25446,309.45536 C 399.25777,309.43022 400.38732,305.75648 400.39088,305.73106 L 403.37946,299.61161 L 436.58235,294.30546 z"
               style="opacity:1;fill:#000000;fill-opacity:1;fill-rule:evenodd;stroke:none;stroke-width:1px;stroke-linecap:butt;stroke-linejoin:miter;stroke-opacity:1" />
          </g>
          <path
             style="fill:url(#radialGradient4467);fill-opacity:1;fill-rule:evenodd;stroke:#000000;stroke-width:0.92609602000000002px;stroke-linecap:butt;stroke-linejoin:miter;stroke-opacity:1"
             d="M 406.48427,313.8563 C 405.84652,314.18888 405.06272,306.26679 407.63642,306.69955 C 409.85902,307.07327 411.88215,314.07878 411.09285,313.74948 C 409.15983,314.28175 407.73872,314.17333 406.48427,313.8563 z"
             id="path3610"
             sodipodi:nodetypes="cscc"
             transform="translate(1.51523,-0.2525382)" />
          <path
             style="fill:url(#radialGradient4469);fill-opacity:1;fill-rule:evenodd;stroke:#000000;stroke-width:1.04203427000000000px;stroke-linecap:butt;stroke-linejoin:miter;stroke-opacity:1"
             d="M 416.76141,314.75126 C 418.2255,311.20286 418.8406,306.97856 423.80376,306.21594 C 427.34829,306.24952 426.66223,311.84059 427.07343,315.99026 C 423.50799,316.69919 419.99524,316.9466 416.76141,314.75126 z"
             id="path3612"
             sodipodi:nodetypes="cccc"
             transform="translate(1.51523,-0.2525382)" />
          <path
             sodipodi:nodetypes="csssccccsssc"
             id="path4097"
             d="M 418.38189,303.16448 C 417.90062,303.37556 416.97047,304.00207 416.23531,304.55344 C 415.62756,305.00925 414.20769,305.05851 413.45739,305.05851 C 412.74767,305.05851 411.77363,305.56359 410.80574,305.56359 C 409.71283,305.56359 409.30177,305.43732 408.28036,305.43732 C 406.31247,306.16991 404.81451,307.10579 402.97706,305.9424 C 402.41093,305.65933 400.07287,305.57822 400.07287,305.05851 C 400.42386,302.66288 400.77212,303.39125 402.21945,302.15432 C 403.48787,301.83722 406.33124,302.53313 407.64902,302.53313 C 408.99589,302.53313 410.34276,302.53313 411.68963,302.53313 C 413.07859,302.53313 414.46755,302.53313 415.85651,302.53313 C 416.46039,302.53313 416.96803,302.52691 417.498,302.6594"
             style="opacity:0.40441176;fill:#000000;fill-opacity:1;fill-rule:evenodd;stroke:none;stroke-width:1px;stroke-linecap:butt;stroke-linejoin:miter;stroke-opacity:1;filter:url(#filter4275)" />
          <g
             id="g3452"
             transform="translate(31.008243,0.6889043)">
            <path
               style="fill:url(#radialGradient4471);fill-opacity:1.0;fill-rule:evenodd;stroke:none;stroke-width:1px;stroke-linecap:butt;stroke-linejoin:miter;stroke-opacity:1"
               d="M 410.10843,300.43597 C 405.37215,300.0532 396.52937,303.77694 389.39415,305.79311 C 375.34712,311.35977 361.38975,303.05553 371.89415,286.50739 C 370.8858,280.1419 372.02279,275.92174 372.96558,271.50739 C 371.41796,270.68789 369.87034,269.9103 368.32272,261.86454 C 370.89461,260.50021 366.73945,259.80858 381.537,257.22168 C 389.81605,255.04588 398.50769,254.02531 410.10843,261.15025 C 412.44405,269.3496 417.95374,269.21704 415.46558,290.07882 C 416.77395,295.85177 414.16022,298.68314 410.10843,300.43597 z"
               id="path3314"
               sodipodi:nodetypes="ccccccccc"
               transform="translate(-3.0304576,-3.2829958)" />
            <path
               style="opacity:1;fill:#000000;fill-opacity:1;fill-rule:evenodd;stroke:none;stroke-width:1px;stroke-linecap:butt;stroke-linejoin:miter;stroke-opacity:1"
               d="M 391.66769,255.15038 C 388.26786,255.26477 385.06406,255.89537 381.94894,256.71288 C 381.9392,256.71543 381.92743,256.71032 381.91769,256.71288 C 367.1383,259.29947 370.91617,260.17445 368.60519,261.40038 L 368.26144,261.58788 L 368.35519,261.93163 C 369.13429,265.98192 369.90454,268.26056 370.73019,269.65038 C 371.45197,270.86533 372.2143,271.35608 372.91769,271.74413 C 372.00437,275.97528 370.23414,279.67254 371.16769,285.83788 C 368.58235,289.96246 368.17796,294.17212 368.23019,297.27538 C 368.28316,300.42184 369.54084,302.99607 371.60519,304.80663 C 375.72827,308.42279 382.89698,309.06634 390.04269,306.24413 L 390.04269,306.27538 C 390.80402,305.91911 391.52043,305.34683 391.23019,305.14145 C 390.82233,304.85284 390.14476,305.35454 389.76144,305.30663 C 381.60751,305.21913 381.13483,308.66616 372.98019,303.52538 C 371.11238,301.88718 370.15385,298.22867 370.10519,295.33788 C 370.05652,292.44709 369.70358,292.47914 372.29269,288.40038 L 374.88644,285.18163 L 373.23019,281.61913 C 372.23629,275.34474 373.0026,276.01887 373.94894,271.58788 L 374.04269,271.24413 L 373.69894,271.05663 C 372.92202,270.64522 372.29591,270.33442 371.57394,269.11913 C 370.87325,267.93963 370.13236,265.79889 369.38644,262.02538 C 371.19722,260.74061 368.38454,260.11698 382.13644,257.71288 L 382.16769,257.71288 L 386.57394,257.05663 C 390.69045,255.97479 390.46211,255.82534 395.04269,256.18163 C 399.58955,256.53528 404.53968,258.02182 410.23019,261.49413 C 411.43314,265.51642 412.09065,267.06042 413.38644,270.49413 C 414.71045,274.00259 416.71914,279.60621 415.48019,289.99413 L 415.48019,290.08788 L 415.48019,290.18163 C 416.11463,292.98092 415.80821,294.96899 414.88644,296.49413 C 414.26122,297.52862 412.35408,298.76906 410.57394,299.33788 C 410.34599,299.65015 410.30706,300.38939 410.50698,300.56556 C 410.93298,300.94094 412.01129,300.47568 412.10519,300.49413 C 413.21383,299.6861 414.38546,298.58309 415.73019,297.02538 C 416.7802,295.28805 417.07124,293.00919 416.44894,290.11913 L 416.48019,290.11913 C 417.72941,279.64526 416.96665,274.37216 415.57394,270.68163 C 414.18124,266.99109 412.24443,264.9935 411.10519,260.99413 L 411.04269,260.80663 L 410.88644,260.71288 C 405.02956,257.11568 399.87163,255.58359 395.13644,255.21288 C 393.95542,255.12042 392.80097,255.11225 391.66769,255.15038 z"
               id="path3316"
               sodipodi:nodetypes="csccccsccssccsccsccccccsccccscscccscsccccscccsc"
               transform="translate(-3.0304576,-3.2829958)" />
            <path
               sodipodi:nodetypes="ccsc"
               id="path3439"
               d="M 370.70903,267.07375 C 375.16746,265.93694 376.90341,262.07765 378.56617,258.14518 C 372.06788,259.56136 366.18826,252.10801 366.06617,257.78803 C 365.9267,264.27681 370.8876,267.07375 370.70903,267.07375 z"
               style="fill:url(#linearGradient4473);fill-opacity:1;fill-rule:evenodd;stroke:#000000;stroke-width:1px;stroke-linecap:butt;stroke-linejoin:miter;stroke-opacity:1"
               transform="translate(-3.0304576,-3.2829958)" />
            <g
               style="opacity:0.48529436;fill:#000000;fill-opacity:1;filter:url(#filter4330)"
               id="g4279"
               transform="translate(124.75383,5.9346463)">
              <path
                 id="path4281"
                 d="M 262.52469,262.25079 C 262.0708,262.80331 261.63737,263.32561 261.11844,263.84454 C 260.90799,264.05499 260.67263,264.25908 260.46219,264.46954 C 260.05283,264.8789 259.25512,265.5087 259.08719,265.84454 C 258.9037,266.21153 257.75042,266.84786 257.68094,267.12579 C 257.47394,267.95378 255.81778,269.58863 254.93094,270.03204 C 253.67821,270.65841 252.9012,272.14535 251.64969,273.18829 C 249.7446,274.77586 248.11177,275.08635 245.83719,275.84454 C 245.08566,276.09505 244.26867,276.34516 243.43094,276.53204 C 243.77319,276.81776 244.18231,277.0767 244.61844,277.31329 C 247.29416,278.76485 251.76608,279.85152 255.89969,279.12579 C 260.0333,278.40004 263.9485,276.51211 265.83719,273.43829 C 265.98228,273.20216 265.78448,271.68584 265.80594,270.84454 C 265.8274,270.00322 265.61979,269.56273 265.36844,268.43829 C 264.89169,266.30558 264.25683,264.12649 262.52469,262.25079 z"
                 style="opacity:1;fill:#000000;fill-opacity:1;fill-rule:evenodd;stroke:none;stroke-width:1px;stroke-linecap:butt;stroke-linejoin:miter;stroke-opacity:1" />
            </g>
            <g
               transform="translate(69.953064,-1.0101525)"
               id="g3422">
              <path
                 style="opacity:1;fill:url(#radialGradient4475);fill-opacity:1;fill-rule:evenodd;stroke:none;stroke-width:1px;stroke-linecap:butt;stroke-linejoin:miter;stroke-opacity:1"
                 d="M 311.14816,266.10432 C 314.12414,266.01812 316.68365,265.4482 318.43379,267.18618 C 320.39091,269.12968 321.05407,271.41555 321.55679,273.66442 C 321.80815,274.78886 322.03096,275.23544 322.0095,276.07676 C 321.98804,276.91808 322.15786,278.42859 322.01277,278.66472 C 320.12408,281.73855 316.21551,283.646 312.0819,284.37175 C 307.94828,285.09749 303.47123,284.0118 300.79551,282.56024 C 294.84933,279.33449 297.92386,271.15691 301.95953,268.54792 C 304.74544,267.09741 307.90219,266.33529 311.14816,266.10432 z"
                 id="path3386" />
              <path
                 sodipodi:type="arc"
                 style="opacity:1;fill:#000000;fill-opacity:1;fill-rule:nonzero;stroke:none;stroke-width:0.82599998;stroke-linecap:round;stroke-linejoin:round;stroke-miterlimit:4;stroke-dasharray:none;stroke-dashoffset:0;stroke-opacity:1"
                 id="path3412"
                 sodipodi:cx="301.6568"
                 sodipodi:cy="276.75443"
                 sodipodi:rx="4.1668792"
                 sodipodi:ry="3.8512065"
                 d="M 305.82368,276.75443 A 4.1668792,3.8512065 0 1 1 297.48992,276.75443 A 4.1668792,3.8512065 0 1 1 305.82368,276.75443 z"
                 transform="translate(-6.3134502e-2,0.2525381)" />
              <path
                 style="opacity:1;fill:url(#linearGradient4477);fill-opacity:1;fill-rule:evenodd;stroke:none;stroke-width:1px;stroke-linecap:butt;stroke-linejoin:miter;stroke-opacity:1"
                 d="M 311.04266,265.19449 C 307.97417,265.28163 304.72506,266.71617 301.79266,268.69449 C 298.90098,270.61333 297.1514,272.74167 296.51141,274.97574 L 322.66766,274.97574 C 322.14699,272.64657 320.98856,270.00098 318.91766,267.94449 C 316.97874,266.01905 314.14449,265.1064 311.04266,265.19449 z"
                 id="path3361"
                 sodipodi:nodetypes="ccccsc" />
              <path
                 transform="matrix(0.1625682,0,0,0.2459016,249.72726,209.2367)"
                 d="M 305.82368,276.75443 A 4.1668792,3.8512065 0 1 1 297.48992,276.75443 A 4.1668792,3.8512065 0 1 1 305.82368,276.75443 z"
                 sodipodi:ry="3.8512065"
                 sodipodi:rx="4.1668792"
                 sodipodi:cy="276.75443"
                 sodipodi:cx="301.6568"
                 id="path4705"
                 style="opacity:0.56170211;fill:#ffffff;fill-opacity:1;fill-rule:nonzero;stroke:none;stroke-width:0.82599998;stroke-linecap:round;stroke-linejoin:round;stroke-miterlimit:4;stroke-dasharray:none;stroke-dashoffset:0;stroke-opacity:1;filter:url(#filter5123)"
                 sodipodi:type="arc" />
              <path
                 style="opacity:1;fill:none;fill-rule:evenodd;stroke:#000000;stroke-width:1.00435042px;stroke-linecap:butt;stroke-linejoin:miter;stroke-opacity:1"
                 d="M 297.68151,275.30453 C 308.44973,273.50508 312.39207,275.48933 321.66813,274.985"
                 id="path3376"
                 sodipodi:nodetypes="cc" />
              <path
                 sodipodi:nodetypes="cccsssssccsssssscc"
                 id="path3371"
                 d="M 310.85327,264.05806 C 307.78478,264.1452 304.5363,265.58355 301.6039,267.56187 C 294.50553,272.27216 294.22166,278.26746 300.60327,283.90181 C 303.508,285.4776 307.87959,285.88788 312.07202,285.15181 C 316.26445,284.41574 320.30287,282.48882 322.35327,279.15181 C 322.67679,278.6253 322.79875,277.90795 322.82202,276.99556 C 322.84529,276.08317 322.7386,275.0039 322.47827,273.83931 C 321.9576,271.51014 320.79917,268.86455 318.72827,266.80806 C 316.78935,264.88262 313.9551,263.96997 310.85327,264.05806 z M 310.97954,266.47827 C 313.86386,266.39473 316.34454,265.84236 318.04077,267.52681 C 319.93761,269.41045 320.58035,271.62591 321.06758,273.80552 C 321.3112,274.89533 321.52715,275.32815 321.50635,276.14356 C 321.48555,276.95897 321.65014,278.42295 321.50952,278.65181 C 319.679,281.63097 315.89082,283.47967 311.88452,284.18306 C 307.87822,284.88645 303.53906,283.8342 300.94575,282.42735 C 295.18272,279.30095 298.16255,271.37524 302.07392,268.84661 C 304.77402,267.44077 307.83355,266.70213 310.97954,266.47827 z"
                 style="opacity:1;fill:#000000;fill-opacity:1;fill-rule:evenodd;stroke:none;stroke-width:1px;stroke-linecap:butt;stroke-linejoin:miter;stroke-opacity:1" />
            </g>
          </g>
          <g
             id="g3501"
             transform="translate(104.11447,1.0460472)">
            <path
               id="path4334"
               d="M 303.68148,253.29785 C 313.35209,258.07103 315.29469,258.80387 335.74583,262.52524 C 335.67374,262.18922 335.63955,261.8421 335.67046,261.42296 C 335.74928,260.35443 335.82842,259.28146 335.90723,258.21293 C 335.92146,258.02003 335.91125,257.79585 335.92204,257.58732 C 335.33186,257.23862 334.77612,256.86641 334.25034,256.4613 L 303.68148,253.29785 z"
               style="opacity:0.73161765;fill:#000000;fill-opacity:1;fill-rule:evenodd;stroke:none;stroke-width:1px;stroke-linecap:butt;stroke-linejoin:miter;stroke-opacity:1;filter:url(#filter4399)" />
            <path
               sodipodi:nodetypes="cccc"
               id="path3499"
               d="M 304.64286,252.49743 C 317.58276,257.73898 316.14719,257.03532 360.71429,261.78314 C 360.46392,256.91916 343.92669,259.03998 335.35714,253.39029 L 304.64286,252.49743 z"
               style="fill:#5b3f2c;fill-opacity:1;fill-rule:evenodd;stroke:#000000;stroke-width:1px;stroke-linecap:butt;stroke-linejoin:miter;stroke-opacity:1" />
            <path
               style="opacity:1;fill:url(#linearGradient4479);fill-opacity:1;fill-rule:evenodd;stroke:#000000;stroke-width:1px;stroke-linecap:butt;stroke-linejoin:miter;stroke-opacity:1"
               d="M 305,253.43361 C 309.52275,256.79599 317.93531,259.28002 337.14286,259.32647 C 335.33234,252.56263 342.77802,246.74815 324.10714,238.25504 C 306.27629,238.48854 305.06437,245.71949 305,253.43361 z"
               id="path3463"
               sodipodi:nodetypes="cccc" />
            <path
               style="fill:#8ea0c8;fill-opacity:1;fill-rule:evenodd;stroke:#000000;stroke-width:1px;stroke-linecap:butt;stroke-linejoin:miter;stroke-opacity:1"
               d="M 310.0523,255.47186 C 310.66092,243.62632 315.5906,241.17492 323.62373,238.86472 C 322.11325,243.32136 320.33889,246.98641 321.12373,258.32901 C 316.83619,257.76626 313.41312,257.42468 310.0523,255.47186 z"
               id="path3473"
               sodipodi:nodetypes="cccc" />
            <path
               style="fill:#e53d22;fill-opacity:1;fill-rule:evenodd;stroke:#000000;stroke-width:1px;stroke-linecap:butt;stroke-linejoin:miter;stroke-opacity:1"
               d="M 323.75,238.96932 C 333.70426,245.01424 330.72324,252.42076 332.5,259.32647 C 324.36681,258.63585 321.80387,258.29338 321.25,258.07647 C 320.62144,250.73283 321.52174,244.40842 323.75,238.96932 z"
               id="path3475"
               sodipodi:nodetypes="cccc" />
            <path
               style="fill:url(#linearGradient5210);fill-opacity:1;fill-rule:evenodd;stroke:#000000;stroke-width:1px;stroke-linecap:butt;stroke-linejoin:miter;stroke-opacity:1"
               d="M 323.72663,237.0107 C 311.67769,221.73854 300.1161,233.65922 323.72663,237.0107 z"
               id="path3479"
               sodipodi:nodetypes="cc" />
            <path
               sodipodi:nodetypes="cc"
               id="path3481"
               d="M 324.30005,237.13261 C 345.66321,242.28205 343.6756,226.18851 324.30005,237.13261 z"
               style="fill:url(#linearGradient5220);fill-opacity:1;fill-rule:evenodd;stroke:#000000;stroke-width:1px;stroke-linecap:butt;stroke-linejoin:miter;stroke-opacity:1" />
            <path
               sodipodi:type="arc"
               style="opacity:1;fill:#70544e;fill-opacity:1;fill-rule:nonzero;stroke:#000000;stroke-width:0.82599998;stroke-linecap:round;stroke-linejoin:round;stroke-miterlimit:4;stroke-dasharray:none;stroke-dashoffset:0;stroke-opacity:1"
               id="path3477"
               sodipodi:cx="323.92856"
               sodipodi:cy="238.16576"
               sodipodi:rx="1.9642857"
               sodipodi:ry="1.875"
               d="M 325.89284,238.16576 A 1.9642857,1.875 0 1 1 321.96427,238.16576 A 1.9642857,1.875 0 1 1 325.89284,238.16576 z" />
            <path
               sodipodi:type="arc"
               style="opacity:0.38723402000000001;fill:#ffffff;fill-opacity:1;fill-rule:nonzero;stroke:none;stroke-width:0.80000000999999998;stroke-linecap:round;stroke-linejoin:round;stroke-miterlimit:4;stroke-dasharray:none;stroke-dashoffset:0;stroke-opacity:1;filter:url(#filter5636)"
               id="path5222"
               sodipodi:cx="324.91071"
               sodipodi:cy="238.88004"
               sodipodi:rx="0.71428573"
               sodipodi:ry="0.8035714"
               d="M 325.62499,238.88004 A 0.71428573,0.8035714 0 1 1 324.19642,238.88004 A 0.71428573,0.8035714 0 1 1 325.62499,238.88004 z"
               transform="matrix(0.7777778,0,0,0.7777778,71.054186,52.216979)" />
          </g>
          <path
             transform="matrix(0.9166333,-0.2452069,0.2534131,0.8869505,56.108283,114.21258)"
             d="M 329.81481,298.72525 A 8.0180855,1.0732871 0 1 1 313.77864,298.72525 A 8.0180855,1.0732871 0 1 1 329.81481,298.72525 z"
             sodipodi:ry="1.0732871"
             sodipodi:rx="8.0180855"
             sodipodi:cy="298.72525"
             sodipodi:cx="321.79672"
             id="path3780"
             style="opacity:1;fill:#8e7e51;fill-opacity:1;fill-rule:nonzero;stroke:none;stroke-width:0.82599997999999986;stroke-linecap:round;stroke-linejoin:round;stroke-miterlimit:4;stroke-dasharray:none;stroke-dashoffset:0;stroke-opacity:1;filter:url(#filter3328)"
             sodipodi:type="arc" />
          <g
             style="fill:#000000;fill-opacity:1"
             id="g3938"
             transform="translate(42.931483,11.616754)">
            <path
               id="path3940"
               d="M 388.69413,279.02614 L 387.69413,281.83864 C 389.07851,282.98668 384.73874,285.44843 392.50663,290.18239 C 394.33037,290.04031 396.24869,290.28226 398.78788,289.96364 C 398.75311,289.93741 398.73046,289.92839 398.69413,289.90114 C 398.00977,289.38788 398.04196,288.69823 397.53788,288.02614 C 397.27237,287.67213 396.70268,286.26477 396.41288,286.11989 C 395.5607,285.6938 394.95111,284.78313 394.25663,284.08864 C 393.89719,283.72921 393.16932,282.96064 392.50663,282.46364 C 392.13429,282.18438 391.19884,281.16912 390.97538,281.05739 C 390.50693,280.82316 389.63999,280.23519 389.22538,279.68239 C 389.06336,279.46636 388.87792,279.24908 388.69413,279.02614 z"
               style="opacity:0.53308835;fill:#000000;fill-opacity:1;fill-rule:evenodd;stroke:none;stroke-width:1px;stroke-linecap:round;stroke-linejoin:round;stroke-opacity:1;filter:url(#filter4039)" />
          </g>
          <g
             transform="translate(13.258252,8.7125657)"
             id="g3774">
            <path
               sodipodi:nodetypes="cccccc"
               id="path3692"
               d="M 459.7693,254.43576 C 465.94253,261.70523 464.8005,270.54226 464.56752,279.1845 L 464.82006,273.12358 C 466.887,274.86728 471.91526,281.88289 466.94497,288.27587 C 461.24281,290.70792 457.95047,289.81153 454.97108,290.04364 C 447.20318,285.30968 451.55723,282.85792 450.17285,281.70988"
               style="opacity:1;fill:url(#radialGradient4481);fill-opacity:1.0;fill-rule:evenodd;stroke:none;stroke-width:1px;stroke-linecap:round;stroke-linejoin:round;stroke-opacity:1;filter:url(#filter3750)"
               mask="url(#mask4528)"
               transform="translate(-32.321429,1.0714286)" />
            <path
               style="fill:#000000;fill-opacity:1;fill-rule:evenodd;stroke:none;stroke-width:1px;stroke-linecap:round;stroke-linejoin:round;stroke-opacity:1"
               d="M 427.04236,255.07344 C 426.88017,255.12504 426.75536,255.2556 426.71111,255.41995 C 426.66686,255.58431 426.70925,255.75988 426.82361,255.88594 C 432.4013,264.76553 432.01289,269.56156 431.15397,279.04219 C 431.14534,279.31833 431.71934,280.79919 431.99549,280.80781 C 432.27163,280.81644 432.50248,280.59958 432.51111,280.32344 L 433.4129,275.98862 C 434.36044,277.038 434.80687,278.14407 435.47986,280.22969 C 436.32718,282.85557 436.33083,285.95551 434.04236,288.97969 C 428.63443,291.25123 426.01352,290.02536 422.98879,290.22076 C 421.19183,289.1058 419.61121,288.54683 418.97986,287.72969 C 418.32717,286.88492 418.12866,286.21392 418.10486,285.63594 C 418.08106,285.05796 418.22338,284.57956 418.32361,284.07344 C 418.37373,283.82038 418.43018,283.54773 418.38611,283.26094 C 418.34204,282.97415 418.17363,282.66096 417.91736,282.44844 C 417.70162,282.27585 417.38682,282.31083 417.21423,282.52657 C 417.04165,282.7423 417.07662,283.0571 417.29236,283.22969 C 417.38219,283.30418 417.37297,283.33167 417.38611,283.41719 C 417.39925,283.50271 417.39688,283.64249 417.35486,283.85469 C 417.27081,284.27909 417.07314,284.92823 417.10486,285.69844 C 417.13658,286.46865 417.40845,287.37245 418.16736,288.35469 C 418.92627,289.33693 420.16003,290.40042 422.13611,291.60469 C 422.23067,291.65905 422.34041,291.681 422.44861,291.66719 C 425.30018,291.44504 428.76679,292.33137 434.57361,289.85469 C 434.64481,289.82783 434.70893,289.78508 434.76111,289.72969 C 437.3508,286.39873 437.34721,282.83008 436.41736,279.94844 C 435.5213,277.17152 433.86619,275.05155 432.72986,274.04219 C 432.87732,267.44736 432.36849,260.87605 427.57361,255.22969 C 427.44416,255.07536 427.23475,255.01377 427.04236,255.07344 z"
               id="path3690"
               sodipodi:nodetypes="csccsccsccsssssssssssscccscsc" />
          </g>
        </g>
        <path
           style="fill:#000000;fill-opacity:1;fill-rule:evenodd;stroke:none;stroke-width:1px;stroke-linecap:round;stroke-linejoin:round;stroke-opacity:1"
           d="M 402.74554,288.12054 C 402.52437,288.17726 402.36971,288.37658 402.36971,288.60491 C 402.36971,288.83324 402.52437,289.03257 402.74554,289.08929 C 403.22028,289.20798 403.51435,289.82747 404.19643,289.82143 C 404.87851,289.81539 405.92515,289.61633 406.35268,289.72322 C 406.98186,289.88051 407.1626,289.88135 407.68304,290.40179 C 407.88152,290.60026 408.20331,290.60026 408.40179,290.40179 C 408.60027,290.20331 408.60027,289.88151 408.40179,289.68304 C 408.01453,289.29578 407.56507,288.55979 406.55804,288.30804 C 405.92544,288.14989 405.16189,288.14561 404.46429,288.15179 C 403.76669,288.15797 403.05358,288.14286 402.96429,288.12054 C 402.89227,288.10439 402.81756,288.10439 402.74554,288.12054 z"
           id="path4485"
           sodipodi:nodetypes="cssssssssssc" />
      </g>
    </g>
  </g>
</svg>
