<?xml version="1.0" encoding="UTF-8" standalone="no"?>
<!-- Created with Inkscape (http://www.inkscape.org/) -->
<svg
   xmlns:dc="http://purl.org/dc/elements/1.1/"
   xmlns:cc="http://creativecommons.org/ns#"
   xmlns:rdf="http://www.w3.org/1999/02/22-rdf-syntax-ns#"
   xmlns:svg="http://www.w3.org/2000/svg"
   xmlns="http://www.w3.org/2000/svg"
   xmlns:xlink="http://www.w3.org/1999/xlink"
   xmlns:sodipodi="http://sodipodi.sourceforge.net/DTD/sodipodi-0.dtd"
   xmlns:inkscape="http://www.inkscape.org/namespaces/inkscape"
   width="210mm"
   height="297mm"
   id="svg2"
   sodipodi:version="0.32"
   inkscape:version="0.46"
   sodipodi:docname="incubatedEggs1.svg"
   inkscape:output_extension="org.inkscape.output.svg.inkscape"
   inkscape:export-filename="/home/mads/tothemario/Desktop/incubatedEggs0.png"
   inkscape:export-xdpi="90"
   inkscape:export-ydpi="90">
  <sodipodi:namedview
     id="base"
     pagecolor="#ffffff"
     bordercolor="#666666"
     borderopacity="1.0"
     inkscape:pageopacity="0.0"
     inkscape:pageshadow="2"
     inkscape:zoom="0.98994949"
     inkscape:cx="261.52924"
     inkscape:cy="840.80399"
     inkscape:document-units="px"
     inkscape:current-layer="layer3"
     showgrid="false"
     inkscape:window-width="1354"
     inkscape:window-height="972"
     inkscape:window-x="318"
     inkscape:window-y="0" />
  <defs
     id="defs4">
    <linearGradient
       inkscape:collect="always"
       id="linearGradient3581">
      <stop
         style="stop-color:#000000;stop-opacity:1;"
         offset="0"
         id="stop3583" />
      <stop
         style="stop-color:#000000;stop-opacity:0;"
         offset="1"
         id="stop3585" />
    </linearGradient>
    <linearGradient
       id="linearGradient6037">
      <stop
         id="stop6039"
         offset="0"
         style="stop-color:#fbf9e7;stop-opacity:1;" />
      <stop
         id="stop6041"
         offset="1"
         style="stop-color:#f9f6a9;stop-opacity:1;" />
    </linearGradient>
    <linearGradient
       id="linearGradient3482">
      <stop
         style="stop-color:#a3946d;stop-opacity:1;"
         offset="0"
         id="stop3484" />
      <stop
         style="stop-color:#7f7149;stop-opacity:1;"
         offset="1"
         id="stop3486" />
    </linearGradient>
    <linearGradient
       id="linearGradient3433">
      <stop
         style="stop-color:#82d095;stop-opacity:1;"
         offset="0"
         id="stop3435" />
      <stop
         style="stop-color:#366934;stop-opacity:1;"
         offset="1"
         id="stop3437" />
    </linearGradient>
    <linearGradient
       id="linearGradient3423">
      <stop
         style="stop-color:#f8fdfc;stop-opacity:1;"
         offset="0"
         id="stop3425" />
      <stop
         style="stop-color:#e3e6e9;stop-opacity:1;"
         offset="1"
         id="stop3427" />
    </linearGradient>
    <inkscape:perspective
       sodipodi:type="inkscape:persp3d"
       inkscape:vp_x="0 : 526.18109 : 1"
       inkscape:vp_y="0 : 1000 : 0"
       inkscape:vp_z="744.09448 : 526.18109 : 1"
       inkscape:persp3d-origin="372.04724 : 350.78739 : 1"
       id="perspective10" />
    <filter
       inkscape:collect="always"
       id="filter3574">
      <feGaussianBlur
         inkscape:collect="always"
         stdDeviation="0.70543528"
         id="feGaussianBlur3576" />
    </filter>
    <filter
       inkscape:collect="always"
       id="filter3578">
      <feGaussianBlur
         inkscape:collect="always"
         stdDeviation="0.70783483"
         id="feGaussianBlur3580" />
    </filter>
    <filter
       inkscape:collect="always"
       id="filter3728">
      <feGaussianBlur
         inkscape:collect="always"
         stdDeviation="1.8284853"
         id="feGaussianBlur3730" />
    </filter>
    <filter
       inkscape:collect="always"
       id="filter4141">
      <feGaussianBlur
         inkscape:collect="always"
         stdDeviation="0.9444546"
         id="feGaussianBlur4143" />
    </filter>
    <filter
       inkscape:collect="always"
       id="filter4413"
       x="-0.072826098"
       width="1.1456522"
       y="-0.12234779"
       height="1.2446956">
      <feGaussianBlur
         inkscape:collect="always"
         stdDeviation="0.64369774"
         id="feGaussianBlur4415" />
    </filter>
    <filter
       inkscape:collect="always"
       id="filter5271"
       x="-0.22810248"
       width="1.456205"
       y="-0.19969832"
       height="1.3993966">
      <feGaussianBlur
         inkscape:collect="always"
         stdDeviation="0.81821249"
         id="feGaussianBlur5273" />
    </filter>
    <filter
       inkscape:collect="always"
       id="filter5275"
       x="-1.96371"
       width="4.9274199"
       y="-1.96371"
       height="4.9274199">
      <feGaussianBlur
         inkscape:collect="always"
         stdDeviation="0.81821249"
         id="feGaussianBlur5277" />
    </filter>
    <filter
       inkscape:collect="always"
       id="filter5279"
       x="-0.194593"
       width="1.389186"
       y="-0.72502137"
       height="2.4500427">
      <feGaussianBlur
         inkscape:collect="always"
         stdDeviation="0.81821249"
         id="feGaussianBlur5281" />
    </filter>
    <filter
       inkscape:collect="always"
       id="filter5283"
       x="-0.97689237"
       width="2.9537847"
       y="-0.37328606"
       height="1.7465721">
      <feGaussianBlur
         inkscape:collect="always"
         stdDeviation="0.81821249"
         id="feGaussianBlur5285" />
    </filter>
    <filter
       inkscape:collect="always"
       id="filter5287"
       x="-1.96371"
       width="4.9274199"
       y="-1.96371"
       height="4.9274199">
      <feGaussianBlur
         inkscape:collect="always"
         stdDeviation="0.81821249"
         id="feGaussianBlur5289" />
    </filter>
    <filter
       inkscape:collect="always"
       id="filter5291"
       x="-0.3638949"
       width="1.7277898"
       y="-0.14413901"
       height="1.288278">
      <feGaussianBlur
         inkscape:collect="always"
         stdDeviation="0.81821249"
         id="feGaussianBlur5293" />
    </filter>
    <filter
       inkscape:collect="always"
       id="filter5295"
       x="-0.3540966"
       width="1.7081932"
       y="-1.0166381"
       height="3.0332761">
      <feGaussianBlur
         inkscape:collect="always"
         stdDeviation="0.81821249"
         id="feGaussianBlur5297" />
    </filter>
    <filter
       inkscape:collect="always"
       id="filter5299"
       x="-0.43296057"
       width="1.8659211"
       y="-0.86458067"
       height="2.7291613">
      <feGaussianBlur
         inkscape:collect="always"
         stdDeviation="0.81821249"
         id="feGaussianBlur5301" />
    </filter>
    <filter
       inkscape:collect="always"
       id="filter5303"
       x="-0.32453885"
       width="1.6490777"
       y="-0.45057705"
       height="1.9011541">
      <feGaussianBlur
         inkscape:collect="always"
         stdDeviation="0.81821249"
         id="feGaussianBlur5305" />
    </filter>
    <filter
       inkscape:collect="always"
       id="filter5307"
       x="-0.43296057"
       width="1.8659211"
       y="-1.0877882"
       height="3.1755765">
      <feGaussianBlur
         inkscape:collect="always"
         stdDeviation="0.81821249"
         id="feGaussianBlur5309" />
    </filter>
    <filter
       inkscape:collect="always"
       id="filter5311"
       x="-0.16213357"
       width="1.3242671"
       y="-0.17649114"
       height="1.3529823">
      <feGaussianBlur
         inkscape:collect="always"
         stdDeviation="0.81821249"
         id="feGaussianBlur5313" />
    </filter>
    <filter
       inkscape:collect="always"
       id="filter5315"
       x="-0.18027885"
       width="1.3605577"
       y="-0.057192593"
       height="1.1143852">
      <feGaussianBlur
         inkscape:collect="always"
         stdDeviation="0.81821249"
         id="feGaussianBlur5317" />
    </filter>
    <filter
       inkscape:collect="always"
       id="filter5319"
       x="-0.22932182"
       width="1.4586436"
       y="-0.075606391"
       height="1.1512128">
      <feGaussianBlur
         inkscape:collect="always"
         stdDeviation="0.81821249"
         id="feGaussianBlur5321" />
    </filter>
    <filter
       inkscape:collect="always"
       id="filter5323"
       x="-0.17851006"
       width="1.3570201"
       y="-0.48683696"
       height="1.9736739">
      <feGaussianBlur
         inkscape:collect="always"
         stdDeviation="0.81821249"
         id="feGaussianBlur5325" />
    </filter>
    <filter
       inkscape:collect="always"
       id="filter5327"
       x="-0.13416014"
       width="1.2683203"
       y="-0.26541207"
       height="1.5308241">
      <feGaussianBlur
         inkscape:collect="always"
         stdDeviation="0.81821249"
         id="feGaussianBlur5329" />
    </filter>
    <filter
       inkscape:collect="always"
       id="filter5331"
       x="-0.15564309"
       width="1.3112862"
       y="-0.11713582"
       height="1.2342716">
      <feGaussianBlur
         inkscape:collect="always"
         stdDeviation="0.81821249"
         id="feGaussianBlur5333" />
    </filter>
    <filter
       inkscape:collect="always"
       id="filter5335"
       x="-0.14965214"
       width="1.2993043"
       y="-0.063757852"
       height="1.1275157">
      <feGaussianBlur
         inkscape:collect="always"
         stdDeviation="0.81821249"
         id="feGaussianBlur5337" />
    </filter>
    <filter
       inkscape:collect="always"
       id="filter5429">
      <feGaussianBlur
         inkscape:collect="always"
         stdDeviation="2.0841842"
         id="feGaussianBlur5431" />
    </filter>
    <filter
       inkscape:collect="always"
       id="filter5531"
       x="-0.20420898"
       width="1.408418"
       y="-0.18799737"
       height="1.3759947">
      <feGaussianBlur
         inkscape:collect="always"
         stdDeviation="1.6622367"
         id="feGaussianBlur5533" />
    </filter>
    <radialGradient
       inkscape:collect="always"
       xlink:href="#linearGradient3423"
       id="radialGradient5610"
       gradientUnits="userSpaceOnUse"
       gradientTransform="matrix(0.3767926,-1.9698045e-2,3.1143738e-2,0.5957319,41.707027,-250.45616)"
       cx="380.27234"
       cy="268.43222"
       fx="380.27234"
       fy="268.43222"
       r="100.858" />
    <radialGradient
       inkscape:collect="always"
       xlink:href="#linearGradient3423"
       id="radialGradient5734"
       gradientUnits="userSpaceOnUse"
       gradientTransform="matrix(0.3590311,0.1160057,-0.1834121,0.5676499,329.313,-304.89344)"
       cx="380.27234"
       cy="268.43222"
       fx="380.27234"
       fy="268.43222"
       r="100.858" />
    <radialGradient
       inkscape:collect="always"
       xlink:href="#linearGradient3433"
       id="radialGradient5736"
       gradientUnits="userSpaceOnUse"
       gradientTransform="matrix(0.6315921,0.3715461,-0.4453028,0.7569707,299.17655,-443.45644)"
       cx="354.69153"
       cy="257.30179"
       fx="354.69153"
       fy="257.30179"
       r="100.858" />
    <radialGradient
       inkscape:collect="always"
       xlink:href="#linearGradient3423"
       id="radialGradient5746"
       gradientUnits="userSpaceOnUse"
       gradientTransform="matrix(0.3767926,-1.9698045e-2,3.1143738e-2,0.5957319,41.707027,-250.45616)"
       cx="380.27234"
       cy="268.43222"
       fx="380.27234"
       fy="268.43222"
       r="100.858" />
    <filter
       inkscape:collect="always"
       id="filter5923"
       x="-0.22366598"
       width="1.447332"
       y="-0.16712367"
       height="1.3342473">
      <feGaussianBlur
         inkscape:collect="always"
         stdDeviation="4.7609974"
         id="feGaussianBlur5925" />
    </filter>
    <radialGradient
       inkscape:collect="always"
       xlink:href="#linearGradient3423"
       id="radialGradient5935"
       gradientUnits="userSpaceOnUse"
       gradientTransform="matrix(0.3767926,-1.9698045e-2,3.1143738e-2,0.5957319,8.8770693,-225.70742)"
       cx="380.27234"
       cy="268.43222"
       fx="380.27234"
       fy="268.43222"
       r="100.858" />
    <inkscape:perspective
       id="perspective6001"
       inkscape:persp3d-origin="372.04724 : 350.78739 : 1"
       inkscape:vp_z="744.09448 : 526.18109 : 1"
       inkscape:vp_y="0 : 1000 : 0"
       inkscape:vp_x="0 : 526.18109 : 1"
       sodipodi:type="inkscape:persp3d" />
    <radialGradient
       inkscape:collect="always"
       xlink:href="#linearGradient6037"
       id="radialGradient6017"
       gradientUnits="userSpaceOnUse"
       gradientTransform="matrix(0.3767926,-1.9698045e-2,3.1143738e-2,0.5957319,-105.43583,-224.02759)"
       cx="380.27234"
       cy="268.43222"
       fx="380.27234"
       fy="268.43222"
       r="100.858" />
    <radialGradient
       inkscape:collect="always"
       xlink:href="#linearGradient3423"
       id="radialGradient6021"
       gradientUnits="userSpaceOnUse"
       gradientTransform="matrix(0.3767926,-1.9698045e-2,3.1143738e-2,0.5957319,513.03408,-574.53732)"
       cx="380.27234"
       cy="268.43222"
       fx="380.27234"
       fy="268.43222"
       r="100.858" />
    <radialGradient
       inkscape:collect="always"
       xlink:href="#linearGradient3423"
       id="radialGradient6033"
       gradientUnits="userSpaceOnUse"
       gradientTransform="matrix(0.3767926,-1.9698045e-2,3.1143738e-2,0.5957319,41.707027,-250.45616)"
       cx="380.27234"
       cy="268.43222"
       fx="380.27234"
       fy="268.43222"
       r="100.858" />
    <filter
       inkscape:collect="always"
       id="filter6051">
      <feGaussianBlur
         inkscape:collect="always"
         stdDeviation="1.1206817"
         id="feGaussianBlur6053" />
    </filter>
    <filter
       inkscape:collect="always"
       id="filter6153"
       x="-0.26887996"
       width="1.5377599"
       y="-0.22473548"
       height="1.449471">
      <feGaussianBlur
         inkscape:collect="always"
         stdDeviation="2.2406663"
         id="feGaussianBlur6155" />
    </filter>
    <inkscape:perspective
       id="perspective2616"
       inkscape:persp3d-origin="372.04724 : 350.78739 : 1"
       inkscape:vp_z="744.09448 : 526.18109 : 1"
       inkscape:vp_y="0 : 1000 : 0"
       inkscape:vp_x="0 : 526.18109 : 1"
       sodipodi:type="inkscape:persp3d" />
    <linearGradient
       inkscape:collect="always"
       xlink:href="#linearGradient3433"
       id="linearGradient3400"
       gradientUnits="userSpaceOnUse"
       gradientTransform="translate(-98.277219,130.47535)"
       x1="394.49109"
       y1="194.95541"
       x2="408.51785"
       y2="259.24112" />
    <linearGradient
       inkscape:collect="always"
       xlink:href="#linearGradient3433"
       id="linearGradient3402"
       gradientUnits="userSpaceOnUse"
       gradientTransform="translate(-98.277219,130.47535)"
       x1="213.19397"
       y1="198.49326"
       x2="221.92857"
       y2="288.57648" />
    <radialGradient
       inkscape:collect="always"
       xlink:href="#linearGradient3433"
       id="radialGradient3404"
       gradientUnits="userSpaceOnUse"
       gradientTransform="matrix(-1.8151967,3.1005418e-3,-1.370725e-3,-0.8024666,891.53701,390.42435)"
       cx="365.59406"
       cy="90.643463"
       fx="365.59406"
       fy="90.643463"
       r="123.82349" />
    <linearGradient
       inkscape:collect="always"
       xlink:href="#linearGradient3433"
       id="linearGradient3424"
       x1="299.76505"
       y1="316.36218"
       x2="289.57144"
       y2="397.64789"
       gradientUnits="userSpaceOnUse" />
    <linearGradient
       inkscape:collect="always"
       xlink:href="#linearGradient3482"
       id="linearGradient3498"
       gradientUnits="userSpaceOnUse"
       gradientTransform="translate(25.2744,8.6681088)"
       x1="298.02509"
       y1="173.02438"
       x2="332.83005"
       y2="173.02438" />
    <radialGradient
       inkscape:collect="always"
       xlink:href="#linearGradient3482"
       id="radialGradient3500"
       gradientUnits="userSpaceOnUse"
       gradientTransform="matrix(1.755597,-0.1391026,0.1218274,1.537569,-218.35375,84.381054)"
       cx="296.23914"
       cy="-22.307163"
       fx="296.23914"
       fy="-22.307163"
       r="91.913727" />
    <radialGradient
       inkscape:collect="always"
       xlink:href="#linearGradient3423"
       id="radialGradient3502"
       gradientUnits="userSpaceOnUse"
       gradientTransform="matrix(0.2360862,-1.1271028e-2,1.9513673e-2,0.340872,240.38529,-47.715607)"
       cx="380.27234"
       cy="268.43222"
       fx="380.27234"
       fy="268.43222"
       r="100.858" />
    <filter
       inkscape:collect="always"
       id="filter3567"
       x="-0.12668894"
       width="1.2533779"
       y="-0.082599226"
       height="1.1651985">
      <feGaussianBlur
         inkscape:collect="always"
         stdDeviation="1.8251479"
         id="feGaussianBlur3569" />
    </filter>
    <linearGradient
       inkscape:collect="always"
       xlink:href="#linearGradient3581"
       id="linearGradient3587"
       x1="220.71428"
       y1="366.29074"
       x2="167.5"
       y2="363.43362"
       gradientUnits="userSpaceOnUse" />
    <filter
       inkscape:collect="always"
       id="filter3645"
       x="-0.02465922"
       width="1.0493184"
       y="-0.18358"
       height="1.36716">
      <feGaussianBlur
         inkscape:collect="always"
         stdDeviation="1.6182613"
         id="feGaussianBlur3647" />
    </filter>
    <filter
       inkscape:collect="always"
       id="filter3677"
       x="-0.030944156"
       width="1.0618883"
       y="-0.10524209"
       height="1.2104842">
      <feGaussianBlur
         inkscape:collect="always"
         stdDeviation="1.1134467"
         id="feGaussianBlur3679" />
    </filter>
    <filter
       inkscape:collect="always"
       id="filter3861"
       x="-0.011236522"
       width="1.022473"
       y="-0.33283531"
       height="1.6656706">
      <feGaussianBlur
         inkscape:collect="always"
         stdDeviation="1.9811633"
         id="feGaussianBlur3863" />
    </filter>
    <filter
       inkscape:collect="always"
       id="filter3947"
       x="-0.19298427"
       width="1.3859685"
       y="-0.10355247"
       height="1.2071049">
      <feGaussianBlur
         inkscape:collect="always"
         stdDeviation="1.2635869"
         id="feGaussianBlur3949" />
    </filter>
    <radialGradient
       inkscape:collect="always"
       xlink:href="#linearGradient3423"
       id="radialGradient3986"
       gradientUnits="userSpaceOnUse"
       gradientTransform="matrix(0.3767926,-1.9698045e-2,3.1143738e-2,0.5957319,41.707027,-250.45616)"
       cx="380.27234"
       cy="268.43222"
       fx="380.27234"
       fy="268.43222"
       r="100.858" />
    <radialGradient
       inkscape:collect="always"
       xlink:href="#linearGradient3423"
       id="radialGradient4024"
       gradientUnits="userSpaceOnUse"
       gradientTransform="matrix(0.3767926,-1.9698045e-2,3.1143738e-2,0.5957319,-90.983212,-212.55367)"
       cx="380.27234"
       cy="268.43222"
       fx="380.27234"
       fy="268.43222"
       r="100.858" />
    <filter
       inkscape:collect="always"
       id="filter4052">
      <feGaussianBlur
         inkscape:collect="always"
         stdDeviation="2.5000692"
         id="feGaussianBlur4054" />
    </filter>
  </defs>
  <metadata
     id="metadata7">
    <rdf:RDF>
      <cc:Work
         rdf:about="">
        <dc:format>image/svg+xml</dc:format>
        <dc:type
           rdf:resource="http://purl.org/dc/dcmitype/StillImage" />
      </cc:Work>
    </rdf:RDF>
  </metadata>
  <g
     inkscape:groupmode="layer"
     id="layer2"
     inkscape:label="plantilla"
     sodipodi:insensitive="true"
     style="display:none">
    <image
       y="118.86217"
       x="-17.214285"
       id="image2618"
       height="287"
       width="783"
       sodipodi:absref="/home/mads/tothemario/Desktop/instantánea3.png"
       xlink:href="instantánea3.png"
       style="opacity:0.51102941" />
  </g>
  <g
     inkscape:label="tent fondo"
     inkscape:groupmode="layer"
     id="layer1">
    <path
       style="opacity:0.23897059000000001;fill:#000000;fill-opacity:1;stroke:none;stroke-width:2;stroke-linecap:round;stroke-linejoin:round;stroke-miterlimit:4;stroke-opacity:1;filter:url(#filter3861)"
       d="M 96.785711,380.93362 L 505.71427,386.29076 C 514.12225,386.78634 528.36564,391.44841 513.39284,394.50505 L 102.85714,395.21934 L 96.785711,380.93362 z"
       id="rect3681"
       sodipodi:nodetypes="ccccc"
       inkscape:export-filename="/home/mads/tothemario/Desktop/incubatedEggs0.png"
       inkscape:export-xdpi="90"
       inkscape:export-ydpi="90" />
    <g
       id="g5580"
       transform="matrix(0.7321545,0,0,0.7321545,23.825921,2.6746636)">
      <path
         style="fill:url(#radialGradient5610);fill-opacity:1;fill-rule:evenodd;stroke:#595959;stroke-width:2;stroke-linecap:butt;stroke-linejoin:miter;stroke-miterlimit:4;stroke-dasharray:none;stroke-opacity:1"
         d="M 257.45595,-73.136327 C 257.45595,-36.573927 236.34205,-20.694337 208.16138,-20.694337 C 181.00259,-20.694337 158.98839,-36.224677 159.05339,-72.572457 C 159.1184,-108.92025 181.23819,-152.43781 208.39693,-152.38923 C 235.55567,-152.34066 257.45595,-112.04244 257.45595,-73.136327 z"
         id="path5582"
         sodipodi:nodetypes="cssss" />
      <path
         style="opacity:0.11764706;fill:#000000;fill-opacity:1;fill-rule:evenodd;stroke:none;stroke-width:2;stroke-linecap:butt;stroke-linejoin:miter;stroke-miterlimit:4;stroke-dasharray:none;stroke-opacity:1;filter:url(#filter5429)"
         d="M 208.40625,-152.75 C 181.24751,-152.79858 159.12751,-109.28529 159.0625,-72.9375 C 158.9975,-36.58972 180.99746,-21.0625 208.15625,-21.0625 C 236.33692,-21.0625 257.46874,-36.937597 257.46875,-73.5 C 257.46875,-112.40611 235.56499,-152.70143 208.40625,-152.75 z M 208.09375,-148.8125 C 232.52738,-148.76882 252.21875,-112.53352 252.21875,-77.53125 C 252.21875,-44.637528 233.22802,-30.34375 207.875,-30.34375 C 183.44133,-30.34375 163.62902,-44.299361 163.6875,-77 C 163.74598,-109.70065 183.66012,-148.85621 208.09375,-148.8125 z"
         id="path5584"
         transform="matrix(0.9923012,0,0,0.9923012,1.982209,-0.667233)" />
      <path
         transform="matrix(1.5296802,0.500741,-0.5069016,1.5706637,-136.86335,-57.768287)"
         d="M 197.14286,-96.923531 A 9.6428576,10.714286 0 1 1 177.85714,-96.923531 A 9.6428576,10.714286 0 1 1 197.14286,-96.923531 z"
         sodipodi:ry="10.714286"
         sodipodi:rx="9.6428576"
         sodipodi:cy="-96.923531"
         sodipodi:cx="187.5"
         id="path5608"
         style="opacity:0.5625;fill:#ffffff;fill-opacity:1;stroke:none;stroke-width:3;stroke-linecap:round;stroke-linejoin:round;stroke-miterlimit:4;stroke-dasharray:none;stroke-opacity:1;filter:url(#filter5531)"
         sodipodi:type="arc" />
    </g>
    <g
       id="g5728"
       transform="matrix(0.7321545,0,0,0.7321545,-88.95729,26.645997)">
      <path
         style="fill:url(#radialGradient5734);fill-opacity:1;fill-rule:evenodd;stroke:#595959;stroke-width:2;stroke-linecap:butt;stroke-linejoin:miter;stroke-miterlimit:4;stroke-dasharray:none;stroke-opacity:1"
         d="M 467.61564,-62.277901 C 453.84922,-32.783681 430.43143,-24.096181 402.85713,-30.870071 C 376.48252,-37.349251 362.459,-62.919501 375.48556,-96.852881 C 388.51212,-130.78625 424.70011,-163.55045 450.05483,-153.81712 C 475.40955,-144.08379 480.6422,-96.211281 467.61564,-62.277901 z"
         id="path5574"
         sodipodi:nodetypes="csssc" />
      <path
         id="path2650"
         d="M 441.32081,-154.70211 C 449.31722,-150.66255 456.55593,-144.91737 462.32081,-137.54586 C 466.16158,-132.63469 469.14283,-127.30994 471.32081,-121.76461 C 467.86107,-136.70055 460.52686,-148.66477 449.19581,-153.01461 C 446.66432,-153.98641 444.03445,-154.53645 441.32081,-154.70211 z M 429.66456,-153.26461 C 425.09564,-151.9535 420.45224,-149.8237 415.88331,-147.01461 C 429.00964,-146.10165 441.79514,-139.84473 450.44581,-129.01461 C 467.97002,-107.07532 463.30397,-74.491028 441.60206,-57.264617 C 420.50197,-40.515924 390.28782,-42.847275 371.00831,-60.295867 C 372.54428,-53.881581 375.41549,-48.269794 379.38331,-43.608367 C 400.7193,-33.056844 427.2464,-34.645927 446.69581,-49.795867 C 472.39375,-69.81304 478.03995,-108.19177 457.82081,-134.04586 C 450.48033,-143.43209 440.51147,-149.92871 429.66456,-153.26461 z M 411.97706,-141.42086 C 410.49378,-141.40098 409.01399,-141.28533 407.53956,-141.10836 C 402.50303,-137.05678 397.69083,-132.26745 393.25831,-127.01461 C 407.46368,-137.53399 427.87752,-134.40506 439.07081,-120.88961 C 452.10262,-105.15421 448.86128,-81.465304 433.35206,-68.764617 C 416.09365,-54.631501 390.25843,-58.235563 376.44581,-75.264617 C 374.24445,-77.978591 372.4552,-80.887842 371.03956,-83.920867 C 370.02059,-79.007506 369.58867,-74.329073 369.72706,-69.920867 C 386.29737,-49.531191 417.26679,-45.219692 438.07081,-61.733367 C 457.33761,-77.026848 461.49894,-106.05874 446.00831,-125.45211 C 437.61362,-135.96176 424.7669,-141.59226 411.97706,-141.42086 z M 411.75831,-127.57711 C 405.91377,-127.42191 400.13771,-125.44298 395.38331,-121.45211 C 385.20407,-112.90759 383.12452,-97.08678 391.85206,-86.858367 C 399.31867,-78.107724 413.07305,-76.369778 421.85206,-84.014617 C 429.20614,-90.418618 430.64644,-102.09467 424.07081,-109.45211 C 418.71347,-115.4464 409.03782,-116.59651 403.07081,-111.07711 C 398.393,-106.7502 397.53431,-99.03288 402.00831,-94.420867 C 405.32028,-91.006731 411.14693,-90.393596 414.44581,-93.827117 C 416.66386,-96.135693 417.01444,-100.13189 414.63331,-102.17086 C 413.98301,-102.72772 412.92924,-103.09595 412.07081,-103.07711 C 411.21238,-103.05827 410.65877,-102.83344 410.22706,-102.20211 C 410.15957,-102.10341 410.01555,-101.55763 410.03956,-101.35836 C 410.06357,-101.15909 409.84995,-101.52504 409.78956,-101.54586 L 407.91456,-96.139617 C 405.80595,-96.866599 404.5916,-98.942127 404.38331,-100.67086 C 404.17502,-102.3996 404.57939,-104.0167 405.53956,-105.42086 C 407.07794,-107.6706 409.60842,-108.74455 411.94581,-108.79586 C 414.2832,-108.84717 416.53331,-108.04526 418.32081,-106.51461 C 423.47896,-102.09766 422.83035,-94.35553 418.53956,-89.889617 C 412.79882,-83.914568 403.32132,-84.87857 397.91456,-90.452117 C 391.03992,-97.538827 392.29651,-108.88284 399.19581,-115.26461 C 407.65734,-123.0914 420.93664,-121.49546 428.32081,-113.23336 C 437.13774,-103.36815 435.22845,-88.11208 425.57081,-79.702117 C 414.27455,-69.865228 396.99594,-72.088276 387.53956,-83.170867 C 380.64548,-91.25053 379.15704,-101.98974 382.16456,-111.45211 C 379.19811,-106.44991 376.63203,-101.28364 374.63331,-96.077117 C 374.3031,-95.21694 374.02275,-94.363872 373.72706,-93.514617 C 374.93659,-88.288787 377.27846,-83.264126 380.85206,-78.858367 C 392.71482,-64.233222 415.03795,-61.116192 429.75831,-73.170867 C 442.87733,-83.914191 445.62868,-104.03236 434.69581,-117.23336 C 428.97384,-124.14242 420.30033,-127.80394 411.75831,-127.57711 z M 469.44581,-69.514617 C 465.13133,-60.249936 458.66969,-51.872175 450.22706,-45.295867 C 434.22208,-32.828935 413.91378,-28.74899 394.94581,-32.389617 C 397.18921,-31.455448 399.53569,-30.68454 402.00831,-30.077117 C 429.58261,-23.303227 452.9919,-31.989146 466.75831,-61.483367 C 467.75562,-64.081301 468.66338,-66.776647 469.44581,-69.514617 z"
         style="opacity:0.41176471;fill:url(#radialGradient5736);fill-opacity:1;fill-rule:evenodd;stroke:#000000;stroke-width:2;stroke-linecap:butt;stroke-linejoin:miter;stroke-miterlimit:4;stroke-dasharray:none;stroke-opacity:0.25283018" />
      <path
         style="opacity:0.15808824;fill:#000000;fill-opacity:1;fill-rule:evenodd;stroke:none;stroke-width:2;stroke-linecap:butt;stroke-linejoin:miter;stroke-miterlimit:4;stroke-dasharray:none;stroke-opacity:1;filter:url(#filter5429)"
         d="M 208.40625,-152.75 C 181.24751,-152.79858 159.12751,-109.28529 159.0625,-72.9375 C 158.9975,-36.58972 180.99746,-21.0625 208.15625,-21.0625 C 236.33692,-21.0625 257.46874,-36.937597 257.46875,-73.5 C 257.46875,-112.40611 235.56499,-152.70143 208.40625,-152.75 z M 208.09375,-148.8125 C 232.52738,-148.76882 252.21875,-112.53352 252.21875,-77.53125 C 252.21875,-44.637528 233.22802,-30.34375 207.875,-30.34375 C 183.44133,-30.34375 163.62902,-44.299361 163.6875,-77 C 163.74598,-109.70065 183.66012,-148.85621 208.09375,-148.8125 z"
         id="path5720"
         transform="matrix(0.8984257,0.3903759,-0.3883207,0.9031805,204.08961,-95.256792)" />
      <path
         transform="matrix(1.3130373,0.500741,-1.1864409,1.5706637,61.055234,-68.140505)"
         d="M 197.14286,-96.923531 A 9.6428576,10.714286 0 1 1 177.85714,-96.923531 A 9.6428576,10.714286 0 1 1 197.14286,-96.923531 z"
         sodipodi:ry="10.714286"
         sodipodi:rx="9.6428576"
         sodipodi:cy="-96.923531"
         sodipodi:cx="187.5"
         id="path5722"
         style="opacity:0.5625;fill:#ffffff;fill-opacity:1;stroke:none;stroke-width:3;stroke-linecap:round;stroke-linejoin:round;stroke-miterlimit:4;stroke-dasharray:none;stroke-opacity:1;filter:url(#filter5531)"
         sodipodi:type="arc" />
    </g>
    <g
       transform="matrix(0.7318772,-2.0151401e-2,2.0151401e-2,0.7318772,123.40597,12.407553)"
       id="g5738">
      <path
         sodipodi:nodetypes="cssss"
         id="path5740"
         d="M 257.45595,-73.136327 C 257.45595,-36.573927 236.34205,-20.694337 208.16138,-20.694337 C 181.00259,-20.694337 158.98839,-36.224677 159.05339,-72.572457 C 159.1184,-108.92025 181.23819,-152.43781 208.39693,-152.38923 C 235.55567,-152.34066 257.45595,-112.04244 257.45595,-73.136327 z"
         style="fill:url(#radialGradient5746);fill-opacity:1;fill-rule:evenodd;stroke:#595959;stroke-width:2;stroke-linecap:butt;stroke-linejoin:miter;stroke-miterlimit:4;stroke-dasharray:none;stroke-opacity:1" />
      <path
         style="opacity:0.51470588;fill:#359747;fill-opacity:1;fill-rule:evenodd;stroke:none;stroke-width:2;stroke-linecap:butt;stroke-linejoin:miter;stroke-miterlimit:4;stroke-dasharray:none;stroke-opacity:1"
         d="M 174.83689,-126.38569 C 171.76989,-121.28536 169.0702,-115.65772 166.83689,-109.72944 C 194.0799,-107.95951 221.97246,-107.52947 251.33689,-109.72944 C 249.18471,-115.71007 246.56994,-121.32157 243.55564,-126.38569 L 174.83689,-126.38569 z"
         id="path5748"
         sodipodi:nodetypes="ccccc" />
      <path
         style="opacity:0.37867647;fill:#bb1a3d;fill-opacity:1;fill-rule:evenodd;stroke:none;stroke-width:2;stroke-linecap:butt;stroke-linejoin:miter;stroke-miterlimit:4;stroke-dasharray:none;stroke-opacity:0.25283018"
         d="M 161.29512,-91.526276 C 159.47386,-83.687326 158.07142,-79.756567 158.05769,-72.079257 C 157.99269,-35.731477 179.99265,-20.204257 207.15145,-20.204257 C 235.33212,-20.204257 256.43268,-36.079357 256.4327,-72.641757 C 256.4327,-80.344587 257.48313,-83.700017 255.89538,-91.188817 C 226.85636,-89.53463 190.56612,-88.945054 161.29512,-91.526276 z"
         id="path5763"
         sodipodi:nodetypes="cssscc" />
      <path
         style="opacity:0.61397059;fill:#fbff82;fill-opacity:1;fill-rule:evenodd;stroke:none;stroke-width:2;stroke-linecap:butt;stroke-linejoin:miter;stroke-miterlimit:4;stroke-dasharray:none;stroke-opacity:1"
         d="M 208.40717,-151.39455 C 195.20513,-151.41816 183.17633,-141.13506 174.31342,-126.39455 L 243.06342,-126.39455 C 234.19373,-141.29643 221.962,-151.37031 208.40717,-151.39455 z M 166.34467,-109.7383 C 164.55775,-104.99573 163.06749,-100.07626 161.90717,-95.082049 C 192.8841,-92.731016 223.90744,-92.065145 255.03217,-95.082049 C 253.96257,-100.12694 252.53728,-105.0356 250.84467,-109.7383 C 223.16093,-107.55258 195.21747,-106.54235 166.34467,-109.7383 z"
         id="path5775"
         sodipodi:nodetypes="ccccccccc" />
      <path
         sodipodi:nodetypes="cssss"
         id="path5758"
         d="M 232.75025,-95.483612 C 232.75025,-76.501832 221.78873,-68.257772 207.15842,-68.257772 C 193.05863,-68.257772 181.62972,-76.320512 181.66346,-95.190872 C 181.69721,-114.06123 193.18095,-136.65386 207.28071,-136.62864 C 221.38048,-136.60342 232.75025,-115.68215 232.75025,-95.483612 z"
         style="opacity:0.22058824;fill:#ffffff;fill-opacity:1;fill-rule:evenodd;stroke:none;stroke-width:1.03832233;stroke-linecap:butt;stroke-linejoin:miter;stroke-miterlimit:4;stroke-dasharray:none;stroke-opacity:1;filter:url(#filter5923)" />
      <path
         transform="matrix(0.9923012,0,0,0.9923012,2.286785,-0.5610384)"
         id="path5742"
         d="M 208.40625,-152.75 C 181.24751,-152.79858 159.12751,-109.28529 159.0625,-72.9375 C 158.9975,-36.58972 180.99746,-21.0625 208.15625,-21.0625 C 236.33692,-21.0625 257.46874,-36.937597 257.46875,-73.5 C 257.46875,-112.40611 235.56499,-152.70143 208.40625,-152.75 z M 208.09375,-148.8125 C 232.52738,-148.76882 252.21875,-112.53352 252.21875,-77.53125 C 252.21875,-44.637528 233.22802,-30.34375 207.875,-30.34375 C 183.44133,-30.34375 163.62902,-44.299361 163.6875,-77 C 163.74598,-109.70065 183.66012,-148.85621 208.09375,-148.8125 z"
         style="opacity:0.11764706;fill:#000000;fill-opacity:1;fill-rule:evenodd;stroke:none;stroke-width:2;stroke-linecap:butt;stroke-linejoin:miter;stroke-miterlimit:4;stroke-dasharray:none;stroke-opacity:1;filter:url(#filter5429)" />
    </g>
    <g
       id="g6009"
       transform="matrix(0.7321545,0,0,0.7321545,296.29727,-10.69763)">
      <path
         style="fill:url(#radialGradient6017);fill-opacity:1;fill-rule:evenodd;stroke:#595959;stroke-width:2;stroke-linecap:butt;stroke-linejoin:miter;stroke-miterlimit:4;stroke-dasharray:none;stroke-opacity:1"
         d="M 110.31309,-46.707756 C 110.31309,-10.145356 89.199193,5.7342345 61.018523,5.7342345 C 33.859733,5.7342345 11.845533,-9.7961055 11.910533,-46.143886 C 11.975543,-82.491679 34.095333,-126.00924 61.254073,-125.96066 C 88.412813,-125.91209 110.31309,-85.613869 110.31309,-46.707756 z"
         id="path6011"
         sodipodi:nodetypes="cssss" />
      <path
         style="opacity:0.18382353;fill:#000000;fill-opacity:1;fill-rule:evenodd;stroke:none;stroke-width:2;stroke-linecap:butt;stroke-linejoin:miter;stroke-miterlimit:4;stroke-dasharray:none;stroke-opacity:1;filter:url(#filter5429)"
         d="M 208.40625,-152.75 C 181.24751,-152.79858 159.12751,-109.28529 159.0625,-72.9375 C 158.9975,-36.58972 180.99746,-21.0625 208.15625,-21.0625 C 236.33692,-21.0625 257.46874,-36.937597 257.46875,-73.5 C 257.46875,-112.40611 235.56499,-152.70143 208.40625,-152.75 z M 208.09375,-148.8125 C 232.52738,-148.76882 252.21875,-112.53352 252.21875,-77.53125 C 252.21875,-44.637528 233.22802,-30.34375 207.875,-30.34375 C 183.44133,-30.34375 163.62902,-44.299361 163.6875,-77 C 163.74598,-109.70065 183.66012,-148.85621 208.09375,-148.8125 z"
         id="path6013"
         transform="matrix(0.9923012,0,0,0.9923012,-143.79335,26.179757)" />
      <path
         id="path5929"
         d="M 74.320104,-121.6924 L 73.257604,-121.59865 L 72.163854,-121.5049 L 71.945104,-119.97365 C 71.829894,-119.12541 71.663314,-118.29143 71.570104,-118.09865 C 71.472744,-117.89725 70.944834,-117.73496 70.320104,-117.72365 C 69.722094,-117.71282 69.019244,-117.5981 68.788854,-117.47365 C 68.463294,-117.29781 68.631154,-117.21131 69.445104,-117.0674 C 72.730024,-116.48656 74.670584,-114.68222 75.882604,-111.09865 C 76.569054,-109.06898 76.521224,-105.80602 75.788854,-103.6924 C 75.026224,-101.49141 73.916634,-99.932122 72.320104,-98.879892 C 71.100654,-98.076192 70.770144,-97.991552 69.195104,-98.004892 C 68.224744,-98.013102 67.507924,-97.911252 67.601354,-97.786142 C 68.024424,-97.219762 70.460534,-96.661662 71.663854,-96.848642 C 72.342564,-96.954092 72.882594,-96.955762 72.882604,-96.848642 C 72.882604,-96.741532 72.377254,-95.860192 71.757604,-94.911142 C 70.499554,-92.984382 69.203004,-90.419932 68.601354,-88.629892 C 68.382264,-87.978042 68.111384,-87.442382 67.976354,-87.442392 C 67.841334,-87.442392 66.983184,-87.881622 66.070104,-88.411142 C 62.132584,-90.694532 58.572424,-91.535052 53.976354,-91.286142 C 50.745664,-91.111202 48.929604,-90.693712 46.538854,-89.536142 C 44.836824,-88.712032 44.668144,-88.399912 46.163854,-88.848642 C 50.973494,-90.291652 56.286254,-89.522752 60.663854,-86.754892 C 63.309854,-85.081862 64.726634,-83.799092 66.851354,-81.067392 C 70.356334,-76.561212 72.519484,-71.167112 73.413854,-64.817392 C 73.922264,-61.207802 73.741614,-55.147152 73.007604,-51.598642 C 70.866014,-41.245612 64.889554,-33.243622 57.163854,-30.379892 C 54.495594,-29.390832 49.972264,-29.132122 47.257604,-29.817392 C 37.496804,-32.281362 30.117024,-42.767172 28.913854,-55.911142 C 28.786794,-57.299162 28.697214,-58.569412 28.695104,-58.723642 C 28.693014,-58.877872 28.587984,-58.798762 28.476354,-58.567392 C 28.166844,-57.926272 28.233054,-53.794372 28.601354,-50.473642 C 29.349514,-43.728092 31.400614,-37.625992 34.726354,-32.286142 C 35.774134,-30.603842 35.945594,-29.973642 35.288854,-29.973642 C 34.924494,-29.973642 32.882344,-33.552102 31.445104,-36.754892 C 28.322814,-43.712722 26.411534,-50.782292 25.413854,-58.973642 C 24.839214,-63.691582 24.907194,-72.942642 25.538854,-77.723642 C 27.810384,-94.916862 34.648244,-108.84234 45.601354,-118.5049 C 46.897354,-119.64819 47.976364,-120.62623 47.976354,-120.6924 C 47.976354,-120.94617 46.306264,-119.90165 44.195104,-118.28615 C 31.528854,-108.59358 23.036514,-91.931702 20.788854,-72.317392 C 20.277384,-67.854112 20.276944,-58.523572 20.788854,-54.067392 C 21.217844,-50.332862 22.162684,-45.181582 22.913854,-42.411142 C 23.201304,-41.351012 23.374674,-40.401042 23.288854,-40.286142 C 23.203034,-40.171252 22.537504,-40.456912 21.820104,-40.911142 L 20.507604,-41.723642 L 20.663854,-43.661142 C 20.951114,-47.799092 19.595334,-51.725082 17.101354,-53.973642 C 15.670154,-55.263982 15.195064,-55.214542 16.163854,-53.879892 C 17.331984,-52.270612 18.005154,-50.088482 18.007604,-47.879892 C 18.010414,-45.365732 17.538704,-43.696172 16.320104,-41.911142 C 15.078224,-40.092012 13.852654,-39.302862 12.101354,-39.161142 C 12.168214,-38.274672 12.255904,-37.394572 12.351354,-36.536142 C 13.521114,-37.020802 14.788664,-37.254892 16.195104,-37.254892 C 19.595314,-37.254892 22.497034,-35.689822 24.788854,-32.629892 C 27.154244,-29.471682 28.275854,-26.162312 28.445104,-21.754892 C 28.578444,-18.283562 28.253314,-16.296482 27.101354,-13.223642 C 26.311864,-11.117642 26.283974,-10.922092 26.757604,-11.504892 C 27.051784,-11.866872 27.590164,-12.799182 27.976354,-13.598642 C 28.362574,-14.398122 28.796514,-15.157792 28.913854,-15.254892 C 29.145804,-15.446822 29.131694,-15.397392 29.601354,-13.129892 C 29.971844,-11.341302 31.353184,-8.1491322 32.007604,-7.5673922 C 32.413224,-7.2068522 32.403794,-7.3603322 31.788854,-9.0986422 C 31.153754,-10.893902 31.101324,-11.232282 31.101354,-13.973642 C 31.101354,-16.682492 31.162344,-17.073372 31.757604,-18.754892 C 32.622594,-21.198532 34.186154,-23.307152 35.976354,-24.442392 C 37.293384,-25.277582 37.529034,-25.348642 39.570104,-25.348642 C 41.604754,-25.348642 41.900764,-25.263332 43.195104,-24.442392 C 45.142384,-23.207332 46.346734,-21.619482 47.288854,-19.067392 C 48.043524,-17.023102 48.070104,-16.842192 48.070104,-13.973642 C 48.070104,-11.088812 48.040564,-10.938192 47.257604,-8.8173922 C 46.813774,-7.6151422 46.534344,-6.5345922 46.632604,-6.4111422 C 46.995604,-5.9549022 51.275354,-3.6441919 53.507604,-2.6923919 C 56.799754,-1.2886619 60.442694,-0.33697192 64.507604,0.15135808 C 66.359134,0.37377808 72.230124,0.063788081 74.476354,-0.37989192 C 89.230784,-3.2941719 101.84217,-14.997192 109.03884,-31.942392 C 109.56643,-34.828892 109.92023,-37.889362 110.10134,-41.129892 C 109.2978,-38.982402 108.3862,-36.909532 107.38259,-34.879892 C 100.78936,-21.546302 90.638354,-12.311692 79.007604,-9.0673922 C 71.078824,-6.8557322 62.566234,-7.6022622 54.945104,-11.192392 C 52.854164,-12.177382 49.861634,-13.963922 49.851354,-14.223642 C 49.847644,-14.317852 49.831934,-15.650132 49.820104,-17.192392 L 49.788854,-20.004892 L 50.601354,-19.973642 C 51.048914,-19.947232 52.635004,-19.828252 54.132604,-19.723642 C 57.274234,-19.504202 59.988704,-19.945422 62.788854,-21.129892 C 63.741164,-21.532712 64.593084,-21.808052 64.695104,-21.723642 C 64.797124,-21.639232 65.079684,-20.689632 65.320104,-19.629892 C 67.081864,-11.864752 73.666134,-7.9928622 79.163854,-11.473642 C 79.866274,-11.918372 80.413854,-12.328732 80.413854,-12.379892 C 80.413854,-12.431062 79.402264,-12.448442 78.163854,-12.442392 C 76.158894,-12.432562 75.805784,-12.534412 74.757604,-13.192392 C 73.101794,-14.231812 71.958504,-15.687772 71.163854,-17.848642 C 70.546124,-19.528582 70.476384,-19.966112 70.476354,-22.254892 C 70.476354,-24.402092 70.570374,-25.010962 71.038854,-26.348642 C 71.786084,-28.482132 72.843004,-29.989522 74.413854,-31.129892 C 75.657964,-32.033082 75.835304,-32.067392 77.820104,-32.067392 C 80.303354,-32.067392 81.209194,-31.587362 83.038854,-29.348642 C 84.326334,-27.773322 84.496274,-27.999082 83.570104,-30.161142 C 82.719624,-32.146482 80.923064,-34.452022 79.507604,-35.379892 C 78.868044,-35.799152 78.292324,-36.268252 78.226354,-36.411142 C 78.160394,-36.554042 78.546784,-37.769532 79.070104,-39.129892 C 80.306414,-42.343762 81.352524,-46.764292 81.757604,-50.411142 C 81.935484,-52.012522 82.134074,-53.391952 82.195104,-53.473642 C 82.256134,-53.555352 83.714284,-53.635562 85.413854,-53.661142 C 87.862274,-53.698002 88.836214,-53.831512 90.163854,-54.317392 C 92.068724,-55.014512 94.418404,-56.415672 95.882604,-57.754892 C 97.040514,-58.814032 99.23633,-61.560562 99.53885,-62.317392 C 99.775302,-62.908862 99.895202,-63.005522 97.6951,-61.067392 C 94.985264,-58.680182 92.327274,-57.639612 89.007604,-57.661142 C 78.218774,-57.731142 70.822274,-72.199322 74.632604,-85.754892 C 75.480054,-88.769752 76.575414,-91.009312 78.351354,-93.348642 C 83.427214,-100.03476 91.494664,-101.1589 97.47635,-96.036142 C 98.31491,-95.318002 98.65579,-95.035782 98.7576,-95.067392 C 98.5294,-95.518422 98.30404,-95.967042 98.0701,-96.411142 C 97.029954,-97.653052 94.991164,-99.537702 93.570104,-100.47364 C 90.681104,-102.37637 88.664484,-103.00189 85.351354,-102.97364 C 82.498524,-102.94931 80.484224,-102.41846 78.413854,-101.19239 C 77.886574,-100.88012 77.382564,-100.70863 77.288854,-100.78614 C 77.195174,-100.86365 77.423474,-101.68175 77.788854,-102.62989 C 78.399144,-104.21337 78.436814,-104.62054 78.476354,-107.34865 C 78.500004,-108.98214 78.533734,-110.37469 78.538854,-110.47365 C 78.544004,-110.57259 78.815804,-110.74658 79.132604,-110.84865 C 80.099704,-111.1602 81.590994,-112.69946 82.320104,-114.1299 C 82.727214,-114.92857 82.905754,-115.43643 83.007604,-116.2549 C 82.710004,-116.51419 82.402354,-116.75537 82.101354,-117.0049 C 81.888174,-116.5493 81.654524,-116.11018 81.445104,-115.84865 C 80.260224,-114.36901 78.276154,-113.95632 76.757604,-114.8799 C 75.098704,-115.88881 73.959774,-118.55556 74.226354,-120.7549 L 74.320104,-121.6924 z M 49.320104,-121.66115 C 49.089714,-121.66115 48.774154,-121.52941 48.601354,-121.3799 C 48.341184,-121.15481 48.348214,-121.09866 48.695104,-121.09865 C 48.925504,-121.09865 49.241044,-121.23038 49.413854,-121.3799 C 49.674014,-121.60498 49.667004,-121.66115 49.320104,-121.66115 z M 67.632604,-112.0674 C 66.556554,-112.00796 65.712594,-111.25475 65.163854,-109.84865 C 64.368614,-107.8109 64.814464,-105.71418 66.257604,-104.53615 C 67.059234,-103.8818 68.478094,-103.82823 69.320104,-104.41115 C 70.735024,-105.39072 71.282524,-107.41434 70.695104,-109.47365 C 70.252884,-111.02386 69.373664,-111.88783 68.101354,-112.03615 C 67.937084,-112.0553 67.786324,-112.07589 67.632604,-112.0674 z M 88.038854,-89.786142 C 86.727524,-89.816972 85.364784,-89.451932 84.070104,-88.598642 C 82.809964,-87.768112 81.070104,-85.770172 81.070104,-85.192392 C 81.070104,-85.036412 81.559014,-85.349002 82.163854,-85.879892 C 85.261824,-88.599312 89.003724,-88.187672 91.695104,-84.817392 C 92.254544,-84.116832 92.983054,-82.802162 93.320104,-81.911142 C 93.876014,-80.441462 93.945134,-80.048662 93.945104,-77.504892 C 93.945104,-75.215492 93.849014,-74.459882 93.476354,-73.379892 C 92.494694,-70.535122 89.968944,-67.918362 87.726354,-67.411142 C 87.277224,-67.309552 86.973974,-67.082952 87.038854,-66.942392 C 87.372324,-66.220022 90.492004,-67.053652 92.226354,-68.317392 C 95.160014,-70.454992 96.965834,-75.665102 96.351354,-80.129892 C 95.555244,-85.914262 91.972854,-89.693642 88.038854,-89.786142 z M 84.788854,-81.661142 C 81.565084,-81.661142 80.524674,-75.669472 83.413854,-73.754892 C 84.517674,-73.023432 85.082504,-72.997242 86.226354,-73.692392 C 87.331844,-74.364222 87.975304,-75.680282 87.976354,-77.317392 C 87.978014,-79.921622 86.691174,-81.661152 84.788854,-81.661142 z M 48.195104,-78.473642 L 47.663854,-78.442392 L 48.163854,-77.973642 C 49.299184,-76.973132 50.762154,-74.686252 51.382604,-72.911142 C 51.892864,-71.451362 52.030854,-70.584432 52.101354,-68.786142 C 52.300574,-63.704512 50.459354,-59.557572 46.976354,-57.348642 C 45.685554,-56.530012 45.364984,-56.473652 43.445104,-56.473642 C 41.465354,-56.473642 41.273674,-56.511742 39.788854,-57.473642 C 38.924854,-58.033342 37.862764,-58.974702 37.413854,-59.536142 C 36.964904,-60.097592 36.544984,-60.492402 36.507604,-60.442392 C 36.316434,-60.186442 37.470894,-57.757402 38.445104,-56.348642 C 39.654074,-54.600452 41.397314,-53.203422 43.163854,-52.567392 C 45.469724,-51.737182 48.247214,-52.148862 50.476354,-53.661142 C 51.879134,-54.612802 53.855834,-57.247542 54.570104,-59.129892 C 57.184714,-66.020192 55.269364,-74.096072 50.226354,-77.473642 C 49.413594,-78.018002 48.496414,-78.481732 48.195104,-78.473642 z M 42.320104,-77.067392 C 38.358274,-77.057442 35.712174,-72.069142 36.976354,-66.973642 C 37.438984,-65.108952 38.909314,-63.033662 40.226354,-62.411142 C 44.069994,-60.594382 47.958394,-64.154602 47.945104,-69.473642 C 47.934134,-73.858072 45.572704,-77.075572 42.320104,-77.067392 z M 12.101354,-51.973642 C 11.987394,-50.343882 11.913454,-48.739032 11.882604,-47.129892 C 12.803434,-47.719562 13.409654,-49.089172 13.007604,-50.504892 C 12.821624,-51.159782 12.485634,-51.645652 12.101354,-51.973642 z M 21.382604,-26.036142 C 21.356674,-26.009722 21.376194,-25.875372 21.445104,-25.629892 C 21.893304,-24.033562 22.011624,-22.333012 21.788854,-20.942392 C 21.368284,-18.316962 20.264814,-16.400522 18.882604,-15.254892 C 19.173314,-14.751402 19.482304,-14.270962 19.788854,-13.786142 C 20.718634,-14.628642 21.485194,-15.770052 22.007604,-17.129892 C 22.924014,-19.515332 22.709124,-24.645832 21.632604,-25.817392 C 21.482784,-25.980442 21.408534,-26.062562 21.382604,-26.036142 z M 78.820104,-25.129892 C 78.523714,-25.093082 78.223144,-25.000262 77.913854,-24.786142 C 77.155714,-24.261272 76.663884,-23.044192 76.663854,-21.692392 C 76.663854,-20.902392 76.832904,-20.428322 77.382604,-19.692392 C 77.985374,-18.885422 78.226124,-18.754882 79.038854,-18.754892 C 79.791794,-18.754892 80.131534,-18.931462 80.632604,-19.536142 C 82.441524,-21.719302 80.894814,-25.387582 78.820104,-25.129892 z"
         style="opacity:0.84558835;fill:#81a9f2;fill-opacity:1;fill-rule:evenodd;stroke:#283a68;stroke-width:2;stroke-linecap:butt;stroke-linejoin:miter;stroke-miterlimit:4;stroke-dasharray:none;stroke-opacity:1;filter:url(#filter6051)" />
      <path
         sodipodi:type="arc"
         style="opacity:0.33455882;fill:#fdfdfd;fill-opacity:1;stroke:none;stroke-width:2;stroke-linecap:round;stroke-linejoin:round;stroke-miterlimit:4;stroke-dasharray:none;stroke-opacity:1;filter:url(#filter6153)"
         id="path6055"
         sodipodi:cx="678.57141"
         sodipodi:cy="-379.95926"
         sodipodi:rx="10"
         sodipodi:ry="11.964286"
         d="M 688.57141,-379.95926 A 10,11.964286 0 1 1 668.57141,-379.95926 A 10,11.964286 0 1 1 688.57141,-379.95926 z"
         transform="matrix(1.2863503,0,0,1.4184421,-820.9651,451.96658)" />
    </g>
    <g
       transform="matrix(0.7321545,0,0,0.7321545,-56.260837,-148.23575)"
       id="g6025">
      <path
         sodipodi:nodetypes="cssss"
         id="path6027"
         d="M 257.45595,-73.136327 C 257.45595,-36.573927 236.34205,-20.694337 208.16138,-20.694337 C 181.00259,-20.694337 158.98839,-36.224677 159.05339,-72.572457 C 159.1184,-108.92025 181.23819,-152.43781 208.39693,-152.38923 C 235.55567,-152.34066 257.45595,-112.04244 257.45595,-73.136327 z"
         style="fill:url(#radialGradient6033);fill-opacity:1;fill-rule:evenodd;stroke:none;stroke-width:2;stroke-linecap:butt;stroke-linejoin:miter;stroke-miterlimit:4;stroke-dasharray:none;stroke-opacity:1" />
      <path
         transform="matrix(0.9923012,0,0,0.9923012,1.982209,-0.667233)"
         id="path6029"
         d="M 208.40625,-152.75 C 181.24751,-152.79858 159.12751,-109.28529 159.0625,-72.9375 C 158.9975,-36.58972 180.99746,-21.0625 208.15625,-21.0625 C 236.33692,-21.0625 257.46874,-36.937597 257.46875,-73.5 C 257.46875,-112.40611 235.56499,-152.70143 208.40625,-152.75 z M 208.09375,-148.8125 C 232.52738,-148.76882 252.21875,-112.53352 252.21875,-77.53125 C 252.21875,-44.637528 233.22802,-30.34375 207.875,-30.34375 C 183.44133,-30.34375 163.62902,-44.299361 163.6875,-77 C 163.74598,-109.70065 183.66012,-148.85621 208.09375,-148.8125 z"
         style="opacity:0.11764706;fill:#000000;fill-opacity:1;fill-rule:evenodd;stroke:none;stroke-width:2;stroke-linecap:butt;stroke-linejoin:miter;stroke-miterlimit:4;stroke-dasharray:none;stroke-opacity:1;filter:url(#filter5429)" />
      <path
         sodipodi:type="arc"
         style="opacity:0.5625;fill:#ffffff;fill-opacity:1;stroke:none;stroke-width:3;stroke-linecap:round;stroke-linejoin:round;stroke-miterlimit:4;stroke-dasharray:none;stroke-opacity:1;filter:url(#filter5531)"
         id="path6031"
         sodipodi:cx="187.5"
         sodipodi:cy="-96.923531"
         sodipodi:rx="9.6428576"
         sodipodi:ry="10.714286"
         d="M 197.14286,-96.923531 A 9.6428576,10.714286 0 1 1 177.85714,-96.923531 A 9.6428576,10.714286 0 1 1 197.14286,-96.923531 z"
         transform="matrix(1.5296802,0.500741,-0.5069016,1.5706637,-136.86335,-57.768287)" />
      <path
         style="fill:none;fill-opacity:1;fill-rule:evenodd;stroke:#363636;stroke-width:2.73166388000000016;stroke-linecap:butt;stroke-linejoin:miter;stroke-miterlimit:4;stroke-dasharray:none;stroke-opacity:1"
         d="M 257.45595,-73.136327 C 257.45595,-36.573927 236.34205,-20.694337 208.16138,-20.694337 C 181.00259,-20.694337 158.98839,-36.224677 159.05339,-72.572457 C 159.1184,-108.92025 181.23819,-152.43781 208.39693,-152.38923 C 235.55567,-152.34066 257.45595,-112.04244 257.45595,-73.136327 z"
         id="path3990"
         sodipodi:nodetypes="cssss" />
    </g>
    <path
       style="fill:url(#linearGradient3424);fill-opacity:1;fill-rule:evenodd;stroke:#03340e;stroke-width:2;stroke-linecap:butt;stroke-linejoin:miter;stroke-miterlimit:4;stroke-dasharray:none;stroke-opacity:1"
       d="M -7.2654092,318.11979 C -7.2654092,318.11979 19.981301,338.11606 33.571429,345.21933 C 44.644945,351.00722 59.764801,359.22886 72.142857,360.93361 C 81.543376,362.22828 95.023867,361.48348 103.57143,357.36218 C 115.58221,351.57106 130.87351,332.85999 143.57143,328.79075 C 159.70792,323.61957 175.43462,327.89408 190.71429,335.21933 C 244.45777,360.98456 335.63675,367.35894 335.71429,367.36218 C 375.47195,369.02425 409.51077,364.49091 455,372.36218 C 470.42019,372.59598 483.09709,377.59174 500.71428,367.71933 C 499.4999,359.86231 501.40072,352.6202 504.28571,345.93361 C 494.32812,346.07356 491.60752,344.23979 486.42857,343.07647 C 483.44787,342.40693 476.84164,335.75257 495,331.6479 C 502.33928,329.98887 514.08534,334.17844 518.57143,340.21933 C 523.17779,346.42217 520,365.93361 520,365.93361 C 520.79656,380.27171 504.40695,393.79075 480.87645,393.79075 L 340.71429,393.79076 L 266.42857,387.36218 L 155,363.79075 L 105.96683,394.12252 L -7.9004715,392.82393 L -7.2654092,318.11979 z"
       id="path3416"
       sodipodi:nodetypes="csssssscccssssccccccc"
       inkscape:export-filename="/home/mads/tothemario/Desktop/incubatedEggs0.png"
       inkscape:export-xdpi="90"
       inkscape:export-ydpi="90" />
    <path
       style="fill:none;fill-rule:evenodd;stroke:#00310b;stroke-width:1.28500056;stroke-linecap:round;stroke-linejoin:round;stroke-opacity:1"
       d="M 501.00853,367.71268 C 502.07967,368.44924 502.86499,368.61881 504.47206,369.3914"
       id="path3446"
       sodipodi:nodetypes="cc"
       inkscape:export-filename="/home/mads/tothemario/Desktop/incubatedEggs0.png"
       inkscape:export-xdpi="90"
       inkscape:export-ydpi="90" />
    <path
       sodipodi:nodetypes="cc"
       id="path3448"
       d="M 504.04521,346.21385 C 505.09924,345.69788 505.56189,345.18862 506.86494,344.29695"
       style="fill:none;fill-rule:evenodd;stroke:#00310b;stroke-width:1.11371064;stroke-linecap:round;stroke-linejoin:round;stroke-opacity:1"
       inkscape:export-filename="/home/mads/tothemario/Desktop/incubatedEggs0.png"
       inkscape:export-xdpi="90"
       inkscape:export-ydpi="90" />
    <path
       style="opacity:0.15073529;fill:#000000;fill-opacity:1;fill-rule:evenodd;stroke:#000000;stroke-width:1px;stroke-linecap:butt;stroke-linejoin:miter;stroke-opacity:1;display:inline;filter:url(#filter3677)"
       d="M 324.48749,366.92669 C 315.90119,378.54344 303.70517,381.38216 305.04948,384.78819 C 306.79533,389.21163 316.42524,388.58249 321.0281,389.77767 C 333.72579,393.07475 364.46466,393.81829 364.46466,393.81829 C 340.45175,394.1862 308.28751,390.47845 279.10677,388.26245 L 297.28951,374.62539 L 324.48749,366.92669 z"
       id="path3650"
       sodipodi:nodetypes="csscccc"
       inkscape:export-filename="/home/mads/tothemario/Desktop/incubatedEggs0.png"
       inkscape:export-xdpi="90"
       inkscape:export-ydpi="90" />
  </g>
  <g
     inkscape:groupmode="layer"
     id="layer3"
     inkscape:label="tent arriba"
     style="display:inline">
    <path
       style="fill:url(#linearGradient3400);fill-opacity:1;fill-rule:evenodd;stroke:#00310b;stroke-width:2;stroke-linecap:round;stroke-linejoin:round;stroke-miterlimit:4;stroke-dasharray:none;stroke-opacity:1"
       d="M 318.48172,331.85928 C 305.84988,332.05517 260.42164,350.56133 251.44518,356.37862 L 252.89913,393.34308 C 294.23486,390.42367 330.39345,366.69772 334.20493,352.22982 C 327.59292,345.02757 326.60025,331.73337 318.48172,331.85928 z"
       id="path3457"
       sodipodi:nodetypes="ccccc"
       inkscape:export-filename="/home/mads/tothemario/Desktop/incubatedEggs0.png"
       inkscape:export-xdpi="90"
       inkscape:export-ydpi="90" />
    <path
       style="fill:url(#linearGradient3402);fill-opacity:1;fill-rule:evenodd;stroke:#00310b;stroke-width:2;stroke-linecap:round;stroke-linejoin:round;stroke-miterlimit:4;stroke-dasharray:none;stroke-opacity:1"
       d="M 252.87652,393.76102 C 221.60447,393.76102 212.75045,385.60476 180.29793,386.50411 C 154.1156,387.22969 141.0138,394.35699 105.89254,394.35699 C 68.2436,394.35699 32.571113,394.40896 -7.7057883,394.40896 L -7.7057883,358.37324 C 21.987242,353.73112 64.604213,360.08448 86.894793,367.23275 C 132.7477,358.33856 165.43447,340.40572 251.51975,363.04674"
       id="path3431"
       sodipodi:nodetypes="csccccc"
       inkscape:export-filename="/home/mads/tothemario/Desktop/incubatedEggs0.png"
       inkscape:export-xdpi="90"
       inkscape:export-ydpi="90" />
    <g
       id="g3606"
       transform="matrix(0.4367951,0.1295699,-0.1295699,0.4367951,-127.84887,-171.89953)"
       inkscape:export-filename="/home/mads/tothemario/Desktop/incubatedEggs0.png"
       inkscape:export-xdpi="90"
       inkscape:export-ydpi="90">
      <path
         style="opacity:0.3;fill:#000000;fill-opacity:1;fill-rule:evenodd;stroke:none;stroke-width:1px;stroke-linecap:butt;stroke-linejoin:miter;stroke-opacity:1;filter:url(#filter3947)"
         d="M 258.21429,393.07647 C 258.21429,393.07647 259.06827,384.60985 259.64286,381.6479 C 260.68348,376.28362 266.78571,365.93361 266.78571,365.93361 L 260.35714,365.21932 L 251.07143,394.50504 L 258.21429,393.07647 z"
         id="path3865"
         transform="matrix(2.1042424,-0.6241977,0.6241977,2.1042424,-427.61115,-432.41736)"
         sodipodi:nodetypes="cscccc" />
      <g
         id="g4417"
         transform="matrix(0.9891369,-3.662091e-2,-3.662091e-2,0.8765467,7.2487209,24.436275)">
        <rect
           ry="8.9285717"
           y="98.354912"
           x="333.37094"
           height="166.67517"
           width="23.233509"
           id="rect4145"
           style="opacity:1;fill:url(#linearGradient3498);fill-opacity:1;stroke:#000000;stroke-width:3;stroke-linecap:round;stroke-linejoin:round;stroke-miterlimit:4;stroke-dasharray:none;stroke-opacity:1" />
        <path
           sodipodi:nodetypes="ccccc"
           id="rect4158"
           d="M 334.26767,100.91488 L 355.48087,100.91488 L 355.73341,113.79433 C 351.265,109.61186 340.34185,108.78213 334.26767,113.03671 L 334.26767,100.91488 z"
           style="opacity:0.20220588;fill:#000000;fill-opacity:1;stroke:none;stroke-width:3;stroke-linecap:round;stroke-linejoin:round;stroke-miterlimit:4;stroke-opacity:1;filter:url(#filter4413)" />
        <path
           style="opacity:0.16544118;fill:none;fill-rule:evenodd;stroke:#000000;stroke-width:1px;stroke-linecap:butt;stroke-linejoin:miter;stroke-opacity:1;filter:url(#filter5335)"
           d="M 312.64221,113.93047 C 315.14238,115.08108 318.96888,115.41927 316.68282,119.99138 C 315.15868,123.03968 322.92043,121.6583 320.72343,126.0523 C 318.23112,131.03693 322.23866,129.99174 322.23866,136.15382 C 322.23866,140.46592 321.68725,142.19157 324.76404,143.72997"
           id="path4421"
           transform="translate(22.130538,7.1874608)" />
        <path
           style="opacity:0.16544118;fill:none;fill-rule:evenodd;stroke:#000000;stroke-width:1px;stroke-linecap:butt;stroke-linejoin:miter;stroke-opacity:1;filter:url(#filter5331)"
           d="M 313.14729,133.62844 C 313.14729,135.3618 317.04922,134.54444 317.69298,136.15382 C 317.7129,136.20364 316.4187,143.29441 316.17775,144.74012 C 315.82557,146.85321 320.59084,148.71444 321.73359,149.28581 C 322.96387,149.90095 324.34794,147.6816 324.76404,147.2655"
           id="path4423"
           transform="translate(22.130538,7.1874608)" />
        <path
           style="opacity:0.16544118;fill:none;fill-rule:evenodd;stroke:#000000;stroke-width:1px;stroke-linecap:butt;stroke-linejoin:miter;stroke-opacity:1;filter:url(#filter5327)"
           d="M 313.14729,152.82134 C 326.17305,159.33422 310.42032,161.50843 320.72343,156.35687 C 322.98192,155.22763 324.48205,156.63887 326.78435,154.33657"
           id="path4425"
           transform="translate(22.130538,7.1874608)" />
        <path
           style="opacity:0.16544118;fill:none;fill-rule:evenodd;stroke:#000000;stroke-width:1px;stroke-linecap:butt;stroke-linejoin:miter;stroke-opacity:1;filter:url(#filter5323)"
           d="M 323.24881,162.92287 C 325.40486,161.84484 318.33379,162.48566 316.17775,161.40764 C 315.94824,161.29288 313.74812,164.34234 313.65237,164.43809"
           id="path4427"
           transform="translate(22.130538,7.1874608)" />
        <path
           style="opacity:0.16544118;fill:none;fill-rule:evenodd;stroke:#000000;stroke-width:1px;stroke-linecap:butt;stroke-linejoin:miter;stroke-opacity:1;filter:url(#filter5319)"
           d="M 323.75389,171.50916 C 318.20588,168.73516 319.71328,174.44497 319.71328,179.08531 C 319.71328,179.64561 312.92281,177.85067 318.19805,183.12592 C 320.10281,185.03068 318.85138,188.59383 318.19805,191.20714 C 317.7418,193.03213 317.69298,194.9802 317.69298,195.75282"
           id="path4429"
           transform="translate(22.130538,7.1874608)" />
        <path
           style="opacity:0.16544118;fill:none;fill-rule:evenodd;stroke:#000000;stroke-width:1px;stroke-linecap:butt;stroke-linejoin:miter;stroke-opacity:1;filter:url(#filter5315)"
           d="M 323.75389,187.6716 C 322.62733,192.17785 327.26774,186.70482 321.73359,197.77313 C 321.10805,199.0242 321.73296,203.8353 320.72343,205.85435 C 319.63755,208.02611 314.07362,204.16935 314.66252,201.81374 C 314.74068,201.50108 317.83611,208.09346 316.68282,210.40004 C 316.11083,211.54403 320.08261,215.03805 321.73359,215.4508 C 324.27444,216.08601 318.52029,219.83536 316.17775,221.00664"
           id="path4431"
           transform="translate(22.130538,7.1874608)" />
        <path
           style="opacity:0.16544118;fill:none;fill-rule:evenodd;stroke:#000000;stroke-width:1px;stroke-linecap:butt;stroke-linejoin:miter;stroke-opacity:1;filter:url(#filter5311)"
           d="M 313.14729,232.62339 C 315.13448,233.12019 321.25238,226.03353 323.24881,224.03709 C 323.67805,223.60786 323.92225,223.02694 324.25897,222.52187"
           id="path4433"
           transform="translate(22.130538,7.1874608)" />
        <path
           style="opacity:0.16544118;fill:none;fill-rule:evenodd;stroke:#000000;stroke-width:1px;stroke-linecap:butt;stroke-linejoin:miter;stroke-opacity:1;filter:url(#filter5307)"
           d="M 312.64221,168.98378 C 313.48401,168.14199 314.99924,169.3205 316.17775,169.48886"
           id="path4435"
           transform="translate(22.130538,7.1874608)" />
        <path
           style="opacity:0.16544118;fill:none;fill-rule:evenodd;stroke:#000000;stroke-width:1px;stroke-linecap:butt;stroke-linejoin:miter;stroke-opacity:1;filter:url(#filter5303)"
           d="M 311.12698,188.17668 C 312.51531,186.78836 314.49416,190.19698 316.17775,191.20714"
           id="path4437"
           transform="translate(22.130538,7.1874608)" />
        <path
           style="opacity:0.16544118;fill:none;fill-rule:evenodd;stroke:#000000;stroke-width:1px;stroke-linecap:butt;stroke-linejoin:miter;stroke-opacity:1;filter:url(#filter5299)"
           d="M 311.12698,211.91526 C 311.99366,211.04858 313.48401,212.5887 314.66252,212.92542"
           id="path4439"
           transform="translate(22.130538,7.1874608)" />
        <path
           style="opacity:0.16544118;fill:none;fill-rule:evenodd;stroke:#000000;stroke-width:1px;stroke-linecap:butt;stroke-linejoin:miter;stroke-opacity:1;filter:url(#filter5295)"
           d="M 313.14729,222.01679 C 314.22531,220.93877 316.32937,223.20367 317.69298,222.52187"
           id="path4441"
           transform="translate(22.130538,7.1874608)" />
        <path
           style="opacity:0.16544118;fill:none;fill-rule:evenodd;stroke:#000000;stroke-width:1px;stroke-linecap:butt;stroke-linejoin:miter;stroke-opacity:1;filter:url(#filter5271)"
           d="M 313.14729,108.8797 C 315.30597,106.72102 319.43685,113.79738 320.72343,107.36448 C 321.12647,105.3493 317.68633,104.30743 317.1879,102.31371 C 317.13864,102.11667 319.02916,101.39308 319.2082,101.30356"
           id="path4443"
           transform="translate(22.130538,7.1874608)" />
        <path
           style="opacity:0.16544118;fill:none;fill-rule:evenodd;stroke:#000000;stroke-width:1px;stroke-linecap:butt;stroke-linejoin:miter;stroke-opacity:1;filter:url(#filter5291)"
           d="M 324.25897,114.43554 C 323.51945,111.47748 324.13671,120.69589 325.26912,123.52692 C 326.7096,127.12813 328.61061,120.03133 328.29958,118.47615 C 327.75411,115.7488 327.92835,114.46584 327.28942,111.91016"
           id="path4445"
           transform="translate(22.130538,7.1874608)" />
        <path
           style="opacity:0.16544118;fill:none;fill-rule:evenodd;stroke:#000000;stroke-width:1px;stroke-linecap:butt;stroke-linejoin:miter;stroke-opacity:1;filter:url(#filter5287)"
           d="M 325.26912,130.09291 C 325.26912,130.09291 325.26912,130.09291 325.26912,130.09291 z"
           id="path4447"
           transform="translate(22.130538,7.1874608)" />
        <path
           style="opacity:0.16544118;fill:none;fill-rule:evenodd;stroke:#000000;stroke-width:1px;stroke-linecap:butt;stroke-linejoin:miter;stroke-opacity:1;filter:url(#filter5283)"
           d="M 328.29958,145.2452 C 328.02731,143.88383 328.67775,149.28581 327.28942,149.28581"
           id="path4449"
           transform="translate(22.130538,7.1874608)" />
        <path
           style="opacity:0.16544118;fill:none;fill-rule:evenodd;stroke:#000000;stroke-width:1px;stroke-linecap:butt;stroke-linejoin:miter;stroke-opacity:1;filter:url(#filter5279)"
           d="M 324.76404,166.4584 C 324.16881,163.48221 318.7078,166.96348 315.67267,166.96348"
           id="path4451"
           transform="translate(22.130538,7.1874608)" />
        <path
           style="opacity:0.16544118;fill:none;fill-rule:evenodd;stroke:#000000;stroke-width:1px;stroke-linecap:butt;stroke-linejoin:miter;stroke-opacity:1;filter:url(#filter5275)"
           d="M 325.26912,175.54977 C 325.26912,175.54977 325.26912,175.54977 325.26912,175.54977 z"
           id="path4453"
           transform="translate(22.130538,7.1874608)" />
      </g>
      <rect
         ry="8.9285717"
         y="-2.2370746"
         x="254.55844"
         height="109.09647"
         width="181.82745"
         id="rect3480"
         style="fill:url(#radialGradient3500);fill-opacity:1;stroke:#000000;stroke-width:2;stroke-linecap:round;stroke-linejoin:round;stroke-miterlimit:4;stroke-dasharray:none;stroke-opacity:1" />
      <path
         id="rect3490"
         d="M 264.13439,-1.5223213 C 259.22724,-1.5223213 255.26786,2.3756354 255.26786,7.2066631 L 255.26786,96.297242 C 255.26786,99.070184 256.57914,101.53893 258.61606,103.13393 C 257.4136,101.64557 256.69395,99.759283 256.69395,97.701205 L 256.69395,8.5801047 C 256.69395,3.749077 260.65332,-0.11835875 265.56048,-0.11835875 L 428.22721,-0.11835875 C 430.31894,-0.11835875 432.23333,0.58888676 433.74554,1.7739385 C 432.12541,-0.23137896 429.61776,-1.5223213 426.80112,-1.5223213 L 264.13439,-1.5223213 z"
         style="opacity:0.26838235;fill:#ffffff;fill-opacity:1;stroke:none;stroke-width:2;stroke-linecap:round;stroke-linejoin:round;stroke-miterlimit:4;stroke-dasharray:none;stroke-opacity:1;filter:url(#filter3578)" />
      <path
         id="rect3526"
         d="M 431.73668,1.2901788 C 432.76914,2.7371437 433.38737,4.5128178 433.38737,6.439516 L 433.38737,96.475833 C 433.38737,101.35648 429.48335,105.29446 424.6448,105.29446 L 264.25225,105.29446 C 262.34218,105.29446 260.58181,104.67085 259.14732,103.62941 C 260.73026,105.84783 263.31074,107.26786 266.2392,107.26786 L 426.63175,107.26786 C 431.47029,107.26786 435.34372,103.36071 435.34375,98.480066 L 435.34375,8.4437491 C 435.34375,5.489808 433.93597,2.8868852 431.73668,1.2901788 z"
         style="opacity:0.11029412;fill:#000000;fill-opacity:1;stroke:none;stroke-width:2;stroke-linecap:round;stroke-linejoin:round;stroke-miterlimit:4;stroke-dasharray:none;stroke-opacity:1;filter:url(#filter3574)" />
      <path
         style="opacity:0.96323529;fill:url(#radialGradient3502);fill-opacity:1;fill-rule:evenodd;stroke:#000000;stroke-width:3;stroke-linecap:butt;stroke-linejoin:miter;stroke-miterlimit:4;stroke-dasharray:none;stroke-opacity:1"
         d="M 375.48371,52.79062 C 375.72758,53.363546 376.03077,54.469645 375.53183,55.707233 C 375.91676,59.217664 374.5052,60.196069 373.62131,63.009223 C 372.67245,66.458852 371.17256,69.187843 369.86283,71.988335 C 367.84458,75.281938 366.03391,77.410302 363.37465,79.029287 C 360.75234,80.436484 357.62483,81.841904 354.34817,82.672984 C 351.36055,82.914324 348.18195,83.793234 344.7033,83.702574 C 340.87765,83.815624 336.78659,82.755684 333.9992,82.088474 C 330.67378,81.272474 328.65749,81.626204 325.65154,80.086573 C 322.95074,78.534603 321.1887,74.801297 319.21016,72.176811 C 317.95339,69.689998 315.5981,67.066448 314.7104,64.026754 C 313.51352,62.214462 315.04824,57.540284 314.02521,54.183745 C 313.70159,50.721458 314.44599,46.850076 315.28044,44.13717 C 315.95668,40.658796 315.90675,37.823082 317.173,34.803439 C 318.20846,31.652936 319.54344,27.451585 321.4296,25.077483 C 323.56526,21.563954 325.91069,19.197136 327.59007,17.351239 C 330.12235,14.638147 333.02782,11.961011 335.4951,10.873644 C 338.23641,9.5944657 341.12085,9.4060607 344.26836,9.0223487 C 347.16828,9.5334887 351.7022,9.2879047 355.09212,10.901585 C 358.14058,13.062901 360.40628,14.279871 362.21194,17.033642 C 364.01039,18.909895 366.4751,22.477004 368.14535,25.587517 C 369.40014,28.098472 371.56153,31.189405 372.60348,34.570408 C 373.99731,38.257515 374.86123,40.450473 375.2568,43.857113 C 375.78529,47.140982 375.61865,49.250371 375.48371,52.79062 z"
         id="path3732"
         sodipodi:nodetypes="ccsssscccccccccccccccccc" />
      <g
         id="g4133"
         style="opacity:0.92000002;filter:url(#filter4141)">
        <path
           sodipodi:nodetypes="cccccccccccscccc"
           d="M 301.00856,14.075761 C 309.19733,20.261666 317.80235,25.885832 326.59981,31.161169 C 335.90727,36.654616 345.24491,42.092522 354.42811,47.791363 C 357.20018,49.724989 359.50695,52.209106 362.0848,54.38271 C 368.30028,59.269141 374.72787,63.877079 381.2494,68.344867 C 384.20837,70.328693 386.72415,73.020652 390.16328,74.162532 C 391.26628,74.314017 392.30312,74.68508 393.34036,75.069119 L 386.84441,83.708281 C 385.75824,83.384212 378.93724,82.780843 377.8755,82.380193 C 374.61799,80.807622 372.20991,78.084725 369.41105,75.853695 C 363.11355,70.951413 356.69638,66.215725 349.83869,62.112571 C 349.26038,61.709 348.66056,61.33463 348.10376,60.901859 C 346.03108,59.290859 342.89375,57.942236 340.64691,56.517957 C 332.26293,50.108268 325.27912,43.151685 316.06046,37.997026 C 306.7403,32.678501 297.55049,27.126798 288.28719,21.713656 L 301.00856,14.075761 z"
           id="path4118"
           style="opacity:1;fill:#8e3030;fill-opacity:1;stroke:none;stroke-width:3;stroke-linecap:round;stroke-linejoin:round;stroke-miterlimit:4;stroke-dasharray:none;stroke-opacity:1" />
        <path
           sodipodi:nodetypes="cccccccccccscccc"
           style="opacity:1;fill:#8e3030;fill-opacity:1;stroke:none;stroke-width:3;stroke-linecap:round;stroke-linejoin:round;stroke-miterlimit:4;stroke-dasharray:none;stroke-opacity:1"
           id="path4122"
           d="M 390.54456,19.619421 C 381.1065,25.020242 371.25009,29.860163 361.20649,34.355785 C 350.5868,39.028394 339.93781,43.646213 329.44038,48.522214 C 326.25664,50.197533 323.546,52.426009 320.55902,54.341945 C 313.38192,58.623589 305.99108,62.626803 298.50676,66.490682 C 295.11398,68.202513 292.15894,70.61647 288.29714,71.496341 C 287.07364,71.573781 285.90749,71.864605 284.74,72.167778 C 287.29086,75.566719 286.21587,80.053413 297.58666,80.806374 C 298.80376,80.563352 300.03797,80.395807 301.23359,80.078285 C 304.92584,78.776717 307.76461,76.326718 310.99863,74.369453 C 318.26704,70.077678 325.65537,65.95202 333.4838,62.456239 C 334.14801,62.106564 334.83383,61.786041 335.47643,61.407217 C 337.86848,59.997036 339.52431,57.771625 342.0948,56.550062 C 351.76319,50.94772 361.81878,45.868941 372.31709,41.513972 C 382.93849,37.008921 393.43289,32.273616 403.9984,27.674897 C 401.46326,23.852548 403.61167,17.298123 390.54456,19.619421 z" />
      </g>
      <g
         id="g3655"
         style="opacity:0.23529412;filter:url(#filter3728)">
        <path
           id="path3615"
           d="M 261.12443,32.613188 C 266.11006,32.188914 280.21192,31.708451 284.86302,27.057349 C 290.39489,21.525479 295.14055,18.12822 301.02546,13.420289 C 302.42011,12.304567 314.35458,14.04854 319.71328,11.90506 C 324.84213,9.8535193 334.91857,11.90506 340.92648,11.90506 C 348.89169,11.90506 353.95232,16.344604 359.61431,22.006586 C 363.3307,25.722976 369.14672,28.288021 373.75644,30.592882 C 377.88351,32.656416 387.42189,30.592882 392.44426,30.592882 C 399.49613,30.592882 407.54842,31.374565 413.15239,28.572577 C 415.3664,27.465574 418.43468,27.630814 420.72854,27.057349"
           style="fill:none;fill-rule:evenodd;stroke:#000000;stroke-width:1px;stroke-linecap:butt;stroke-linejoin:miter;stroke-opacity:1" />
        <path
           id="path3617"
           d="M 357.594,1.8035349 C 363.21072,-1.0048222 368.53121,13.956593 374.76659,16.450747 C 381.17288,19.01326 388.34554,18.932922 394.96965,17.460899 C 397.6197,16.871998 400.35713,16.787464 403.05087,16.450747 C 409.4603,15.649567 414.48284,13.420289 421.23361,13.420289 C 422.20757,13.420289 423.51547,12.279362 424.26407,11.90506"
           style="fill:none;fill-rule:evenodd;stroke:#000000;stroke-width:1px;stroke-linecap:butt;stroke-linejoin:miter;stroke-opacity:1" />
        <path
           id="path3619"
           d="M 386.38335,-0.72184647 C 393.58431,-0.72184647 408.33088,11.960226 421.23361,9.379679 C 421.97191,9.2320186 422.58048,8.706244 423.25392,8.3695264"
           style="fill:none;fill-rule:evenodd;stroke:#000000;stroke-width:1px;stroke-linecap:butt;stroke-linejoin:miter;stroke-opacity:1" />
        <path
           id="path3621"
           d="M 327.28942,0.79338235 C 333.50609,-0.44994977 314.83912,3.1948229 308.6016,4.3289163 C 301.69521,5.5846233 294.61187,7.6238757 288.90363,11.90506 C 283.84533,15.698782 274.12751,17.020278 269.20565,19.481204 C 268.74794,19.710062 267.25894,19.481204 266.68027,19.481204"
           style="fill:none;fill-rule:evenodd;stroke:#000000;stroke-width:1px;stroke-linecap:butt;stroke-linejoin:miter;stroke-opacity:1" />
        <path
           id="path3623"
           d="M 284.35794,0.79338235 C 278.92471,3.5099957 269.61449,7.5097028 262.13459,9.379679 C 260.62874,9.7561406 259.10413,10.053114 257.5889,10.389832 C 256.5892,10.611987 255.56859,10.726549 254.55844,10.894908"
           style="fill:none;fill-rule:evenodd;stroke:#000000;stroke-width:1px;stroke-linecap:butt;stroke-linejoin:miter;stroke-opacity:1" />
        <path
           id="path3625"
           d="M 302.54069,28.067501 C 302.06529,28.173145 309.2503,23.305581 319.2082,19.986281 C 320.37098,19.59869 321.56523,19.312846 322.74374,18.976128 C 327.50487,17.615804 341.48915,26.833605 345.97725,29.077654 C 351.04128,31.609668 353.56145,31.910915 358.09908,34.633493 C 361.52353,36.688165 359.11867,38.924281 356.07877,39.684255 C 349.44463,41.34279 342.54794,43.016021 335.87572,45.240094 C 329.81268,47.261109 322.3374,54.128299 315.67267,50.795933 C 311.30288,48.611039 301.61132,43.805652 298.50008,40.694408 C 297.25276,39.447093 302.25954,33.960722 302.54069,33.62334"
           style="fill:none;fill-rule:evenodd;stroke:#000000;stroke-width:1px;stroke-linecap:butt;stroke-linejoin:miter;stroke-opacity:1" />
        <path
           id="path3627"
           d="M 262.13459,42.209637 C 260.39484,40.469888 274.39974,40.665742 284.35794,38.674103 C 285.03862,38.537967 285.70481,38.337385 286.37825,38.169027 C 286.70491,38.087361 287.05168,38.169027 287.3884,38.169027 C 289.29861,38.169027 293.37028,33.197302 294.45947,32.108111 C 296.2527,30.314879 295.1151,31.780294 296.47977,31.097959"
           style="fill:none;fill-rule:evenodd;stroke:#000000;stroke-width:1px;stroke-linecap:butt;stroke-linejoin:miter;stroke-opacity:1" />
        <path
           id="path3629"
           d="M 266.1752,50.290857 C 271.58503,44.881021 288.42193,54.002541 295.46962,56.351772 C 301.25718,58.280961 304.97666,59.328586 310.11683,62.412688 C 314.49609,65.040241 323.90741,64.938069 328.80465,64.938069 C 334.61459,64.938069 341.87024,63.456041 346.9874,60.897459 C 351.12291,58.829701 353.45629,54.673354 358.09908,52.816238 C 364.17511,50.385827 367.01419,51.477271 372.24121,46.250247 C 376.51692,41.974544 387.14384,44.544896 392.44426,43.219789 C 399.13138,41.54801 405.46369,35.643645 412.14224,35.643645 C 412.8364,35.643645 413.48911,35.306928 414.16254,35.138569"
           style="fill:none;fill-rule:evenodd;stroke:#000000;stroke-width:1px;stroke-linecap:butt;stroke-linejoin:miter;stroke-opacity:1" />
        <path
           id="path3631"
           d="M 428.30468,38.674103 C 436.51965,38.674103 417.75061,51.035338 406.5864,53.826391 C 400.43961,55.363089 395.19438,55.940142 389.41381,57.867001 C 375.87289,62.380639 359.305,65.752455 349.0077,76.049747 C 341.67467,83.382782 322.31603,80.090357 312.64221,80.090357 C 303.06965,80.090357 296.35019,71.219127 287.3884,68.978679 C 280.35144,67.21944 275.35542,66.453298 268.1955,66.453298 C 266.21919,66.453298 265.1159,67.488021 264.15489,67.968527"
           style="fill:none;fill-rule:evenodd;stroke:#000000;stroke-width:1px;stroke-linecap:butt;stroke-linejoin:miter;stroke-opacity:1" />
        <path
           id="path3633"
           d="M 261.62951,75.544671 C 259.42793,75.544671 269.15254,74.499111 276.7818,79.585281 C 282.18104,83.184774 289.23956,89.125349 295.46962,91.202035 C 297.79517,91.977217 300.18366,92.548905 302.54069,93.22234 C 313.17355,96.2603 322.16851,98.778179 334.86557,98.778179 C 341.58691,98.778179 349.57881,94.84733 356.07877,93.22234 C 363.51351,91.363657 367.85334,80.058795 375.27167,78.575128 C 384.97145,76.635173 402.70176,72.358241 409.61686,65.443145 C 412.7247,62.3353 418.69631,63.951747 421.23361,58.877154 C 421.71035,57.923679 425.88228,56.047745 427.29453,55.34162"
           style="fill:none;fill-rule:evenodd;stroke:#000000;stroke-width:1px;stroke-linecap:butt;stroke-linejoin:miter;stroke-opacity:1" />
        <path
           id="path3635"
           d="M 432.34529,69.483755 C 435.15643,63.86148 420.63094,74.061973 414.66762,76.049747 C 408.5733,78.081189 390.9354,82.609377 385.87827,87.666501 C 385.19156,88.353218 378.64804,88.00138 377.79705,88.171578"
           style="fill:none;fill-rule:evenodd;stroke:#000000;stroke-width:1px;stroke-linecap:butt;stroke-linejoin:miter;stroke-opacity:1" />
        <path
           id="path3637"
           d="M 360.62446,99.283256 C 359.81491,100.09281 368.73293,94.949935 378.30213,90.696959 C 380.67677,89.641565 388.26314,89.686806 390.92904,89.686806 C 399.22896,89.686806 407.37777,88.243152 415.1727,90.191883 C 416.72651,90.580337 422.97016,88.621323 424.76915,88.171578 C 427.53761,87.479461 430.04837,86.289578 432.34529,85.14112"
           style="fill:none;fill-rule:evenodd;stroke:#000000;stroke-width:1px;stroke-linecap:butt;stroke-linejoin:miter;stroke-opacity:1" />
        <path
           id="path3639"
           d="M 430.83006,92.717264 C 432.18608,92.37826 422.98822,99.411718 411.63716,101.30356 C 406.18629,102.21204 400.98041,100.93729 395.47472,102.31371 C 388.33742,104.09804 381.097,106.35432 373.75644,106.35432"
           style="fill:none;fill-rule:evenodd;stroke:#000000;stroke-width:1px;stroke-linecap:butt;stroke-linejoin:miter;stroke-opacity:1" />
        <path
           id="path3641"
           d="M 296.47977,103.32387 C 292.25294,104.38057 283.70793,102.49379 279.30718,100.29341 C 273.16359,97.221615 268.39892,95.747722 261.12443,95.747722"
           style="fill:none;fill-rule:evenodd;stroke:#000000;stroke-width:1px;stroke-linecap:butt;stroke-linejoin:miter;stroke-opacity:1" />
        <path
           id="path3643"
           d="M 318.70313,39.179179 C 314.07253,36.863881 312.98357,33.841637 316.17775,29.58273 C 319.06365,25.734862 332.63322,29.881326 335.37065,31.097959 C 338.41919,32.452866 328.22842,36.41905 327.28942,36.653798 C 322.78727,37.779336 324.2337,41.391409 318.70313,39.179179 z"
           style="fill:none;fill-rule:evenodd;stroke:#000000;stroke-width:1px;stroke-linecap:butt;stroke-linejoin:miter;stroke-opacity:1" />
        <path
           id="path3645"
           d="M 414.16254,21.50151 C 410.34952,22.454765 422.26386,21.238921 425.7793,19.481204 C 428.45972,18.140992 432.15374,17.225752 433.86052,15.945671"
           style="fill:none;fill-rule:evenodd;stroke:#000000;stroke-width:1px;stroke-linecap:butt;stroke-linejoin:miter;stroke-opacity:1" />
        <path
           id="path3649"
           d="M 267.18535,19.481204 C 265.46086,19.912325 259.82754,20.12965 257.08382,21.50151"
           style="fill:none;fill-rule:evenodd;stroke:#000000;stroke-width:1px;stroke-linecap:butt;stroke-linejoin:miter;stroke-opacity:1" />
        <path
           id="path3651"
           d="M 259.19727,50.283724 C 249.10285,53.681505 267.7376,49.911315 269.76129,49.230139"
           style="fill:none;fill-rule:evenodd;stroke:#000000;stroke-width:0.89886773px;stroke-linecap:butt;stroke-linejoin:miter;stroke-opacity:1" />
        <path
           id="path3653"
           d="M 257.08382,64.938069 C 254.39008,65.611504 262.3884,66.958374 265.16504,66.958374 C 265.83848,66.958374 266.51191,66.958374 267.18535,66.958374"
           style="fill:none;fill-rule:evenodd;stroke:#000000;stroke-width:1px;stroke-linecap:butt;stroke-linejoin:miter;stroke-opacity:1" />
      </g>
      <path
         style="opacity:0.375;fill:#03340e;fill-opacity:0.95850633;stroke:#03340e;stroke-width:3.95531464;stroke-linecap:round;stroke-linejoin:round;stroke-miterlimit:4;stroke-opacity:1;filter:url(#filter3567)"
         d="M 329.75606,146.49989 L 350.38002,148.13146 L 351.91038,191.11788 C 345.14748,189.01544 338.51465,189.909 332.0161,193.89516 L 329.75606,146.49989 z"
         id="rect3504"
         sodipodi:nodetypes="ccccc" />
    </g>
    <g
       id="g5535"
       transform="matrix(0.707877,0.1869768,-0.1869768,0.707877,92.978795,368.58772)">
      <path
         style="opacity:0.2;fill:#000000;fill-opacity:1;fill-rule:evenodd;stroke:#000000;stroke-width:2.69679403;stroke-linecap:butt;stroke-linejoin:miter;stroke-miterlimit:4;stroke-dasharray:none;stroke-opacity:1;filter:url(#filter4052)"
         d="M 260.08415,-94.312223 L 162.3272,-60.828252 C 164.21315,-30.659272 185.32848,-18.055422 211.37128,-18.552569 C 240.18302,-19.102585 262.10497,-34.665999 262.81856,-69.534024 C 262.98997,-77.90947 262.00549,-86.298089 260.08415,-94.312223 z"
         id="path4022"
         transform="matrix(1.0388318,-1.048514e-2,-1.048514e-2,1.0019055,-11.107738,2.9399374)" />
      <path
         sodipodi:nodetypes="cssss"
         id="path5364"
         d="M 257.45595,-73.136327 C 257.45595,-36.573927 236.34205,-20.694337 208.16138,-20.694337 C 181.00259,-20.694337 158.98839,-36.224677 159.05339,-72.572457 C 159.1184,-108.92025 181.23819,-152.43781 208.39693,-152.38923 C 235.55567,-152.34066 257.45595,-112.04244 257.45595,-73.136327 z"
         style="fill:url(#radialGradient3986);fill-opacity:1;fill-rule:evenodd;stroke:none;stroke-width:2.73166394;stroke-linecap:butt;stroke-linejoin:miter;stroke-miterlimit:4;stroke-dasharray:none;stroke-opacity:1" />
      <path
         transform="matrix(0.9923012,0,0,0.9923012,1.6372841,0.367541)"
         id="path3476"
         d="M 208.40625,-152.75 C 181.24751,-152.79858 159.12751,-109.28529 159.0625,-72.9375 C 158.9975,-36.58972 180.99746,-21.0625 208.15625,-21.0625 C 236.33692,-21.0625 257.46874,-36.937597 257.46875,-73.5 C 257.46875,-112.40611 235.56499,-152.70143 208.40625,-152.75 z M 208.09375,-148.8125 C 232.52738,-148.76882 252.21875,-112.53352 252.21875,-77.53125 C 252.21875,-44.637528 233.22802,-30.34375 207.875,-30.34375 C 183.44133,-30.34375 163.62902,-44.299361 163.6875,-77 C 163.74598,-109.70065 183.66012,-148.85621 208.09375,-148.8125 z"
         style="opacity:0.12867647;fill:#000000;fill-opacity:1;fill-rule:evenodd;stroke:none;stroke-width:2;stroke-linecap:butt;stroke-linejoin:miter;stroke-miterlimit:4;stroke-dasharray:none;stroke-opacity:1;filter:url(#filter5429)" />
      <path
         transform="matrix(0.9677495,-0.2519144,0.2519144,0.9677495,37.889093,53.05633)"
         d="M 238.57143,-111.20924 A 10.714286,13.571428 0 1 1 217.14286,-111.20924 A 10.714286,13.571428 0 1 1 238.57143,-111.20924 z"
         sodipodi:ry="13.571428"
         sodipodi:rx="10.714286"
         sodipodi:cy="-111.20924"
         sodipodi:cx="227.85715"
         id="path5339"
         style="opacity:0.16544118;fill:#1c5901;fill-opacity:1;stroke:none;stroke-width:3;stroke-linecap:round;stroke-linejoin:round;stroke-miterlimit:4;stroke-dasharray:none;stroke-opacity:1"
         sodipodi:type="arc" />
      <path
         transform="matrix(1.1155473,5.6409931e-2,-4.7094052e-2,1.1531253,-16.254389,4.8959249)"
         d="M 197.14286,-96.923531 A 9.6428576,10.714286 0 1 1 177.85714,-96.923531 A 9.6428576,10.714286 0 1 1 197.14286,-96.923531 z"
         sodipodi:ry="10.714286"
         sodipodi:rx="9.6428576"
         sodipodi:cy="-96.923531"
         sodipodi:cx="187.5"
         id="path5341"
         style="opacity:0.16544118;fill:#0c9ca1;fill-opacity:1;stroke:none;stroke-width:3;stroke-linecap:round;stroke-linejoin:round;stroke-miterlimit:4;stroke-dasharray:none;stroke-opacity:1"
         sodipodi:type="arc" />
      <path
         transform="matrix(0.8960137,0,8.5709914e-2,1.0214275,23.832775,1.5870559)"
         d="M 202.14286,-62.280674 A 12.142858,11.785714 0 1 1 177.85714,-62.280674 A 12.142858,11.785714 0 1 1 202.14286,-62.280674 z"
         sodipodi:ry="11.785714"
         sodipodi:rx="12.142858"
         sodipodi:cy="-62.280674"
         sodipodi:cx="190"
         id="path5343"
         style="opacity:0.16544118;fill:#3c722d;fill-opacity:1;stroke:none;stroke-width:3;stroke-linecap:round;stroke-linejoin:round;stroke-miterlimit:4;stroke-dasharray:none;stroke-opacity:1"
         sodipodi:type="arc" />
      <path
         transform="matrix(0.9979862,6.3431617e-2,-6.3431617e-2,0.9979862,-3.3102155,-14.678374)"
         d="M 240.71428,-55.494961 A 11.071428,13.571428 0 1 1 218.57142,-55.494961 A 11.071428,13.571428 0 1 1 240.71428,-55.494961 z"
         sodipodi:ry="13.571428"
         sodipodi:rx="11.071428"
         sodipodi:cy="-55.494961"
         sodipodi:cx="229.64285"
         id="path5345"
         style="opacity:0.16544118;fill:#b65353;fill-opacity:1;stroke:none;stroke-width:3;stroke-linecap:round;stroke-linejoin:round;stroke-miterlimit:4;stroke-dasharray:none;stroke-opacity:1"
         sodipodi:type="arc" />
      <path
         d="M 216.42857,-32.637817 A 10.714286,10.714286 0 1 1 194.99999,-32.637817 A 10.714286,10.714286 0 1 1 216.42857,-32.637817 z"
         sodipodi:ry="10.714286"
         sodipodi:rx="10.714286"
         sodipodi:cy="-32.637817"
         sodipodi:cx="205.71428"
         id="path5347"
         style="opacity:0.16544118;fill:#306092;fill-opacity:1;stroke:none;stroke-width:3;stroke-linecap:round;stroke-linejoin:round;stroke-miterlimit:4;stroke-dasharray:none;stroke-opacity:1"
         sodipodi:type="arc" />
      <path
         transform="matrix(1,0,-6.842969e-2,1,-6.8849854,-1.0101525)"
         d="M 206.42857,-130.13782 A 9.2857141,11.071428 0 1 1 187.85714,-130.13782 A 9.2857141,11.071428 0 1 1 206.42857,-130.13782 z"
         sodipodi:ry="11.071428"
         sodipodi:rx="9.2857141"
         sodipodi:cy="-130.13782"
         sodipodi:cx="197.14285"
         id="path5349"
         style="opacity:0.16544118;fill:#6c6b09;fill-opacity:1;stroke:none;stroke-width:3;stroke-linecap:round;stroke-linejoin:round;stroke-miterlimit:4;stroke-dasharray:none;stroke-opacity:1"
         sodipodi:type="arc" />
      <path
         id="path5351"
         d="M 248.9375,-92.625 C 242.82607,-92.625 237.84375,-87.202857 237.84375,-80.5 C 237.84375,-73.797143 242.82607,-68.343753 248.9375,-68.34375 C 252.36703,-68.34375 255.43744,-70.061964 257.46875,-72.75 C 257.46883,-72.760493 257.46867,-72.770754 257.46875,-72.78125 C 257.47061,-73.022663 257.46875,-73.256757 257.46875,-73.5 C 257.46875,-78.887706 257.0145,-84.294485 256.21875,-89.625 C 254.26947,-91.502259 251.73348,-92.624999 248.9375,-92.625 z"
         style="opacity:0.16544118;fill:#a825aa;fill-opacity:1;stroke:none;stroke-width:3;stroke-linecap:round;stroke-linejoin:round;stroke-miterlimit:4;stroke-dasharray:none;stroke-opacity:1" />
      <path
         id="path5353"
         d="M 214.40625,-152.09375 C 213.43227,-150.37243 212.84375,-148.37455 212.84375,-146.21875 C 212.84375,-139.91018 217.64821,-134.78125 223.5625,-134.78125 C 227.69523,-134.78125 231.27549,-137.2789 233.0625,-140.9375 C 227.45824,-146.62126 221.14776,-150.59455 214.40625,-152.09375 z"
         style="opacity:0.16544118;fill:#b42901;fill-opacity:1;stroke:none;stroke-width:3;stroke-linecap:round;stroke-linejoin:round;stroke-miterlimit:4;stroke-dasharray:none;stroke-opacity:1" />
      <path
         id="path5355"
         d="M 178.8125,-134.46875 C 174.53474,-128.73994 170.79245,-121.9832 167.75,-114.6875 C 169.17455,-113.84734 170.7857,-113.34375 172.5,-113.34375 C 178.21714,-113.34375 182.84375,-118.61929 182.84375,-125.125 C 182.84375,-128.92818 181.27211,-132.31331 178.8125,-134.46875 z"
         style="opacity:0.16544118;fill:#0f00c7;fill-opacity:1;stroke:none;stroke-width:3;stroke-linecap:round;stroke-linejoin:round;stroke-miterlimit:4;stroke-dasharray:none;stroke-opacity:1" />
      <path
         id="path5357"
         d="M 162.15625,-86.9375 C 161.45566,-86.9375 160.7538,-86.867683 160.09375,-86.75 C 159.43528,-82.102153 159.07059,-77.461048 159.0625,-72.9375 C 159.06081,-71.992646 159.09715,-71.073063 159.125,-70.15625 C 160.07262,-69.900716 161.11062,-69.78125 162.15625,-69.78125 C 167.67625,-69.78125 172.15625,-73.612322 172.15625,-78.34375 C 172.15625,-83.075178 167.67625,-86.937502 162.15625,-86.9375 z"
         style="opacity:0.16544118;fill:#9b6b92;fill-opacity:1;stroke:none;stroke-width:3;stroke-linecap:round;stroke-linejoin:round;stroke-miterlimit:4;stroke-dasharray:none;stroke-opacity:1" />
      <path
         id="path5359"
         d="M 168.5625,-53.34375 C 166.30719,-53.34375 164.23429,-52.175238 162.625,-50.21875 C 165.5291,-42.161207 170.08017,-35.904342 175.8125,-31.28125 C 177.09674,-33.609362 177.84375,-36.560153 177.84375,-39.78125 C 177.84375,-47.272678 173.68821,-53.343748 168.5625,-53.34375 z"
         style="opacity:0.27573529;fill:#15181e;fill-opacity:1;stroke:none;stroke-width:3;stroke-linecap:round;stroke-linejoin:round;stroke-miterlimit:4;stroke-dasharray:none;stroke-opacity:1" />
      <path
         sodipodi:type="arc"
         style="opacity:0.5625;fill:#ffffff;fill-opacity:1;stroke:none;stroke-width:3;stroke-linecap:round;stroke-linejoin:round;stroke-miterlimit:4;stroke-dasharray:none;stroke-opacity:1;filter:url(#filter5531)"
         id="path5433"
         sodipodi:cx="187.5"
         sodipodi:cy="-96.923531"
         sodipodi:rx="9.6428576"
         sodipodi:ry="10.714286"
         d="M 197.14286,-96.923531 A 9.6428576,10.714286 0 1 1 177.85714,-96.923531 A 9.6428576,10.714286 0 1 1 197.14286,-96.923531 z"
         transform="matrix(1.5296802,0.500741,-0.5069016,1.5706637,-136.86335,-57.768287)" />
      <path
         style="fill:none;fill-opacity:1;fill-rule:evenodd;stroke:#3e3e3e;stroke-width:2.73166393999999979;stroke-linecap:butt;stroke-linejoin:miter;stroke-miterlimit:4;stroke-dasharray:none;stroke-opacity:1"
         d="M 257.45595,-73.136327 C 257.45595,-36.573927 236.34205,-20.694337 208.16138,-20.694337 C 181.00259,-20.694337 158.98839,-36.224677 159.05339,-72.572457 C 159.1184,-108.92025 181.23819,-152.43781 208.39693,-152.38923 C 235.55567,-152.34066 257.45595,-112.04244 257.45595,-73.136327 z"
         id="path3988"
         sodipodi:nodetypes="cssss" />
    </g>
    <path
       style="opacity:0.3125;fill:url(#linearGradient3587);fill-opacity:1;fill-rule:evenodd;stroke:none;stroke-width:1px;stroke-linecap:butt;stroke-linejoin:miter;stroke-opacity:1;filter:url(#filter3645)"
       d="M 310.35714,362.71932 C 310.35714,362.71932 291.59285,370.28149 285.41842,372.87468 C 270.3532,371.96382 233.692,372.06715 220.69199,376.71661 C 216.5513,373.68615 206.79259,374.2463 195.35714,373.43361 C 187.80006,372.89654 170.35714,369.86218 170.35714,369.86218 L 152.85714,358.07646 L 178.57143,353.07647 C 219.10084,361.72941 297.46701,356.27211 310.35714,362.71932 z"
       id="path3571"
       sodipodi:nodetypes="cccscccc"
       inkscape:export-filename="/home/mads/tothemario/Desktop/incubatedEggs0.png"
       inkscape:export-xdpi="90"
       inkscape:export-ydpi="90" />
    <path
       style="fill:url(#radialGradient3404);fill-opacity:1;fill-rule:evenodd;stroke:#00310b;stroke-width:2;stroke-linecap:round;stroke-linejoin:round;stroke-miterlimit:4;stroke-dasharray:none;stroke-opacity:1"
       d="M 332.56858,356.13221 C 337.98405,346.52069 334.53137,339.08993 326.43742,332.51627 C 316.9086,324.77726 293.08588,331.23399 280.02373,337.8629 C 266.10019,340.67193 234.27959,342.03633 222.07993,347.81215 C 213.56719,345.51604 198.53063,341.835 183.86565,342.12325 C 179.79694,336.29899 173.1775,332.21382 169.57993,324.98039 L 173.15136,314.98038 C 177.23573,312.0729 185.61029,311.9344 178.5085,306.7661 C 173.75063,304.50621 170.8618,306.03799 164.93707,307.83753 C 154.95342,314.19219 158.05361,321.00165 157.79422,330.33752 C 157.39741,344.61911 175.24981,354.92531 182.79421,359.62325 C 202.4155,368.84903 214.9521,365.7906 226.72279,366.05182 C 250.39638,370.03056 271.52082,368.69979 281.49562,364.96244 C 290.17394,365.77251 302.54407,362.7185 311.76965,362.31769"
       id="path3443"
       sodipodi:nodetypes="cscccccccscccs"
       inkscape:export-filename="/home/mads/tothemario/Desktop/incubatedEggs0.png"
       inkscape:export-xdpi="90"
       inkscape:export-ydpi="90" />
    <path
       style="fill:#00310b;fill-opacity:1;fill-rule:evenodd;stroke:#00310b;stroke-width:1.5;stroke-linecap:round;stroke-linejoin:round;stroke-miterlimit:4;stroke-dasharray:none;stroke-opacity:1"
       d="M 86.494312,367.22622 C 88.100711,370.21929 88.841679,373.62971 88.388347,377.26461"
       id="path3406"
       sodipodi:nodetypes="cc"
       inkscape:export-filename="/home/mads/tothemario/Desktop/incubatedEggs0.png"
       inkscape:export-xdpi="90"
       inkscape:export-ydpi="90" />
    <path
       style="fill:none;fill-rule:evenodd;stroke:#00310b;stroke-width:1.5;stroke-linecap:round;stroke-linejoin:round;stroke-opacity:1"
       d="M 183.59523,342.22494 C 183.08363,343.59919 183.18106,344.39435 182.83761,346.26556"
       id="path3408"
       sodipodi:nodetypes="cc"
       inkscape:export-filename="/home/mads/tothemario/Desktop/incubatedEggs0.png"
       inkscape:export-xdpi="90"
       inkscape:export-ydpi="90" />
    <path
       sodipodi:nodetypes="cc"
       id="path3412"
       d="M 222.07228,348.70168 C 222.21115,350.16148 222.64557,350.83457 223.15246,352.66826"
       style="fill:none;fill-rule:evenodd;stroke:#00310b;stroke-width:1.5;stroke-linecap:round;stroke-linejoin:round;stroke-opacity:1"
       inkscape:export-filename="/home/mads/tothemario/Desktop/incubatedEggs0.png"
       inkscape:export-xdpi="90"
       inkscape:export-ydpi="90" />
    <path
       style="fill:none;fill-rule:evenodd;stroke:#00310b;stroke-width:1.34113848;stroke-linecap:round;stroke-linejoin:round;stroke-opacity:1"
       d="M 169.75003,325.42883 C 168.97562,324.88854 168.54944,325.14935 167.51465,324.92839"
       id="path3414"
       sodipodi:nodetypes="cc"
       inkscape:export-filename="/home/mads/tothemario/Desktop/incubatedEggs0.png"
       inkscape:export-xdpi="90"
       inkscape:export-ydpi="90" />
    <path
       style="fill:none;fill-rule:evenodd;stroke:#00310b;stroke-width:1.5;stroke-linecap:round;stroke-linejoin:round;stroke-opacity:1"
       d="M 222.07228,348.70168 C 222.21115,350.16148 222.64557,350.83457 223.15246,352.66826"
       id="path3432"
       sodipodi:nodetypes="cc"
       inkscape:export-filename="/home/mads/tothemario/Desktop/incubatedEggs0.png"
       inkscape:export-xdpi="90"
       inkscape:export-ydpi="90" />
  </g>
</svg>
